<?xml version="1.0" encoding="UTF-8"?><svg id="Layer_1" xmlns="http://www.w3.org/2000/svg" viewBox="0 0 432 852"><defs><style>.cls-1{fill:#f2bf8c;}.cls-2{fill:#fbca9c;}.cls-3{fill:#b79251;}.cls-4{fill:#333;}.cls-5{fill:#424242;}.cls-6{fill:#724e1f;}.cls-7{fill:#9b6856;}.cls-8{fill:#2b2b2b;}.cls-9{fill:#353029;}.cls-10{fill:#4c4743;}.cls-11{fill:#60411b;}</style></defs><path class="cls-2" d="M334.12,510.2l-.11,5.15-.84,22.32s-2.2,15.13-16.81,15.91c-19.36,1.04-20.66-16.47-20.66-16.47l-.44-24.21,38.86-2.7Z"/><polygon class="cls-4" points="173.39 524.76 143.96 795.74 193.01 801.87 231.17 568.9 276.12 801.87 326.66 795.12 286.2 524.76 173.39 524.76"/><path class="cls-8" d="M228.32,541.61c.92-1.19,2.9-.95,3.87,0,15.33,15.04,37.76,18.55,59.09,17.1l-5.08-33.95h-112.81l-3.69,34.01c20.95,.25,44.58,.91,58.63-17.17Z"/><polygon class="cls-7" points="177.06 312.64 267.81 312.64 232.55 439.55 217.22 439.55 177.06 312.64"/><g><path class="cls-2" d="M213.23,289.34v39.24s0,14.73,17.79,14.72c15.34-.02,14.1-15.94,14.1-15.94l.02-38.01h-31.91Z"/><path class="cls-1" d="M213.39,301.7c4.66,2.87,11.51,1.32,16.72,1.16,5.3-.16,10.17-1.19,15.03-2.78v-10.74h-31.9v12.3c.05,.03,.1,.03,.15,.06Z"/></g><path class="cls-6" d="M158.06,202l-28.51-6.31s-8.59-32.65-8.66-64.37c-.08-31.73,15.1-102.99,101.09-102.99s104.38,62.53,107.13,96.56c2.76,34.02-8.27,62.07-8.27,62.07l-162.78,15.04Z"/><path class="cls-11" d="M194.86,135.69c-12.84-22.21-44.19-32.53-70.35-33.55-.5,2.05-.95,4.09-1.33,6.08,22.46,1.07,44.64,5.56,60.26,23.47,15.14,17.35,19.77,38.02,22.43,59.4,1.62,2,3.23,4,4.79,6.05l3.6-.33c-3.94-21.07-8.29-41.91-19.4-61.11Z"/><path class="cls-11" d="M224.44,195.87c-.07-4.48,.06-8.99,.34-13.51-.69-22-3.42-44.23-9.76-64.63-8.61-27.7-18.11-59.47-38.78-80.81-1.87,.81-3.69,1.66-5.45,2.57,17.09,15.67,27.46,45.29,33.4,62.77,10.64,31.35,17.68,61.76,16.33,93.97l3.92-.36Z"/><path class="cls-11" d="M242.52,97.56c-4,21.67-8.22,43.41-10.23,65.36-.71,7.82-1.59,16.19-1.97,24.58,.05,2.61,.1,5.21,.1,7.81l9.61-.89c.11-6.19,.69-12.49,1.45-18.98,2.66-22.71,2.61-45.6,5.47-68.29,2.34-18.63,6.1-36.97,14.38-53.92,2.66-5.47,5.64-11.21,9.34-16.28-1.65-.67-3.35-1.32-5.09-1.92-15.33,14.39-19.75,44.69-23.05,62.53Z"/><path class="cls-11" d="M280.55,183.69c6.18-10.94,14.5-18.44,25.92-23.65,7.18-3.27,14.6-4.72,21.97-6.28,.25-2.09,.48-4.22,.64-6.43-18.51,2.55-35.86,6.8-44.78,26.75-1.95,4.35-4.15,8.78-6.16,13.28-.04,.65-.09,1.3-.14,1.94,.8-2.14,1.66-4.07,2.54-5.62Z"/><path class="cls-11" d="M271.99,177.5c.91-4.13,1.88-8.07,2.89-11.93,2.18-11.7,5.8-23.03,11.31-33.38,1.7-3.19,3.49-6.42,5.4-9.6,.6-1.11-1.74-2.79-1.1-3.91,7.46-13.16,17.23-22.45,30.97-28.28-.67-1.8-1.37-3.6-2.16-5.4-7.84,2.32-14.38,6.84-20.92,14.36-7.39,8.5-14.5,17.93-19.16,28.27-9.2,20.42-11.91,42.24-12.52,64.33l3.59-.33c.66-1.78,1.39-3.56,2.14-5.31,.11-2.06,.28-4.11,.47-6.16-.71-.6-1.16-1.5-.91-2.65Z"/><path class="cls-11" d="M173.95,176.35c7.33,5.55,14.47,11.84,19.57,19.59,.57,.87,1.13,1.75,1.68,2.63l9.2-.85c-6.32-8.16-13.25-15.85-20.56-22.69-17.11-16-38.89-12.48-60.43-11.27,.23,1.68,.48,3.3,.73,4.89,16.73-1.88,36.23-2.59,49.81,7.7Z"/><path class="cls-2" d="M272.09,104.65c-30.34-3.22-42.3,24.68-42.3,24.68,0,0-15.11-28.66-47.29-22.68-32.18,5.98-36.86,38.01-36.86,38.01v115.87c0,21.59,36.25,39.08,80.96,39.08s80.96-17.5,80.96-39.08c0,0-.1-96.86,0-112.19,.1-15.33-5.11-40.46-35.46-43.68Z"/><path class="cls-2" d="M160.51,201.06c0,11.34-9.19,20.54-20.54,20.54s-20.54-9.2-20.54-20.54,9.2-20.53,20.54-20.53,20.54,9.2,20.54,20.53Z"/><path class="cls-2" d="M331.77,201.06c0,11.34-9.19,20.54-20.54,20.54s-20.54-9.2-20.54-20.54,9.2-20.53,20.54-20.53,20.54,9.2,20.54,20.53Z"/><polygon class="cls-1" points="226.6 162.59 215.54 239.84 242.21 235.24 226.6 162.59"/><path class="cls-4" d="M191.78,310.8l43.07,122.62v93.19s-20.38,41.69-74.34,26.98l-3.68-176.56-22.07,56.75,26.97,26.02-25.44,37.49s-47.47-30.51-51.15-50.75c-3.68-20.23,25.09-89.13,25.09-89.13,0,0,11.65-31.88,28.05-30.65,20.37,1.53,17.93,1.84,17.93,1.84,0,0-1.68-8.58,2.84-14.71s32.72-3.07,32.72-3.07Z"/><path class="cls-4" d="M267.47,310.8l-43.07,122.62v93.19s20.38,41.69,74.33,26.98l3.68-176.56-2.95,141.48,47.7-1.4-3.72-166.88s-2.11-24.7-22.49-23.47c-20.39,1.22-17.93,1.84-17.93,1.84,0,0,1.68-8.58-2.84-14.71-4.52-6.13-32.73-3.07-32.73-3.07Z"/><path class="cls-8" d="M303.5,509.13c.05-14.95,.43-29.75,.88-44.73,.93-31.03-.5-56.12-2-85.73l-2.91,139.83,3.69-.11c.16-3.11,.33-6.22,.34-9.27Z"/><polygon class="cls-5" points="191.78 310.8 187.95 360.76 203.58 360.76 193.47 421.46 229.63 418.55 191.78 310.8"/><polygon class="cls-5" points="267.47 310.8 271.31 360.76 255.67 360.76 265.79 421.46 229.63 418.55 267.47 310.8"/><rect class="cls-5" x="252.78" y="506.52" width="34.03" height="5.06"/><rect class="cls-5" x="170.93" y="506.52" width="34.03" height="5.06"/><rect class="cls-3" x="264.34" y="381.46" width="30.92" height="6.9"/><rect class="cls-8" x="227.79" y="418.7" width="2.69" height="119.32"/><path class="cls-10" d="M127.71,818.27l68.5,4.25s7.37-33.22-28.5-42.42c-35.87-9.2-40,38.16-40,38.16Z"/><path class="cls-10" d="M342.12,819.42l-68.5,4.25s-7.37-33.22,28.5-42.42c35.87-9.2,40,38.16,40,38.16Z"/><path class="cls-2" d="M160.19,462.81l3.93,3.33,16.8,14.72s10.36,11.24,1.76,23.08c-11.4,15.69-25.8,5.66-25.8,5.66l-19.08-14.91,22.39-31.88Z"/><path class="cls-9" d="M194.19,176.87c0,7.9-6.39,14.29-14.28,14.29s-14.29-6.39-14.29-14.29,6.4-14.28,14.29-14.28,14.28,6.4,14.28,14.28Z"/><path class="cls-9" d="M285.6,176.87c0,7.9-6.4,14.29-14.29,14.29s-14.28-6.39-14.28-14.29,6.39-14.28,14.28-14.28,14.29,6.4,14.29,14.28Z"/><path class="cls-9" d="M153.16,162.74c-.69,0-1.36-.39-1.67-1.06-.43-.92-.03-2.01,.89-2.44l33.68-15.63c.92-.43,2.02-.02,2.44,.89,.43,.92,.03,2.02-.9,2.44l-33.67,15.63c-.25,.12-.51,.17-.78,.17Z"/><path class="cls-9" d="M299.61,160.5c.7,0,1.36-.39,1.67-1.06,.43-.92,.02-2.01-.9-2.44l-33.68-15.63c-.92-.43-2.01-.02-2.44,.89-.43,.92-.02,2.02,.9,2.44l33.68,15.63c.25,.12,.51,.17,.77,.17Z"/><path class="cls-9" d="M229.48,276.84c-17.28,0-31.45-9.4-32.22-9.91-.84-.57-1.06-1.71-.49-2.55,.57-.84,1.72-1.07,2.55-.5,.23,.15,22.94,15.18,44.74,6.59,21.72-8.57,24.12-26,24.14-26.18,.13-1.01,1-1.74,2.05-1.6,1.01,.12,1.72,1.04,1.6,2.05-.1,.8-2.71,19.78-26.44,29.14-5.4,2.14-10.81,2.96-15.93,2.96Z"/></svg>