<?xml version="1.0" encoding="UTF-8"?><svg id="Layer_1" xmlns="http://www.w3.org/2000/svg" viewBox="0 0 432 852"><defs><style>.cls-1{fill:#ffac48;}.cls-2{fill:#dca275;}.cls-3{fill:#e27829;}.cls-4{fill:#c9926d;}.cls-5{fill:#1e1e1e;}.cls-6{fill:#302925;}.cls-7{fill:#302c28;}.cls-8{fill:#353029;}.cls-9{fill:#4c392c;}.cls-10{fill:#28221f;}</style></defs><g><path class="cls-5" d="M146.67,805.25s-9.73,4.95-9.9,6.79c-.17,1.84-2.11,10.58,3.72,10.87,5.84,.27,60.36-1.52,66.9-4.32,6.55-2.79,1.35-13.61-1.35-14.1-2.71-.49-59.37,.75-59.37,.75Z"/><path class="cls-2" d="M179.08,610.38s-6.82,149.32-10.46,157.02c-3.64,7.7-32.99,26.54-32.56,32.56,.43,6.02-1.92,12.23,15.66,10.98,17.58-1.26,61.15-3.43,59.7-10.76-1.46-7.34-17.94-26.17-21.84-35.2-3.89-9.02,9.13-150.41,9.13-150.41l-19.64-4.18Z"/><path class="cls-5" d="M146.44,788s20.25-6.55,24.18,21.56l3.2,3.12,2.43-3.46s.16-10.74,9.32-19.3c9.15-8.57,16.18-6.23,16.18-6.23l-4.22-5.96s-17.58,1.89-23.09,12.86c0,0-7.16-10.76-19.36-9.82l-8.65,7.23Z"/></g><g><path class="cls-5" d="M303.1,805.25s9.73,4.95,9.9,6.79c.17,1.84,2.11,10.58-3.73,10.87-5.84,.27-60.36-1.52-66.89-4.32-6.55-2.79-1.35-13.61,1.35-14.1,2.71-.49,59.37,.75,59.37,.75Z"/><path class="cls-2" d="M270.68,610.38s6.82,149.32,10.45,157.02c3.64,7.7,32.99,26.54,32.56,32.56-.43,6.02,1.92,12.23-15.66,10.98-17.59-1.26-61.16-3.43-59.7-10.76,1.46-7.34,17.94-26.17,21.84-35.2,3.89-9.02-9.13-150.41-9.13-150.41l19.64-4.18Z"/><path class="cls-5" d="M303.32,788s-20.24-6.55-24.18,21.56l-3.2,3.12-2.43-3.46s-.16-10.74-9.32-19.3c-9.15-8.57-16.18-6.23-16.18-6.23l4.23-5.96s17.58,1.89,23.09,12.86c0,0,7.16-10.76,19.36-9.82l8.65,7.23Z"/></g><path class="cls-2" d="M125.48,405.14l-5.2,159.6s4.42,12.14,15.47,12.59c15.51,.64,18.45-15.75,18.45-15.75l2.65-165.44-31.37,9Z"/><path class="cls-2" d="M310.99,405.14l5.2,159.6s-4.42,12.14-15.47,12.59c-15.5,.64-18.45-15.75-18.45-15.75l-2.65-165.44,31.37,9Z"/><polygon class="cls-6" points="172.91 516.91 154.74 530.85 151.99 639.3 214.27 640.01 217.36 582.21 227.54 582.21 235.37 640.01 294.86 640.01 287.43 530.85 172.91 516.91"/><path class="cls-3" d="M145,318.82s42.37-10.66,66.19-12.51c23.81-1.86,80.42,12.51,80.42,12.51,0,0,17.32,3.26,20.87,40.53l3.71,48.56s-17.63,4.64-34.8,3.25l6.03,119.7H154.74l1.39-116.91-38.04-2.32s-4.16-85.8,26.91-92.8Z"/><path class="cls-1" d="M219.48,335.65c17.32-.84,24.6-11.47,26.19-26.44-12.96-2.13-25.87-3.58-34.48-2.91-5.82,.45-12.74,1.43-19.89,2.65,2.81,14.63,10.76,27.55,28.18,26.7Z"/><g><path class="cls-2" d="M200.32,282.02v32.84s1.39,11.77,18.12,10.53c16.73-1.23,15.32-10.53,15.32-10.53v-32.84h-33.44Z"/><polygon class="cls-4" points="233.76 294.59 233.76 282.02 200.32 282.02 200.32 294.29 233.76 294.59"/></g><path class="cls-9" d="M133.62,286.35s-72.63-18.73-61.13-129.97c9.47-91.53,76.94-89,76.94-89,0,0,20.38-48.69,109.48-36.3,83.96,11.67,112.89,94.26,98.16,177.85-12.29,69.73-66.54,80.34-66.54,80.34l-156.91-2.93Z"/><path class="cls-2" d="M126.01,151.39l4.39,116.8s.58,19.32,19.61,21.08,129.1,2.05,138.17,0c9.08-2.05,20.2-6.44,19.91-26.05-.29-19.62-6.15-121.19-6.15-121.19,0,0-15.22,26.34-24,24.29-8.78-2.05-9.66-22.54-4.98-32.2,0,0-17.86,30.44-29.57,27.81-11.71-2.63,.88-30.44,.88-30.44,0,0-26.93,39.52-38.35,33.95-11.42-5.56-4.1-28.98-4.1-28.98,0,0-19.32,30.74-28.39,26.05-9.08-4.68,2.05-32.2,2.05-32.2,0,0-27.57,32.51-38.35,31.32-10.78-1.18-11.12-10.25-11.12-10.25Z"/><path class="cls-10" d="M225.83,582.65c-1.1,0-2.22,0-3.38-.01l-3.64-.02c-8.64,0-14.73-1.75-14.98-1.82-.93-.27-1.46-1.25-1.19-2.18,.27-.93,1.25-1.47,2.18-1.19,.05,.02,5.89,1.69,14,1.69l3.66,.02c6.81,.05,12.67,.1,16.04-1.59,.87-.43,1.92-.08,2.36,.79,.43,.86,.08,1.92-.79,2.35-3.47,1.74-8.45,1.98-14.26,1.98Z"/><path class="cls-1" d="M240.47,501.21c-.12,0-.24,0-.37-.01-2.9-.2-5.09-2.71-4.89-5.62,.56-8.18,3.65-15.86,6.64-23.29,1.57-3.9,3.05-7.59,4.12-11.21,.61-2.07,1.51-4.58,2.51-7.36,2.36-6.55,5.85-16.26,5.84-23.25-.97,1.45-1.92,3-2.8,4.42-5.03,8.13-10.74,17.33-19.29,15.09-2.35-.62-3.97-2.76-3.93-5.18,.11-6.52,1.83-12.91,3.49-19.08,1.67-6.22,3.28-12.21,3.21-18-2.54,2.94-4.82,6.37-7.05,9.73l-.89,1.34c-.57,.85-1.25,2.06-2.03,3.42-3.91,6.85-8.78,15.37-15.88,15.79-3.08,.2-5.87-.83-8.02-2.95-5.98-5.87-5.46-18.85-4.96-31.41,.04-1.05,.09-2.19,.13-3.34-5,7.22-9.12,18.3-12.15,26.46-1.36,3.65-2.64,7.09-3.83,9.83-1.17,2.67-4.27,3.89-6.94,2.72-2.67-1.17-3.88-4.27-2.72-6.94,1.08-2.47,2.31-5.78,3.61-9.28,5.52-14.84,12.38-33.32,24.47-38.96,1.33-.62,2.86-.66,4.22-.1,1.36,.56,2.43,1.65,2.94,3.03,1.28,3.4,1.15,8.43,.8,17.01-.25,6.4-.85,21.37,1.83,23.49,1.79-.82,5.84-7.9,7.36-10.56,.92-1.61,1.74-3.03,2.41-4.04l.87-1.31c4.33-6.52,9.23-13.91,16.58-18.42,1.34-.83,2.99-1.01,4.48-.49,1.5,.51,2.68,1.68,3.22,3.16,4.2,11.44,1.18,22.67-1.49,32.58-.3,1.09-.58,2.17-.86,3.23,.53-.85,1.03-1.65,1.45-2.34,3.46-5.6,6.73-10.88,10.95-13.51,2.18-1.35,5-.94,6.71,.96,9.1,10.15,2.79,27.69-1.82,40.5-.92,2.56-1.76,4.87-2.32,6.78-1.21,4.11-2.86,8.2-4.45,12.16-2.81,6.97-5.46,13.56-5.91,20.08-.19,2.78-2.5,4.91-5.25,4.91Z"/><path class="cls-1" d="M265.94,502.9c0,3.64-2.95,6.59-6.59,6.59s-6.59-2.95-6.59-6.59,2.95-6.59,6.59-6.59,6.59,2.95,6.59,6.59Z"/><polygon class="cls-4" points="217.04 193.84 206.22 223.7 229.05 223.7 217.04 193.84"/><path class="cls-8" d="M170.59,197.87c0,6.11-4.95,11.06-11.06,11.06s-11.06-4.95-11.06-11.06,4.95-11.06,11.06-11.06,11.06,4.95,11.06,11.06Z"/><path class="cls-8" d="M281.46,197.87c0,6.11-4.95,11.06-11.06,11.06s-11.06-4.95-11.06-11.06,4.95-11.06,11.06-11.06,11.06,4.95,11.06,11.06Z"/><path class="cls-7" d="M173.44,264.1c-.87,0-1.63-.65-1.74-1.53-.12-.96,.56-1.84,1.52-1.97l91.43-11.71c.98-.09,1.85,.56,1.97,1.52,.12,.96-.56,1.84-1.52,1.97l-91.43,11.71c-.08,0-.15,.01-.22,.01Z"/><path class="cls-2" d="M138.56,209.63c0,8.72-7.07,15.79-15.79,15.79s-15.79-7.07-15.79-15.79,7.07-15.79,15.79-15.79,15.79,7.07,15.79,15.79Z"/><path class="cls-2" d="M323.88,209.63c0,8.72-7.07,15.79-15.79,15.79s-15.79-7.07-15.79-15.79,7.07-15.79,15.79-15.79,15.79,7.07,15.79,15.79Z"/></svg>