<?xml version="1.0" encoding="UTF-8"?><svg id="Layer_1" xmlns="http://www.w3.org/2000/svg" viewBox="0 0 432 852"><defs><style>.cls-1{fill:#f2c097;}.cls-2{fill:#9cc3d0;}.cls-3{fill:#90b5bf;}.cls-4{fill:#332c25;}.cls-5{fill:#e2af8a;}.cls-6{fill:#302c28;}.cls-7{fill:#3d342c;}.cls-8{fill:#2ca773;}</style></defs><path class="cls-1" d="M310.49,518.3l4.7,4.36-1.62,24.1s-2.85,16.29-18.68,16.66c-20.97,.5-21.81-18.45-21.81-18.45l.31-27.27,37.11,.59Z"/><path class="cls-6" d="M199.4,800.91l7.17,7.12s1.92,16.23-3.19,16.88c-5.11,.65-96.98,5.74-101.67,4.52-4.68-1.22-18.51-14.07-12.13-31.13,6.38-17.05,64.05-16.86,64.05-16.86l45.76,19.47Z"/><path class="cls-6" d="M252.37,800.91l-7.17,7.12s-1.92,16.23,3.19,16.88c5.11,.65,96.98,5.74,101.67,4.52,4.68-1.22,18.51-14.07,12.13-31.13-6.38-17.05-64.05-16.86-64.05-16.86l-45.76,19.47Z"/><polygon class="cls-7" points="154.06 543.57 148.73 548.32 146.15 783.05 206.57 808.04 215.75 587.23 224.92 587.23 245.17 808.04 300.54 781.47 285.03 548.32 278.7 540.57 154.06 543.57"/><path class="cls-2" d="M292.93,348.39l-5.82-19.37s-5.25-11.32-61.24-10.68c-55.99,.63-76.55,6.33-76.55,6.33,0,0-27.84,1.58-42.07,35.43-14.24,33.85-35.43,79.4-38.28,91.74-2.85,12.34-.87,29.08,54.18,74.64l23.64-31.61s-38.28-30.37-37.33-39.86c.95-9.49,34.17-69.6,36.38-71.18,2.22-1.58,5.38,33.53,5.38,33.53l-2.53,118s104.3,8.21,136.35-2.53l7.91-7.91v-176.52Z"/><path class="cls-8" d="M113.52,518.34c3.01,2.6,6.21,5.31,9.62,8.13l23.64-31.61s-2.14-1.7-5.37-4.4l-27.89,27.89Z"/><path class="cls-3" d="M287.5,330.32c-1.51,13.41-3.81,26.74-4.51,40.23-.99,18.91-.64,37.93-1.17,56.86-.98,35.53-.79,71.05-.99,106.59,1.49-.37,2.92-.76,4.2-1.18l7.91-7.91v-176.52l-5.43-18.07Z"/><polygon class="cls-8" points="196.45 318.97 186.55 347.12 213.85 338.58 245.4 343.33 231.56 318.33 196.45 318.97"/><path class="cls-1" d="M196.45,276.26v42.71s-1.9,19.93,17.4,19.61c19.3-.32,17.72-20.25,17.72-20.25l2.21-39.86-37.33-2.21Z"/><path class="cls-5" d="M233.22,288.42l.55-9.95-37.33-2.21v9.11c13.84,5.99,24.52,5.05,36.77,3.05Z"/><path class="cls-6" d="M126.74,192.18s-10.02-63.49-8.38-75.03c1.64-11.55,11.63-21.85,17.55-19.14,0,0-13.81-14.33-10.77-32.33,3.04-18.01,19.57-33.89,87.5-41.73,67.93-7.83,96.39,15.33,102.51,28.82,6.13,13.48,4.56,34.08-6.98,40.7,0,0,13.69,2.19,14.18,21.83,.49,19.64-9.28,73.52-9.28,73.52l-186.33,3.37Z"/><path class="cls-1" d="M138.43,115.06l3.14,94.85s-6.11,59.39,42.88,71.38c51.85,12.69,90.04,4.34,101.64-27.42,11.61-31.77,9.55-135.16,9.55-135.16,0,0-.39-11.88-15.02-14-14.63-2.11-142.78-7.3-142.2,10.34Z"/><path class="cls-6" d="M140.08,203s-13.05,8.59-1.65,39.51c7.95,21.58,24.02,27.86,24.02,27.86,0,0,11.86-29.15,56.16-28.19,40.48,.87,46.76,11.11,58.05,27.2,0,0,31.86-19.76,21.83-64.98,0,0-29.67,24.72-70.14,26.06-40.47,1.34-77.14,1.83-88.27-27.46Z"/><path class="cls-1" d="M154.76,194.06c.35,10.48-7.87,19.25-18.34,19.6-10.48,.35-19.25-7.87-19.6-18.34-.35-10.47,7.87-19.25,18.34-19.6,10.48-.35,19.25,7.87,19.6,18.34Z"/><path class="cls-1" d="M313.06,188.82c.35,10.48-7.87,19.25-18.34,19.6-10.48,.35-19.25-7.86-19.6-18.34-.35-10.48,7.87-19.25,18.34-19.6,10.48-.35,19.25,7.87,19.6,18.34Z"/><path class="cls-6" d="M215.16,272.21c-23.17,0-32.01-5.83-32.4-6.09-.87-.59-1.09-1.77-.5-2.64,.59-.86,1.76-1.09,2.63-.51h0c.09,.06,9.49,6.1,34.48,5.37,26.66-.79,31.1-4.21,31.59-4.67,.39-.76,1.27-1.19,2.14-.97,1.02,.25,1.64,1.28,1.38,2.3-.99,3.96-13.42,6.49-35,7.13-1.49,.04-2.93,.07-4.32,.07Z"/><polygon class="cls-5" points="206.74 206.08 230.22 206.08 218.48 153.97 206.74 206.08"/><path class="cls-6" d="M184.9,161.59c0,5.9-4.78,10.68-10.68,10.68s-10.68-4.78-10.68-10.68,4.78-10.68,10.68-10.68,10.68,4.78,10.68,10.68Z"/><path class="cls-6" d="M266.76,161.59c0,5.9-4.78,10.68-10.68,10.68s-10.68-4.78-10.68-10.68,4.78-10.68,10.68-10.68,10.68,4.78,10.68,10.68Z"/><path class="cls-6" d="M148.36,149.95c-.38,0-.77-.12-1.09-.37-.79-.61-.94-1.74-.34-2.53,.52-.69,13.11-16.81,37.72-18.11,.98-.07,1.85,.71,1.9,1.71,.05,.99-.71,1.85-1.71,1.9-22.96,1.21-34.92,16.54-35.04,16.69-.35,.46-.89,.71-1.44,.71Z"/><path class="cls-6" d="M283.69,149.88c-.55,0-1.08-.25-1.42-.73-.11-.15-11.3-15.47-32.53-16.67-.96-.06-1.7-.88-1.64-1.84,.05-.96,.86-1.71,1.84-1.64,22.96,1.3,34.69,17.44,35.17,18.13,.56,.78,.37,1.87-.41,2.43-.31,.22-.66,.32-1.01,.32Z"/><rect class="cls-6" x="148.73" y="532.82" width="136.29" height="15.5"/><path class="cls-1" d="M145.59,496.45l3.51,2.81,15.54,14.19s9.55,10.78,1.22,21.77c-11.04,14.57-24.41,4.85-24.41,4.85l-17.69-14.42,21.84-29.2Z"/><path class="cls-2" d="M288.82,328.87c17.08,15.66,26.1,30.59,27.05,106.51,.95,75.92,0,95.85,0,95.85h-30.37l-.47-139.51s-13.29-78.51,3.79-62.86Z"/><polygon class="cls-8" points="285.47 522.03 285.5 531.24 315.87 531.24 316.08 523 285.47 522.03"/><rect class="cls-8" x="213.85" y="338.58" width="3.26" height="194.24"/><path class="cls-4" d="M223.33,589.17c-1.19,0-2.4,0-3.65-.02l-3.93-.02c-9.34,0-15.92-1.89-16.19-1.97-1.01-.3-1.58-1.35-1.29-2.36,.3-1,1.35-1.59,2.35-1.29,.07,.02,6.37,1.82,15.13,1.82l3.96,.02c7.35,.05,13.69,.1,17.33-1.72,.94-.47,2.08-.09,2.55,.85s.09,2.08-.85,2.55c-3.75,1.87-9.14,2.14-15.41,2.14Z"/></svg>