<?xml version="1.0" encoding="UTF-8"?><svg id="Layer_1" xmlns="http://www.w3.org/2000/svg" viewBox="0 0 432 852"><defs><style>.cls-1{fill:#ed978c;}.cls-2{fill:#e9fffc;}.cls-3{fill:#ef877d;}.cls-4{fill:#f2bf8c;}.cls-5{fill:#ffa894;}.cls-6{fill:#fbca9c;}.cls-7{fill:#afafaf;}.cls-8{fill:#e27829;}.cls-9{fill:#2a3d4b;}.cls-10{fill:#4c392c;}</style></defs><path class="cls-6" d="M103.32,488.92l-4.4,4.09,1.52,22.59s2.68,15.27,17.51,15.62c19.65,.47,20.44-17.3,20.44-17.3l-.29-25.56-34.78,.56Z"/><path class="cls-5" d="M144.6,321.07l-12.45-12.89s-21.35-1-25.65,9.54c-3.78,9.25-8.6,178.06-8.6,178.06h35.14l11.56-174.71Z"/><path class="cls-1" d="M129.64,367.91c-4.07,15.33-2.61,127.87-2.61,127.87h6.01l10.6-160.18c-6.5,10.83-10.76,20.12-14,32.31Z"/><g><path class="cls-9" d="M123.38,785.55s-9.33,4.75-9.5,6.51c-.16,1.77-2.02,10.15,3.57,10.42,5.59,.26,57.86-1.46,64.13-4.14,6.28-2.68,1.29-13.05-1.3-13.52-2.6-.47-56.91,.72-56.91,.72Z"/><path class="cls-6" d="M154.45,559.61s-6.54,182.28-10.02,189.67c-3.49,7.39-31.63,25.44-31.21,31.21,.41,5.77-1.84,11.73,15.02,10.52,16.86-1.2,58.62-3.29,57.23-10.33-1.4-7.03-17.2-25.08-20.94-33.73-3.73-8.65,8.75-183.33,8.75-183.33l-18.83-4.01Z"/><path class="cls-9" d="M123.16,769.01s19.41-6.27,23.18,20.68l3.07,2.99,2.33-3.32s.15-10.3,8.94-18.5c8.78-8.21,15.52-5.97,15.52-5.97l-4.05-5.71s-16.86,1.81-22.14,12.33c0,0-6.86-10.33-18.55-9.42l-8.3,6.93Z"/></g><g><path class="cls-9" d="M273.33,785.55s9.33,4.75,9.49,6.51c.17,1.77,2.02,10.15-3.57,10.42-5.6,.26-57.86-1.46-64.13-4.14-6.28-2.68-1.29-13.05,1.29-13.52,2.6-.47,56.91,.72,56.91,.72Z"/><path class="cls-6" d="M242.26,559.61s6.54,182.28,10.02,189.67c3.49,7.39,31.63,25.44,31.22,31.21-.41,5.77,1.84,11.73-15.02,10.52-16.86-1.2-58.63-3.29-57.23-10.33,1.4-7.03,17.2-25.08,20.94-33.73,3.73-8.65-8.75-183.33-8.75-183.33l18.83-4.01Z"/><path class="cls-9" d="M273.55,769.01s-19.41-6.27-23.18,20.68l-3.07,2.99-2.33-3.32s-.15-10.3-8.94-18.5c-8.77-8.21-15.52-5.97-15.52-5.97l4.05-5.71s16.85,1.81,22.13,12.33c0,0,6.86-10.33,18.56-9.42l8.3,6.93Z"/></g><polygon class="cls-9" points="148.53 469.99 131.12 483.36 128.48 626.47 188.17 627.15 191.14 532.6 200.9 532.6 208.41 627.15 265.44 627.15 258.32 483.36 148.53 469.99"/><path class="cls-5" d="M132.14,308.18l123.64-.99s21.35-.91,32.91,16.92c11.56,17.82,48.03,83.24,48.04,93.49,0,15.47-48.04,84.3-48.04,84.3l-32.02-25.23s39.58-53.19,39.58-59.06-37.36-62.36-37.36-62.36l-.29,128.09-127.35-.45,.89-174.7Z"/><path class="cls-3" d="M258.63,473.35l.17-71.42c-2.84-9.02-8.68-23.58-17.52-18.36-6.59,3.9-11.92,10.4-19.25,12.96-1.18,.41-2.15-.64-2.25-1.72-.27-2.95,.04-5.78,.12-8.73,.2-8.27-10.17-2.91-12.85-.4-4.41,4.12-8.13,8.91-13.06,12.45-.77,.55-2,.16-2.43-.64-2.71-5-4.27-19.07-12.99-13-7.61,5.3-9.46,14.2-14.78,21.3-.86,1.15-2.84,1.21-3.25-.43-1.42-5.69-1.92-13.32-5.31-18.25-5.94-8.66-18.48,3.24-22.64,8.52-.32,.4-.59,.83-.9,1.24l-.44,86.01,127.35,.45s-.15-8.2,.02-9.98Z"/><path class="cls-6" d="M256.68,476.65l-14.9,17.05s-8.9,12.68,1.33,23.43c13.57,14.23,26.69,2.22,26.69,2.22l17.87-18.27-30.99-24.42Z"/><g><path class="cls-6" d="M179,272.62v32.44s.6,17.37,14.53,16.48c13.93-.89,13.49-16.48,13.49-16.48l-1.33-32.44h-26.69Z"/><path class="cls-4" d="M193.34,285.48c4.4-.12,8.68-.07,12.85-.67l-.5-12.19h-26.69v10.54c4.81,.56,9.27,2.46,14.34,2.32Z"/></g><path class="cls-8" d="M137.2,255.6s-36.47-25.79-41.36-95.62c-4.89-69.83,23.13-68.94,27.57-72.05,4.45-3.11,0-9.34,13.79-18.68,13.79-9.34,47.59-27.13,87.62-16.46,40.03,10.67,67.16,40.03,67.16,81.39s-21.79,97.4-40.03,115.19c-18.24,17.79-114.75,6.23-114.75,6.23Z"/><path class="cls-6" d="M120.45,154.39s0,61.34,1.48,71.71c1.48,10.37,8.6,50.7,55.45,55.45,46.85,4.74,82.43-12.11,83.91-63.58,1.48-51.47-3.56-67.38-3.56-67.38,0,0-7.41,10.88-19.27,10.58-11.86-.3-5.64-13.64-5.64-13.64,0,0-7.41,13.93-18.68,13.05-11.27-.89-8.3-15.71-8.3-15.71,0,0-12.46,18.09-20.46,18.38-8.01,.3-9.19-8.6-7.41-16.31,0,0-6.52,16.31-19.87,13.64-13.34-2.67-4.15-18.38-4.15-18.38,0,0-12.17,17.79-22.83,18.68-10.66,.89-10.67-6.48-10.67-6.48Z"/><path class="cls-6" d="M130.48,198.18c0,8.57-6.95,15.52-15.52,15.52s-15.52-6.95-15.52-15.52,6.95-15.52,15.52-15.52,15.52,6.95,15.52,15.52Z"/><circle class="cls-6" cx="264" cy="198.18" r="15.52"/><path class="cls-10" d="M154.1,183.33c0,4.05-3.28,7.34-7.34,7.34s-7.34-3.29-7.34-7.34,3.28-7.34,7.34-7.34,7.34,3.29,7.34,7.34Z"/><path class="cls-10" d="M236.83,185.56c0,4.05-3.29,7.34-7.34,7.34s-7.34-3.29-7.34-7.34,3.28-7.34,7.34-7.34,7.34,3.29,7.34,7.34Z"/><path class="cls-4" d="M199.91,213.5c0,4.83-3.91,8.75-8.74,8.75s-8.75-3.92-8.75-8.75,3.91-8.74,8.75-8.74,8.74,3.91,8.74,8.74Z"/><path class="cls-7" d="M155.88,217.66c-.43,0-.86-.15-1.2-.47-.73-.66-.78-1.79-.12-2.51,.63-.7,15.74-17.04,36.58-17.34,20.95-.31,35.33,16.67,35.93,17.4,.63,.75,.53,1.87-.23,2.5-.75,.63-1.88,.53-2.5-.23-.14-.16-13.91-16.54-33.15-16.12-19.27,.28-33.85,16.02-34,16.17-.35,.39-.83,.58-1.31,.58Z"/><path class="cls-2" d="M171.15,215.88c0,8.43-6.84,15.27-15.27,15.27s-15.27-6.84-15.27-15.27,6.83-15.27,15.27-15.27,15.27,6.84,15.27,15.27Z"/><path class="cls-2" d="M240.98,215.88c0,8.43-6.83,15.27-15.27,15.27s-15.27-6.84-15.27-15.27,6.83-15.27,15.27-15.27,15.27,6.84,15.27,15.27Z"/><path class="cls-10" d="M134.3,174.32c-2.38,0-4.08-.41-4.26-.46-.95-.24-1.52-1.2-1.28-2.15,.24-.95,1.19-1.53,2.15-1.3,.38,.1,9.39,2.23,14.37-5.2,.55-.81,1.65-1.03,2.47-.48,.82,.55,1.03,1.65,.48,2.47-4.01,5.97-9.94,7.12-13.94,7.12Z"/><path class="cls-10" d="M243.73,175.99c2.39,0,4.08-.41,4.26-.46,.95-.24,1.52-1.2,1.29-2.15-.24-.95-1.2-1.53-2.16-1.29-.38,.09-9.39,2.23-14.37-5.2-.55-.81-1.65-1.03-2.47-.48-.82,.55-1.03,1.65-.48,2.47,4.01,5.96,9.95,7.12,13.94,7.12Z"/><path class="cls-10" d="M192,259.3c-23.23,0-33.68-15.26-34.11-15.92-.54-.81-.32-1.92,.49-2.46,.81-.55,1.92-.33,2.47,.49,.39,.59,10.18,14.6,31.64,14.33,21.41-.21,28.56-15.63,28.85-16.29,.39-.89,1.45-1.29,2.34-.9,.9,.4,1.31,1.44,.91,2.35-.33,.74-8.29,18.17-32.07,18.4-.17,0-.35,0-.52,0Z"/><polygon class="cls-5" points="256.68 476.65 258.58 474.07 258.58 478.16 256.68 476.65"/></svg>