<?xml version="1.0" encoding="UTF-8"?><svg id="Layer_1" xmlns="http://www.w3.org/2000/svg" viewBox="0 0 432 852"><defs><style>.cls-1{fill:#7f1d1d;}.cls-2{fill:#8e2121;}.cls-3{fill:#ba8561;}.cls-4{fill:#af468f;}.cls-5{fill:#c14d92;}.cls-6{fill:#c9926d;}.cls-7{fill:#a87a60;}.cls-8{fill:#2d2a27;}.cls-9{fill:#2c3a44;}.cls-10{fill:#353029;}</style></defs><path class="cls-6" d="M318.58,486.96l-.11,4.92-.8,21.31s-2.1,14.45-16.05,15.2c-18.49,.99-19.73-15.73-19.73-15.73l-.42-23.12,37.11-2.58Z"/><path class="cls-6" d="M122.96,488.63l.11,4.92,.8,21.31s2.1,14.45,16.05,15.2c18.49,.99,19.73-15.73,19.73-15.73l.42-23.12-37.11-2.58Z"/><g><path class="cls-6" d="M162.81,798.55s-13.41,32.1-11.58,34.25c1.82,2.15,49.15,2.81,51.46,0,2.32-2.81-4.8-35.08-4.8-35.08l-35.08,.83Z"/><polygon class="cls-5" points="148.08 832.63 149.71 844.55 204.35 844.55 205.84 832.63 148.08 832.63"/><path class="cls-5" d="M177.11,836s-.23-10.59-3.32-13.9c-3.09-3.31-5.41-7.18-16.55-9.6l1.44-3.7s15.99,2.49,20.41,16.28c0,0,6.93-16.1,20.62-18.64l.7,3.65s-20,7.15-20.11,25.91h-3.19Z"/></g><g><path class="cls-6" d="M292.68,798.63s13.41,32.1,11.58,34.25c-1.82,2.15-49.15,2.81-51.46,0-2.32-2.81,4.8-35.08,4.8-35.08l35.08,.83Z"/><polygon class="cls-5" points="307.41 832.72 305.79 844.63 251.15 844.63 249.66 832.72 307.41 832.72"/><path class="cls-5" d="M278.39,836.08s.23-10.59,3.32-13.9c3.09-3.31,5.41-7.17,16.55-9.6l-1.44-3.7s-15.99,2.49-20.41,16.28c0,0-6.93-16.1-20.62-18.64l-.7,3.66s20,7.15,20.11,25.91h3.19Z"/></g><polygon class="cls-9" points="176.67 508.53 150.91 521.41 150.91 801.85 211.76 801.85 218.24 568.83 226.44 568.83 246.34 801.85 303.13 801.85 294.35 518.48 286.74 512.62 176.67 508.53"/><g><path class="cls-6" d="M204.43,285.46v32.84s1.39,11.77,18.13,10.53c16.73-1.24,15.32-10.53,15.32-10.53v-32.84h-33.44Z"/><polygon class="cls-7" points="237.87 298.03 237.87 285.46 204.43 285.46 204.43 297.74 237.87 298.03"/></g><path class="cls-8" d="M380.62,127.98c0-10.68-7.45-19.6-17.43-21.9,2.93-3.8,4.69-8.55,4.69-13.71,0-11.92-9.28-21.65-20.99-22.42,.22-1.26,.36-2.54,.36-3.86,0-12.43-10.08-22.5-22.5-22.5-2.47,0-4.85,.41-7.07,1.15-2.47-12.54-13.51-21.99-26.77-21.99-5.34,0-10.31,1.55-14.51,4.21-2.35-11.18-12.25-19.57-24.13-19.57-8.65,0-16.24,4.46-20.64,11.2-3.95-6.69-11.21-11.2-19.54-11.2-7.21,0-13.63,3.38-17.78,8.62-5.61-5.33-13.17-8.62-21.52-8.62-10.81,0-20.33,5.49-25.94,13.83-5.4-3.99-12.05-6.37-19.28-6.37-17.99,0-32.57,14.58-32.57,32.57,0,2.24,.23,4.43,.66,6.55-.22,0-.44-.03-.66-.03-16.89,0-30.59,13.69-30.59,30.59,0,6.04,1.77,11.65,4.79,16.39-8.71,4.29-14.72,13.23-14.72,23.6s5.52,18.6,13.67,23.08c-9.73,3.11-16.77,12.22-16.77,22.97,0,11.74,8.39,21.51,19.5,23.67-4.16,3.96-6.76,9.54-6.76,15.73,0,9.69,6.35,17.89,15.11,20.7-.39,1.63-.62,3.32-.62,5.07,0,12,9.73,21.74,21.74,21.74,1.97,0,3.86-.28,5.67-.77,1.28,10.04,9.84,17.82,20.23,17.82,9.65,0,17.72-6.71,19.85-15.71h157.45c1.3,8.09,8.25,14.28,16.71,14.28s15.48-6.27,16.72-14.42c8.73-.7,15.63-7.93,15.63-16.84,0-1.48-.25-2.9-.6-4.26,9.6-3.53,16.46-12.73,16.46-23.56,0-7.55-3.34-14.3-8.61-18.91,12.06-3.96,20.78-15.29,20.78-28.67,0-8.11-3.22-15.46-8.43-20.88,5.13-4.12,8.43-10.44,8.43-17.54Z"/><path class="cls-6" d="M132.61,164.86v107.73s-4.1,13.46,18.15,18.15c22.25,4.68,126.46,5.27,138.76,2.93,12.29-2.34,20.49-12.87,20.49-28.68v-78.46s-9.07,.59-8.78-8.2c0,0-11.12,2.34-10.24-8.78,0,0-13.55,3.18-12-9.37,.24-1.97,6.44-4.1,4.98-9.95-1.46-5.86-14.64-2.34-14.64-2.34,0,0,2.56-7.75-8.78-11.42-9.95-3.22-12.88,6.73-12.88,6.73,0,0-1.17-15.22-13.76-15.22s-14.35,15.51-14.35,15.51c0,0,0-13.17-14.05-13.46-14.05-.29-9.07,14.64-9.07,14.64,0,0-6.44-12.59-18.15-8.2-11.71,4.39,2.05,14.93-5.56,23.13-7.61,8.2-17.86-1.17-17.86-1.17,0,0-.3,10.83-8.78,12.59-8.9,1.84-13.47-6.15-13.47-6.15Z"/><path class="cls-10" d="M178.28,205.26c0,5.5-4.46,9.95-9.95,9.95s-9.95-4.46-9.95-9.95,4.46-9.96,9.95-9.96,9.95,4.46,9.95,9.96Z"/><path class="cls-10" d="M283.66,205.26c0,5.5-4.46,9.95-9.95,9.95s-9.95-4.46-9.95-9.95,4.46-9.96,9.95-9.96,9.95,4.46,9.95,9.96Z"/><rect class="cls-3" x="191.16" y="211.49" width="56.79" height="25.39"/><g><ellipse class="cls-2" cx="218.82" cy="272.44" rx="38.79" ry="13.61"/><path class="cls-1" d="M217.21,274.05c13.26-.12,25.88-1.87,38.23-6.06-5.26-5.33-19.65-9.16-36.62-9.16s-31.39,3.84-36.64,9.18c10.3,6.32,23.26,6.15,35.03,6.04Z"/></g><path class="cls-5" d="M149.59,318.25h35.27l34.69,22.32,39.3-22.32h35.34s19.91,.13,21.08,26.41c1.17,26.28,4.1,149.23,4.1,149.23l-25.2-.53,2.23,28.49-146.81-.45v-26.93l-26.93-1.17v-148.64s-2.93-26.41,26.93-26.41Z"/><path class="cls-4" d="M145.23,444.23s-.47,33.52-1.49,50.17h4.1v-115.43l-2.61,65.25Z"/><path class="cls-4" d="M297.04,419.83s-.46-35.35-2.25-40.86v114.41l4.14,.09c-.23-20.5-1.89-73.63-1.89-73.63Z"/><path class="cls-6" d="M224.42,342.29c11.08-.21,23.81-.84,33.22-7.51,6.02-4.27,9.87-10.06,12.51-16.53h-99.85c7.74,20.23,33.99,24.42,54.13,24.04Z"/></svg>