<?xml version="1.0" encoding="UTF-8"?><svg id="Layer_1" xmlns="http://www.w3.org/2000/svg" xmlns:xlink="http://www.w3.org/1999/xlink" viewBox="0 0 432 852"><defs><style>.cls-1{fill:none;}.cls-2{clip-path:url(#clippath);}.cls-3{fill:#eaba94;}.cls-4{fill:#fff;}.cls-5{fill:#fff8ee;}.cls-6{fill:#e5e5e5;}.cls-7{fill:#e5e0d8;}.cls-8{fill:#fbca9c;}.cls-9{fill:#986340;}.cls-10{fill:#1e1e1e;}.cls-11{fill:#141414;}.cls-12{fill:#961d2d;}.cls-13{fill:#2d2a27;}</style><clipPath id="clippath"><path class="cls-1" d="M246.27,311.13s-62.09-9.83-82.4-30.38v36.08s63.41,.38,82.4-5.7Z"/></clipPath></defs><path class="cls-10" d="M126.82,751.11s-15.18,10.07-34.44,13.04c-19.26,2.96-14.81,24.3-2.96,26.96,11.85,2.66,96.09,2.95,99.44-4.46,3.35-7.41-4.63-26.21-4.63-26.21l-57.41-9.33Z"/><path class="cls-10" d="M305.18,751.11s15.18,10.07,34.44,13.04c19.26,2.96,14.81,24.3,2.96,26.96-11.85,2.66-96.09,2.95-99.44-4.46-3.35-7.41,4.64-26.21,4.64-26.21l57.4-9.33Z"/><polygon class="cls-11" points="157.97 511.79 133.22 522.63 129.31 752.07 188.59 769.25 205.53 560.16 216.19 560.16 242.65 769.25 302.58 752.07 290.85 517.72 157.97 511.79"/><path class="cls-9" d="M118.4,257.45s-22.47-70.05-23.45-78.84c-.98-8.79,4.07-21.35,23.45-14.66,0,0-4.2-25.4,4.25-36.15,8.45-10.75,123.91-72.79,165.6-68.39,41.69,4.4,45.11,28.27,46.58,43.2,1.47,14.93-1.95,40.54-21.98,68.04,0,0,9.08,3.56,8.45,11.38-.63,7.82-18.42,75.42-18.42,75.42H118.4Z"/><rect class="cls-12" x="120.84" y="500.14" width="178.03" height="24.52"/><path class="cls-5" d="M81.43,387.86v-75.24s-.69-25.73,15.78-25.73h217.42s17.02-1.46,21.5,26.06c3.6,22.15,0,72.95,0,72.95l-31.67,118.88H117.59l-36.15-116.93Z"/><path class="cls-8" d="M310.4,544.52c-11.64,0-21.08-9.44-21.08-21.08v-68.64c0-11.64,9.44-21.08,21.08-21.08s21.08,9.44,21.08,21.08v68.64c0,11.64-9.44,21.08-21.08,21.08Z"/><path class="cls-8" d="M107.16,544.52c-11.64,0-21.08-9.44-21.08-21.08v-68.64c0-11.64,9.44-21.08,21.08-21.08s21.08,9.44,21.08,21.08v68.64c0,11.64-9.44,21.08-21.08,21.08Z"/><rect class="cls-5" x="81.43" y="334.34" width="256.15" height="162.42"/><rect class="cls-7" x="210.13" y="334.13" width="3.01" height="170.67"/><polygon class="cls-12" points="181.43 322.08 185.05 358.12 212.28 337.06 239.4 357.58 239.4 322.08 181.43 322.08"/><path class="cls-8" d="M122.14,190.19l26.06,120.81s0,19.24,23.45,19.89c23.45,.65,83.37,0,83.37,0,0,0,13.03-4.89,17.59-22.96,4.56-18.08,29.31-114.69,29.31-114.69,0,0,5.86-18.03-11.73-19.99-17.59-1.96-152.42-2.61-152.42-2.61,0,0-19.25-.17-15.64,19.54Z"/><path class="cls-8" d="M147.55,259.12c0,9.35-7.58,16.93-16.94,16.93s-16.93-7.58-16.93-16.93,7.58-16.93,16.93-16.93,16.94,7.58,16.94,16.93Z"/><path class="cls-8" d="M305.18,259.12c0,9.35-7.58,16.93-16.94,16.93s-16.93-7.58-16.93-16.93,7.58-16.93,16.93-16.93,16.94,7.58,16.94,16.93Z"/><path class="cls-4" d="M246.27,311.13s-62.09-9.83-82.4-30.38v36.08s63.41,.38,82.4-5.7Z"/><path class="cls-13" d="M184.84,221.07c0,9.04-7.33,16.37-16.37,16.37s-16.37-7.33-16.37-16.37,7.33-16.37,16.37-16.37,16.37,7.33,16.37,16.37Z"/><path class="cls-13" d="M274.81,221.07c0,9.04-7.33,16.37-16.37,16.37s-16.37-7.33-16.37-16.37,7.33-16.37,16.37-16.37,16.37,7.33,16.37,16.37Z"/><polygon class="cls-3" points="205.94 204.78 214.98 204.7 218.55 291.08 196.89 291.08 205.94 204.78"/><g class="cls-2"><rect class="cls-6" x="185.83" y="277.46" width="3.42" height="53.65"/><rect class="cls-6" x="211.18" y="277.46" width="3.42" height="53.65"/></g><path class="cls-7" d="M230.17,368.65c0,3.24-2.62,5.86-5.86,5.86s-5.86-2.62-5.86-5.86,2.63-5.86,5.86-5.86,5.86,2.62,5.86,5.86Z"/><path class="cls-7" d="M230.17,421.58c0,3.24-2.62,5.86-5.86,5.86s-5.86-2.62-5.86-5.86,2.63-5.86,5.86-5.86,5.86,2.63,5.86,5.86Z"/><path class="cls-7" d="M230.17,474.5c0,3.24-2.62,5.86-5.86,5.86s-5.86-2.63-5.86-5.86,2.63-5.86,5.86-5.86,5.86,2.63,5.86,5.86Z"/></svg>