<?xml version="1.0" encoding="UTF-8"?><svg id="Layer_1" xmlns="http://www.w3.org/2000/svg" viewBox="0 0 432 852"><defs><style>.cls-1{fill:#686277;}.cls-2{fill:#6a4148;}.cls-3{fill:#edc591;}.cls-4{fill:#fed89f;}.cls-5{fill:#ce3232;}.cls-6{fill:#352215;}.cls-7{fill:#4c301d;}</style></defs><g><path class="cls-4" d="M245.78,349.01l68.13,43.17s39.94-57.98,42.13-61.21c4.33-6.36,13.01-14.01,25.09-6.76,14.98,9,6.29,25.63,6.29,25.63,0,0-56.62,84.43-67.65,88.02-11.04,3.59-77.77-46.34-77.77-46.34l3.79-42.52Z"/><path class="cls-4" d="M338.11,366.43l-1.3-30.98s.17-9.6,7.37-7.37c7.36,2.27,6.06,21.88,6.06,21.88l-12.13,16.46Z"/></g><path class="cls-4" d="M88.01,363.34v137.91s2.61,15.47,16.23,16.36c13.63,.88,16.78-16.36,16.78-16.36v-141.42l-33.01,3.51Z"/><polygon class="cls-4" points="184.19 520.24 225.91 517.61 209.78 755.95 230.32 769.15 234.91 776.02 225.91 779.75 199.12 771.41 188.37 757.35 184.19 752.1 184.19 752.08 184.19 752.08 184.19 520.24"/><path class="cls-5" d="M205.81,766.64c5.82,3.54,12.29,8.62,19.44,7.81,3.86-.44,5.14-2.59,5.07-5.31,9.41,6,18.97,12.25,21.2,14.27,4.69,4.24,6.15,9.79,0,9.65-6.15-.14-54.45-13.16-54.45-13.16v9.65h-12.88v-37.46c7.2,4.86,14.2,10.04,21.62,14.55Z"/><polygon class="cls-4" points="175.25 520.24 133.53 517.61 149.67 755.95 129.12 769.15 124.53 776.02 133.53 779.75 160.32 771.41 171.08 757.35 175.25 752.1 175.25 752.08 175.25 752.08 175.25 520.24"/><path class="cls-1" d="M119.63,463.33l-6.43,8.32s-10.31,47.15-12.26,69.83c-1.95,22.68,16.93,106.98,16.93,106.98H246.09s16.48-87.51,16.34-106.98c-.14-19.47-13.13-69.83-13.13-69.83l-9.87-7.84-119.8-.48Z"/><path class="cls-1" d="M113.2,455.97H249.3l7.03-123.63s-10.81-16.7-47.07-22.04c-9.19-1.35-19.49-2-30.92-1.78-11.57,.22-21.73,1.25-30.57,2.87-35.37,6.52-42.58,20.95-42.58,20.95l8.01,123.63Z"/><path class="cls-2" d="M169.4,312.52l-7.72-3.11s-15.19,1.54-9.6,16.46c4.33,11.55,23.14,5.08,26.25,0,0,0,11.72,11.64,22.76,2.01,8.72-7.6,4.05-17.99-6.44-19.42-10.49-1.43-25.26,4.05-25.26,4.05Z"/><rect class="cls-2" x="177.06" y="325.67" width="2.56" height="130.3"/><path class="cls-4" d="M195.6,276.05h-34.54l.26,34.54c.96,8.59,8.16,15.3,17.01,15.3s16.05-6.7,17.01-15.3l.26-34.54Z"/><path class="cls-3" d="M195.46,294.91l.14-18.86h-34.54l.15,20.33c15.65,3.23,22.93,1.29,34.24-1.47Z"/><path class="cls-7" d="M169.92,60.19s-62.35,5.27-90.45,37.76c-28.1,32.49-16.9,49.96-37.39,109.89l15.43-14.46s-9.95,22.07-9.95,48.31,12.59,69.96,57.37,66.74c44.79-3.23,50.06-35.68,50.06-35.68l59.62-3.63s18.19,37.57,51.67,37.57c52.35,0,51.18-60.02,49.42-75.53-1.76-15.52-7.03-37.77-7.03-37.77l9.96,3.22s-7.03-21.96-10.54-38.64-13.47-110.95-138.17-97.78Z"/><path class="cls-4" d="M195.69,111.71s17.12,49.4,74.5,65.54c0,0,7.97,94.34-6.66,104.29-14.63,9.96-57.86,13.43-80.13,13.43s-73.19-2.52-80.21-11.89c-7.03-9.37-7.03-71.74-7.03-71.74,0,0,59.72-9.63,73.77-73.66l-10.54,41.72s38.06-27.87,36.3-67.68Z"/><path class="cls-3" d="M163.48,210.47h31.62s12.29,37.79-15.81,39.68c-28.1,1.89-15.81-39.68-15.81-39.68Z"/><path class="cls-6" d="M245.78,199.97c0,8.93-6.06,16.16-13.55,16.16s-13.54-7.23-13.54-16.16,6.07-16.17,13.54-16.17,13.55,7.24,13.55,16.17Z"/><path class="cls-6" d="M132.79,216.14c7.49,0,13.55-7.23,13.55-16.16,0-4.83-1.8-9.11-4.61-12.08-7.42,6.81-15.21,11.73-22.22,15.23,1.23,7.42,6.7,13.01,13.28,13.01Z"/><path class="cls-1" d="M118.08,321.26s-35.48,24.66-43.83,47.05c-8.34,22.39,42.15,19.32,42.15,19.32l1.67-66.37Z"/><path class="cls-1" d="M245.25,322.59s37.9,23.33,46.24,45.72c8.34,22.39-39.96,23.34-39.96,23.34l-6.28-69.07Z"/><rect class="cls-2" x="113.2" y="455.97" width="136.1" height="15.68"/><path class="cls-5" d="M153.63,766.64c-5.82,3.54-12.29,8.62-19.44,7.81-3.86-.44-5.14-2.59-5.07-5.31-9.41,6-18.97,12.25-21.2,14.27-4.69,4.24-6.15,9.79,0,9.65,6.15-.14,54.45-13.16,54.45-13.16v9.65h12.88v-37.46c-7.2,4.86-14.2,10.04-21.62,14.55Z"/><path class="cls-5" d="M179.72,273.22c-26.74,0-44.15-12.15-44.39-12.35-.75-.61-.87-1.71-.26-2.47,.61-.75,1.7-.87,2.45-.27,.55,.4,37.31,26.21,86.75-.17,.85-.46,1.92-.13,2.38,.72,.46,.85,.13,1.92-.72,2.38-17.09,9.12-32.82,12.16-46.2,12.16Z"/></svg>