<?xml version="1.0" encoding="UTF-8"?><svg id="Layer_1" xmlns="http://www.w3.org/2000/svg" viewBox="0 0 432 852"><defs><style>.cls-1{fill:#f2bf8c;}.cls-2{fill:#ffcc94;}.cls-3{fill:#e72f51;}.cls-4{fill:#c1272d;}.cls-5{fill:#46677f;}.cls-6{fill:#642d10;}.cls-7{fill:#353029;}</style></defs><path class="cls-2" d="M232.12,470.73l124.37-4.12s16.88-.51,16.34-16.79c-.54-16.31-19.16-15.32-19.16-15.32l-124.63,4.13,3.08,32.1Z"/><path class="cls-2" d="M145.01,503.9s1.97,18.93-5.11,21.71c-6.41,2.51-21.16,.32-22-21.71-.9-23.62,.95-138.53,1.72-147.03,1.31-14.62,27.81-23.27,27.81-23.27l-2.42,170.3Z"/><path class="cls-2" d="M285.59,445.11c-2.57-39.95-8.79-83.12-9.24-88.24-1.32-14.62-27.81-23.27-27.81-23.27l1.59,111.51c9.32-.03,26.15,.07,35.47,0Z"/><g><path class="cls-2" d="M150.51,568.81s5.76,166.87,2.73,174.04c-3.03,7.17-53.49,24.92-61.75,30.05-8.25,5.13-14.25,12.88-14.25,12.88h24.01l68.01-25.11,2.55-5.15v-31.84s7.33-82.69,6-101.36c-1.33-18.67,.04-49.51,.04-49.51l-27.34-4Z"/><g><polygon class="cls-3" points="101.25 790.29 155.01 767.04 161.27 790.67 169.02 789.91 171.81 755.53 103 784.04 77.24 785.79 77.24 790.29 101.25 790.29"/><polygon class="cls-3" points="96.92 770.2 95.5 786.21 102.67 786.21 115.5 780.71 107.12 765.84 96.92 770.2"/></g></g><g><path class="cls-2" d="M251.85,568.81s-5.76,166.87-2.73,174.04c3.03,7.17,53.49,24.92,61.74,30.05,8.25,5.13,14.25,12.88,14.25,12.88h-24.01l-68-25.11-2.55-5.15v-31.84s-7.33-82.69-6-101.36c1.33-18.67-.04-49.51-.04-49.51l27.34-4Z"/><g><polygon class="cls-3" points="301.11 790.29 247.34 767.04 241.09 790.67 233.34 789.91 230.55 755.53 299.36 784.04 325.11 785.79 325.11 790.29 301.11 790.29"/><polygon class="cls-3" points="305.43 770.2 306.86 786.21 299.69 786.21 286.85 780.71 295.24 765.84 305.43 770.2"/></g></g><g><path class="cls-2" d="M236.97,446.19c.23-1.14,1.41-1.9,2.52-1.92,9.86-.19,19.72-.2,29.58-.15-.43-32.77-1.09-72.22-1.91-83.01-1.48-19.34-18.88-34.41-71.03-34.24-57.86,.19-67.64,18.29-67.5,35.92,.14,17.62,2.2,129.03,2.2,129.03h102.21c2.12-15.19,.95-30.8,3.95-45.64Z"/><g><path class="cls-2" d="M214.06,294.41h-34.54l.27,34.54c.95,8.59,8.16,15.3,17.01,15.3s16.05-6.7,17-15.3l.27-34.54Z"/><path class="cls-1" d="M213.92,312.79l.14-18.38h-34.54l.15,19.32c3.79,1.78,10.33,2.74,17.12,2.49,7.97-.3,15.79-2.4,17.13-3.42Z"/></g><path class="cls-6" d="M186.21,61.37s-53.75-1.31-88.36,39.81c-21.04,24.99-42.74,73.16-38.05,112.99,0,0,11.12-6.43,14.63-18.73,0,0-16.98,82.42,33.37,105.32,50.35,22.9,56.2,2.41,56.2,2.41l71.42-2.41s9.95,6.51,32.79,2.99c22.83-3.51,63.81-53.28,39.8-109.48,0,0,7.62,4.1,18.15,1.76,0,0-13.47-13.46-16.98-34.83-3.51-21.37-11.25-101.67-122.99-99.82Z"/><path class="cls-2" d="M277,186.48s15.81,117.15-57.37,125.12c-73.18,7.97-108.89-3.16-108.89-84.54l9.95-16.39s11.12,1.81,25.18-6.12c14.05-7.93,44.75-39.86,48.72-59.31,0,0,3.38,22.7-20.04,49.63,0,0,35.13-16.71,43.91-64.26,0,0,12.07,49.44,58.55,55.89Z"/><polygon class="cls-1" points="190.35 204.55 174.54 268.08 206.16 268.08 190.35 204.55"/><path class="cls-7" d="M257.29,216.61c0,7.71-6.26,13.96-13.97,13.96s-13.96-6.25-13.96-13.96,6.26-13.96,13.96-13.96,13.97,6.25,13.97,13.96Z"/><path class="cls-7" d="M143.66,230.57c7.71,0,13.96-6.25,13.96-13.96,0-6.26-4.14-11.49-9.82-13.27-.67,.43-1.34,.87-1.93,1.21-5.41,3.05-10.38,4.66-14.46,5.48-1.06,1.97-1.72,4.19-1.72,6.58,0,7.71,6.25,13.96,13.96,13.96Z"/><path class="cls-4" d="M193.94,292.36c-10.76,0-18.86-2.47-19.04-2.53-.92-.29-1.44-1.27-1.15-2.2s1.28-1.44,2.2-1.15c1.65,.52,40.62,12.33,59.43-19.85,.49-.84,1.56-1.12,2.4-.63,.84,.49,1.12,1.56,.63,2.4-11.5,19.68-30.3,23.95-44.48,23.95Z"/></g><polygon class="cls-5" points="151.18 481.84 137.84 491.83 141.51 583.19 188.69 583.19 193.03 549.31 209.49 549.66 215.03 583.19 259.87 583.19 263.7 488.31 249.87 481.84 151.18 481.84"/><path class="cls-3" d="M255.87,331.8c-5.15-.68-10.17,.45-15.07,0v28.37c0,9.75-10.12,17.64-22.62,17.64h-42.53c-12.49,0-22.62-7.9-22.62-17.64v-28.37h-15.19v160.04h126.03l-8-160.04Z"/><path class="cls-2" d="M314.93,441.78l20.89-17.98s5.86-3.02,9.37,2.83c3.51,5.86-15.13,19.32-15.13,19.32l-15.13-4.17Z"/></svg>