<?xml version="1.0" encoding="UTF-8"?><svg id="Layer_1" xmlns="http://www.w3.org/2000/svg" viewBox="0 0 432 852"><defs><style>.cls-1{fill:#f8c4b1;}.cls-2{fill:#681e26;}.cls-3{fill:#6a4148;}.cls-4{fill:#f2bf8c;}.cls-5{fill:#ffcc94;}.cls-6{fill:#fbca9c;}.cls-7{fill:#75393d;}.cls-8{fill:#1e1e1e;}.cls-9{fill:#293c4b;}.cls-10{fill:#2d231b;}.cls-11{fill:#353029;}.cls-12{fill:#824041;}</style></defs><path class="cls-12" d="M154.08,536.1l-15.63,267.31h56.41l18.93-225h11.73l31.11,225h53.18l-27.89-244.63-3.68-31.57s-99.7,.97-124.15,8.9Z"/><rect class="cls-3" x="154.08" y="519.86" width="124.15" height="14.67"/><polygon class="cls-1" points="174.32 318.16 258.92 313.25 268.58 321.84 272.1 525.07 162.82 525.07 168.19 322.76 174.32 318.16"/><path class="cls-2" d="M177.69,317.96s-34.96-4.71-36.51-4.72c-1.55,0-4.11,.91-3.88,5.6,.23,4.69,6.67,8.51,6.67,8.51,0,0-8.28-5.06-13.34,0-5.06,5.06-64.83,108.97-63.91,119.09,.92,10.11,44.14,63.45,44.14,63.45l27.59-37.7s-30.35-27-29.89-32.12c.46-5.12,28.51-53.4,28.51-53.4l-7.82,165.07s.46,29.43,18.85,40c18.39,10.58,18.24-2.76,18.24-2.76l11.34-271.02Z"/><path class="cls-2" d="M254.31,313.63s34.96-4.71,36.51-4.72c1.55,0,4.11,.91,3.88,5.6-.23,4.7-6.67,8.51-6.67,8.51,0,0,8.28-5.06,13.33,0,5.06,5.06,64.83,108.97,63.91,119.09-.92,10.11-44.14,63.45-44.14,63.45l-27.59-37.7s30.35-27,29.89-32.12c-.46-5.12-28.51-53.4-28.51-53.4l7.81,165.07s-.46,29.43-18.85,40c-18.39,10.58-18.24-2.76-18.24-2.76l-11.34-271.02Z"/><polygon class="cls-3" points="217.46 337.78 198.23 528.75 238.54 528.75 221.18 337.78 217.46 337.78"/><polygon class="cls-3" points="193.79 317.03 190.76 356.17 218.3 341.7 244.82 352.19 241.01 314.28 193.79 317.03"/><path class="cls-8" d="M116.38,831.33h89.66s-.92-38.19-40.46-41.41c-39.54-3.22-49.2,41.41-49.2,41.41Z"/><path class="cls-8" d="M239.87,831.43l89.5-5.39s-3.21-38.07-42.88-38.91c-39.67-.84-46.62,44.29-46.62,44.29Z"/><path class="cls-5" d="M135.4,476.36l3.53,3.11,15.06,13.75s9.25,10.45,1.18,21.09c-10.7,14.12-23.66,4.7-23.66,4.7l-17.14-13.97,21.03-28.69Z"/><path class="cls-5" d="M296.95,472.72l-3.53,3.11-15.06,13.75s-9.25,10.45-1.18,21.09c10.69,14.11,23.65,4.7,23.65,4.7l17.15-13.97-21.03-28.68Z"/><path class="cls-7" d="M213.78,580.25c-10.18,0-15.3-8.12-15.52-8.46-.53-.86-.26-1.99,.6-2.53,.85-.53,1.99-.27,2.53,.59,.17,.27,4.3,6.72,12.39,6.72h11.72c-.1-.02,7.78-1.58,11.54-6.82,.59-.83,1.74-1.01,2.57-.42,.83,.59,1.01,1.74,.42,2.57-4.67,6.5-13.8,8.25-14.19,8.32l-12.06,.03Z"/><path class="cls-6" d="M201.95,294.56v33.54s.62,17.96,15.03,17.04c14.4-.92,13.95-17.04,13.95-17.04l-1.38-33.54h-27.59Z"/><path class="cls-4" d="M216.77,307.85c4.55-.12,8.97-.07,13.28-.69l-.52-12.61h-27.59v10.89c4.97,.58,9.58,2.54,14.83,2.4Z"/><path class="cls-6" d="M158.64,227.42c0,10.48-8.49,18.98-18.98,18.98s-18.97-8.5-18.97-18.98,8.49-18.97,18.97-18.97,18.98,8.5,18.98,18.97Z"/><path class="cls-9" d="M310.31,212.28l9.35-85.09s7.82-69.67-18.97-79.09c-22.59-7.94-33.29,5.83-33.29,5.83,0,0-7.4-35.29-41.71-33.28-34.31,2.01-110.94,62.7-116.46,72.51-1.06,1.9-7.98,22.24-10.08,38.62-2.44,19.04-1.08,47.16-1.08,47.16l21.79-17.12-7.57,42.3,34.94-31.6-12.87,39.74h175.95Z"/><path class="cls-6" d="M319.66,227.42c0,10.48-8.49,18.98-18.98,18.98s-18.97-8.5-18.97-18.98,8.5-18.97,18.97-18.97,18.98,8.5,18.98,18.97Z"/><path class="cls-6" d="M139.87,212.28s-2.76,48.25,11.96,65.27c14.71,17.01,33.1,26.21,65.29,26.67,32.18,.46,69.43-15.63,74.03-40.46,4.6-24.83,2.76-85.52,2.76-85.52l-19.31,22.99s3.68-35.4,2.3-41.38c-1.38-5.98-12.87-32.65-12.87-32.65l-11.04,17.93-8.73-17.93s-74.49,71.32-104.38,85.09Z"/><path class="cls-4" d="M243.48,237.03c0,5.3-4.3,9.61-9.61,9.61h-35.35c-5.3,0-9.61-4.3-9.61-9.61h0c0-5.31,4.3-9.61,9.61-9.61h35.35c5.31,0,9.61,4.3,9.61,9.61h0Z"/><path class="cls-11" d="M181.56,205.46c0,5.84-4.73,10.57-10.58,10.57s-10.58-4.73-10.58-10.57,4.73-10.58,10.58-10.58,10.58,4.73,10.58,10.58Z"/><path class="cls-11" d="M272.61,205.46c0,5.84-4.73,10.57-10.58,10.57s-10.58-4.73-10.58-10.57,4.73-10.58,10.58-10.58,10.58,4.73,10.58,10.58Z"/><path class="cls-10" d="M216.86,282.08c-24.02,0-34.82-15.78-35.27-16.46-.56-.84-.34-1.98,.51-2.54,.84-.57,1.98-.34,2.55,.5,.41,.61,10.53,15.09,32.71,14.81,22.14-.22,29.53-16.16,29.83-16.84,.41-.92,1.5-1.34,2.42-.93,.93,.41,1.35,1.49,.94,2.43-.34,.77-8.58,18.79-33.16,19.02-.18,0-.35,0-.53,0Z"/></svg>