<?xml version="1.0" encoding="UTF-8"?><svg id="Layer_1" xmlns="http://www.w3.org/2000/svg" viewBox="0 0 432 852"><defs><style>.cls-1{fill:#9e5a38;}.cls-2{fill:#aa623a;}.cls-3{fill:#dca275;}.cls-4{fill:#c9926d;}.cls-5{fill:#161616;}.cls-6{fill:#1e1e1e;}.cls-7{fill:#141414;}.cls-8{fill:#2d2a27;}.cls-9{fill:#4c392c;}.cls-10{fill:#473728;}</style></defs><path class="cls-3" d="M103.86,529.4l-4.89,4.55,1.69,25.09s2.97,16.96,19.44,17.34c21.83,.53,22.7-19.21,22.7-19.21l-.32-28.38-38.62,.61Z"/><path class="cls-7" d="M297.55,758.7s17.34,11.5,39.34,14.88c21.99,3.38,16.92,27.76,3.38,30.8-13.54,3.04-109.76,3.36-113.58-5.09-3.82-8.46,5.3-29.93,5.3-29.93l65.56-10.66Z"/><path class="cls-7" d="M123.29,756.48s-17.34,11.5-39.34,14.87c-21.99,3.39-16.92,27.77-3.38,30.81,13.54,3.04,109.76,3.36,113.58-5.09,3.82-8.47-5.3-29.93-5.3-29.93l-65.56-10.65Z"/><path class="cls-2" d="M149.7,343l-13.83-14.31s-23.71-1.12-28.49,10.6c-4.2,10.27-9.55,197.74-9.55,197.74h39.02l12.84-194.02Z"/><path class="cls-1" d="M136.94,373.86c-4.82,9.4-4.86,20.57-5.78,30.91-.95,10.62-1.42,21.2-1.68,31.86-.82,33.05-2.75,67.06-.74,100.39h8.13l11.73-177.23c-4.58,4.23-8.87,8.64-11.65,14.07Z"/><polygon class="cls-6" points="142.62 528.79 134.88 534.71 120.88 758.62 192.67 779.7 203.53 573.24 215.39 572.91 229.22 776.08 298.61 759.37 276.31 533.72 267.09 528.79 142.62 528.79"/><polygon class="cls-5" points="276.31 534.71 134.88 534.71 134.88 522.69 136.18 518.74 276.31 518.74 276.31 534.71"/><path class="cls-2" d="M135.87,328.69l137.31-1.1s23.71-1.02,36.55,18.78c12.84,19.79,53.34,92.45,53.35,103.82,0,17.19-53.35,93.61-53.35,93.61l-35.56-28.02s43.96-59.07,43.96-65.59-41.49-69.25-41.49-69.25l-.33,142.25-141.43-.49,.99-194.01Z"/><path class="cls-3" d="M274.17,515.78l-16.55,18.93s-9.88,14.09,1.48,26.02c15.07,15.81,29.64,2.47,29.64,2.47l19.85-20.3-34.42-27.12Z"/><rect class="cls-6" x="197.77" y="345.38" width="2.55" height="176.39"/><path class="cls-6" d="M220.71,380.03c0,3.86-3.13,6.99-7,6.99s-7-3.14-7-6.99,3.14-7,7-7,7,3.13,7,7Z"/><path class="cls-6" d="M220.71,419.02c0,3.87-3.13,7-7,7s-7-3.14-7-7,3.14-6.99,7-6.99,7,3.13,7,6.99Z"/><path class="cls-6" d="M220.71,458.01c0,3.87-3.13,7-7,7s-7-3.13-7-7,3.14-7,7-7,7,3.13,7,7Z"/><path class="cls-6" d="M220.71,497c0,3.86-3.13,7-7,7s-7-3.14-7-7,3.14-7,7-7,7,3.13,7,7Z"/><path class="cls-6" d="M190.26,320.3s-16.73-1.36-38.11,12.27c0,0,41.43,9.61,46.9,59.18,0,0,18.79-55.79,55.66-60.12,0,0-21.53-12.73-37.03-11.34h-27.42Z"/><path class="cls-3" d="M186.54,298.56v32.84s1.39,11.77,18.12,10.53c16.73-1.24,15.32-10.53,15.32-10.53v-32.84h-33.44Z"/><polygon class="cls-4" points="219.98 311.13 219.98 298.56 186.54 298.56 186.54 310.84 219.98 311.13"/><path class="cls-9" d="M94.68,216.66s-7.36-130.69-5.64-144.86c1.71-14.17,11.1-23.12,39.1-24.74,28-1.62,151.35-2.35,163.19,.69,11.85,3.03,14.85,11.81,14.03,46.18,0,0,15.31,.32,15.27,13.2-.02,7.39-9.62,109.54-9.62,109.54H94.68Z"/><path class="cls-3" d="M133.12,123.14h140.67c11.89,0,21.53,9.65,21.53,21.53v140.67c0,11.88-9.65,21.53-21.53,21.53H133.12c-11.89,0-21.54-9.65-21.54-21.54V144.68c0-11.89,9.65-21.54,21.54-21.54Z"/><path class="cls-3" d="M124.83,219.3c0,10.88-8.82,19.7-19.7,19.7s-19.71-8.82-19.71-19.7,8.82-19.71,19.71-19.71,19.7,8.82,19.7,19.71Z"/><path class="cls-3" d="M319.04,219.3c0,10.88-8.82,19.7-19.71,19.7s-19.71-8.82-19.71-19.7,8.82-19.71,19.71-19.71,19.71,8.82,19.71,19.71Z"/><g><rect class="cls-10" x="168.96" y="180.56" width="72.42" height="4.03"/><path class="cls-8" d="M172.63,188.84c0,4.31-3.49,7.79-7.8,7.79h-30.54c-4.31,0-7.8-3.49-7.8-7.79v-12.52c0-4.31,3.49-7.8,7.8-7.8h30.54c4.31,0,7.8,3.49,7.8,7.8v12.52Z"/><path class="cls-8" d="M281.71,188.84c0,4.31-3.49,7.79-7.79,7.79h-30.55c-4.31,0-7.8-3.49-7.8-7.79v-12.52c0-4.31,3.49-7.8,7.8-7.8h30.55c4.31,0,7.79,3.49,7.79,7.8v12.52Z"/></g><path class="cls-4" d="M179.2,202.72h49.79c4.3,0,7.8,3.49,7.8,7.8v10.99c0,4.3-3.49,7.79-7.79,7.79h-49.8c-4.3,0-7.79-3.49-7.79-7.79v-10.99c0-4.3,3.49-7.8,7.8-7.8Z"/><path class="cls-8" d="M170.62,279.75c-6.51,0-10.78-.31-11.3-.34-1.01-.08-1.77-.96-1.69-1.97,.08-1.01,.97-1.76,1.97-1.69,.4,.03,40.22,2.87,68.79-9.63,28.27-12.37,33.78-27.57,33.83-27.72,.33-.96,1.38-1.46,2.33-1.14,.96,.33,1.46,1.37,1.13,2.33-.23,.69-6.1,16.88-35.83,29.89-20.16,8.82-45.04,10.27-59.24,10.27Z"/></svg>