<?xml version="1.0" encoding="UTF-8"?><svg id="Layer_1" xmlns="http://www.w3.org/2000/svg" viewBox="0 0 432 852"><defs><style>.cls-1{fill:#e5b385;}.cls-2{fill:#fbca9c;}.cls-3{fill:#dca275;}.cls-4{fill:#242e38;}.cls-5{fill:#1f2123;}.cls-6{fill:#1e1e1e;}.cls-7{fill:#141414;}.cls-8{fill:#2d2a27;}.cls-9{fill:#272a2d;}.cls-10{fill:#2f3b49;}</style></defs><path class="cls-2" d="M101.83,476.75l.11,4.92,.8,21.31s2.1,14.45,16.05,15.2c18.49,.99,19.73-15.73,19.73-15.73l.42-23.12-37.11-2.58Z"/><path class="cls-2" d="M299.94,474.9l-.11,4.92-.8,21.31s-2.1,14.45-16.05,15.2c-18.49,.99-19.73-15.73-19.73-15.73l-.42-23.12,37.11-2.58Z"/><g><polygon class="cls-10" points="143.8 501.4 131.19 793.55 182.71 798.45 194.43 575.67 204.95 575.67 224.28 798.45 271.12 795.3 257.14 501.4 143.8 501.4"/><path class="cls-7" d="M115.27,806.38l67.62,2.2s6.59-29.42-19.76-38.2c-27.01-9.01-52.25,13.17-47.86,36.01Z"/><path class="cls-7" d="M282.39,806.38l-67.62,2.2s-6.59-29.42,19.76-38.2c27.01-9.01,52.25,13.17,47.86,36.01Z"/><path class="cls-4" d="M195.91,575.69c-9.72,0-14.61-7.75-14.81-8.08-.51-.82-.25-1.9,.57-2.41,.82-.51,1.9-.26,2.42,.56,.16,.26,4.11,6.42,11.83,6.42h11.2c-.09-.02,7.43-1.51,11.02-6.51,.56-.79,1.65-.97,2.45-.4,.79,.57,.97,1.66,.4,2.45-4.46,6.21-13.18,7.88-13.55,7.94l-11.52,.03Z"/></g><polygon class="cls-9" points="156.68 318.2 182.51 307.4 220.35 307.4 247.7 319.84 263.31 500.52 139.56 500.52 156.68 318.2"/><rect class="cls-5" x="131.19" y="495.63" width="127.04" height="16.24"/><path class="cls-3" d="M184.88,275.38v32.84s1.39,11.77,18.13,10.53c16.73-1.24,15.32-10.53,15.32-10.53v-32.84h-33.44Z"/><path class="cls-6" d="M94.57,208.18s-2.48-62.62,8.88-90.51c11.36-27.89,91.46-70.47,91.46-70.47l-11.27,21.42s32.86-23.08,60.29-25.2l-20.06,21.51s33.67-20.21,66.27-16.26l-31.7,15.36s34.89-12.08,60.17-4.05l-28.25,14.51s33.14-4.32,49.93,7.89c0,0-27.28,4.15-28.91,13.53-1.63,9.38-4.34,111.26-4.34,111.26l-212.49,1.01Z"/><path class="cls-2" d="M120.38,203.54c0,7.92-6.42,14.34-14.34,14.34s-14.34-6.42-14.34-14.34,6.42-14.34,14.34-14.34,14.34,6.42,14.34,14.34Z"/><circle class="cls-2" cx="295.73" cy="201.13" r="14.34"/><path class="cls-2" d="M111.85,158.13s-9.26,123.64-1.43,126.17c7.83,2.53,162.29,2.84,176.37-4.94,14.08-7.78,1.94-119.59,1.94-119.59,0,0-1.65-35.35-44.49-43.92-29.29-5.85-42.45,35.94-42.45,35.94,0,0-12.83-31.67-55.62-28.38-29.77,2.29-34.32,34.72-34.32,34.72Z"/><path class="cls-6" d="M253.78,229.47c-2.58-6.94-9.78-7.27-16.12-6.98-8.95,.4-17.81,.75-26.78,.89-12.14,.19-24.22,.76-36.34,1.55-6.37,.41-18.18-.81-22.32,5.23-3.04,4.45-2.75,10.56-3.05,15.7-.36,6.08-.62,12.19-.52,18.28,.12,7.28,.59,14.49,1.57,21.67,2.17,.02,4.4,.03,6.68,.04,.96-8.44,1.3-25.33,1.3-25.33,0,0-.14-15.75,4.55-20.89,10.95-12.02,29.43-5.86,43.77-7.51,12.35-1.42,35.29-2.99,37.2,10.37,1.09,7.61,.85,22.54,.85,22.54,0,0,.51,12.97-.12,19.26,3-.14,5.93-.3,8.71-.46-.23-13.51,0-27.04,.81-40.39,.27-4.36,1.36-9.76-.21-13.97Z"/><path class="cls-6" d="M155.37,269.62c-8.71-4.96-22.41-8.74-26.89-18.77-2.65-5.94-2.64-12.29-2.23-18.7,.49-7.54,2.71-19.83-3.98-25.43-3.9-3.27-8.36-5.72-13.03-7.83-1.99,36.28-3.66,83.85,1.17,85.4,3.59,1.16,37.99,1.85,75.54,1.51-9.07-6.94-20.77-10.59-30.58-16.18Z"/><path class="cls-6" d="M287.42,199.73c-7.9-.21-13.17,1.56-13.25,10.52-.08,8.47,2.14,18.31-3.25,25.62-8.39,11.35-20.22,19.02-29.79,29.21-6.19,6.59-12.16,13.36-18.24,20.03,31.34-.92,58.38-2.72,63.9-5.77,8.41-4.65,7.46-46.44,5.34-79.32-1.57-.14-3.14-.25-4.7-.3Z"/><circle class="cls-8" cx="146.14" cy="171.58" r="10.54"/><circle class="cls-8" cx="247.7" cy="171.58" r="10.54"/><path class="cls-8" d="M127.99,155.19c-.86,0-1.61-.63-1.74-1.51-.13-.96,.54-1.85,1.5-1.98l23.12-3.22c.94-.12,1.85,.53,1.98,1.5,.13,.96-.54,1.85-1.5,1.98l-23.12,3.22c-.08,.01-.16,.02-.25,.02Z"/><path class="cls-8" d="M238.46,152.68c-.84-.18-1.44-.96-1.38-1.84,.07-.97,.91-1.69,1.88-1.63l23.29,1.7c.95,.08,1.69,.91,1.62,1.88-.07,.97-.91,1.69-1.88,1.63l-23.29-1.71c-.08,0-.16-.02-.25-.04Z"/><polygon class="cls-1" points="191.66 182.12 188.88 208.18 208.79 208.18 204.25 182.12 191.66 182.12"/><path class="cls-6" d="M198.97,260.63c-11.14,0-20.74-1.65-21.45-1.78-.95-.17-1.59-1.08-1.42-2.03,.17-.95,1.09-1.61,2.03-1.42,.31,.05,30.5,5.24,45.39-2.8,.84-.46,1.92-.15,2.38,.71,.46,.85,.14,1.92-.71,2.38-7.15,3.86-17.19,4.95-26.22,4.95Z"/><path class="cls-10" d="M268.77,308.87s33.5-1.46,35.35,18.44c1.85,19.9,2.14,153.98,2.14,153.98h-23.71l-2.34,42.15s-25.76,16.39-35.71-4.68-24.15-211.35-24.15-211.35l48.42,1.46Z"/><polygon class="cls-4" points="252.47 358.56 220.35 307.4 230.63 424.92 263.31 424.92 233.42 358.56 252.47 358.56"/><path class="cls-10" d="M134.09,308.87s-33.5-1.46-35.35,18.44c-1.85,19.9-2.14,153.98-2.14,153.98h23.71l2.34,42.15s25.76,16.39,35.71-4.68c9.96-21.08,24.15-211.35,24.15-211.35l-48.42,1.46Z"/><polygon class="cls-4" points="150.39 358.56 182.51 307.4 172.23 424.92 139.56 424.92 169.44 358.56 150.39 358.56"/><polygon class="cls-4" points="120.31 481.29 123.05 357.54 115.15 481.29 120.31 481.29"/><polygon class="cls-4" points="282.55 481.29 281.38 357.54 288.16 481.29 282.55 481.29"/></svg>