<?xml version="1.0" encoding="UTF-8"?><svg id="Layer_1" xmlns="http://www.w3.org/2000/svg" xmlns:xlink="http://www.w3.org/1999/xlink" viewBox="0 0 432 852"><defs><style>.cls-1{fill:none;}.cls-2{clip-path:url(#clippath);}.cls-3{fill:#e9fffc;}.cls-4{fill:#fff;}.cls-5{fill:#f2bf8c;}.cls-6{fill:#fbca9c;}.cls-7{fill:#89c14d;}.cls-8{fill:#333;}.cls-9{fill:#44382a;}.cls-10{fill:#2b2b2b;}.cls-11{fill:#2b2720;}.cls-12{fill:#2d2d2d;}.cls-13{fill:#353029;}.cls-14{fill:#4c392c;}.cls-15{fill:#28241d;}.cls-16{clip-path:url(#clippath-1);}</style><clipPath id="clippath"><rect class="cls-1" x="165.69" y="162.66" width="30.72" height="20.54"/></clipPath><clipPath id="clippath-1"><rect class="cls-3" x="249.36" y="162.66" width="30.72" height="20.54"/></clipPath></defs><polygon class="cls-8" points="185.17 512.65 160.66 525.72 160.66 802.82 212.47 802.82 221.81 576.78 235.75 576.16 255.46 802.82 307.45 802.82 295 525.72 283.17 518.25 185.17 512.65"/><path class="cls-14" d="M143.16,824.32h81.64s-.84-38.79-36.84-42.06c-36-3.27-44.79,42.06-44.79,42.06Z"/><path class="cls-14" d="M320.41,824.32h-81.63s.83-38.79,36.84-42.06c36-3.27,44.79,42.06,44.79,42.06Z"/><path class="cls-12" d="M233.01,576.17c-1.17,0-2.37,0-3.59-.02h-3.87c-9.19-.01-15.66-1.88-15.93-1.96-.99-.29-1.55-1.33-1.27-2.32,.29-.98,1.33-1.55,2.32-1.26,.06,.01,6.26,1.79,14.89,1.79l3.9,.02c7.25,.05,13.48,.11,17.06-1.69,.93-.46,2.04-.08,2.51,.83,.46,.93,.09,2.05-.84,2.51-3.69,1.85-8.99,2.11-15.17,2.11Z"/><polygon class="cls-14" points="165.53 502.01 158.95 514.1 158.95 528.7 296.18 526.5 295.81 512.76 288.88 504.99 165.53 502.01"/><path class="cls-6" d="M329.61,470.46l-.06,4.98-.6,21.59s-1.97,14.66-16.1,15.56c-18.72,1.19-20.14-15.73-20.14-15.73l-.66-23.41,37.56-2.99Z"/><path class="cls-8" d="M342.31,477l-5.22-161.38s.03-31.74-22.97-34.02c-19.66-1.96-50.57-1.6-50.57-1.6l-72.9,.74s-31.55-2.62-50.73,.51c-15.7,2.56-28.33,43.58-28.33,43.58,0,0-27.16,66.92-23.4,86.46,3.76,19.54,49.96,48.59,49.96,48.59l21.31-32.09-.5,86.31,136.86-1.35,1.84-170.81-1.47,136.88,46.13-1.82Zm-206.26-78.53l20.8-55.1,2.38,77.01-23.18-21.91Z"/><path class="cls-10" d="M299.98,469.72c-.1-14.45,.13-28.77,.41-43.27,.6-30.02-1.03-54.28-2.77-82.9l-1.45,135.28,3.56-.14c.12-3.02,.26-6.02,.24-8.97Z"/><path class="cls-6" d="M160.92,426.31l3.84,3.19,16.39,14.07s10.13,10.77,1.93,22.3c-10.87,15.29-24.91,5.73-24.91,5.73l-18.59-14.25,21.34-31.04Z"/><g><path class="cls-6" d="M211.94,257.98v37.95s0,14.25,17.2,14.23c14.84-.01,13.64-15.42,13.64-15.42l.02-36.77h-30.86Z"/><path class="cls-5" d="M212.08,269.93c4.5,2.78,11.13,1.28,16.16,1.12,5.13-.16,9.84-1.15,14.54-2.69v-10.39h-30.85v11.9s.1,.03,.15,.06Z"/></g><path class="cls-11" d="M162.63,185.21l-25.86-5.71s-7.78-29.62-7.85-58.39c-.07-28.78,13.69-93.42,91.69-93.42s94.67,56.72,97.18,87.58c2.5,30.86-7.51,56.3-7.51,56.3l-147.64,13.64Z"/><path class="cls-15" d="M196.01,125.07c-11.65-20.15-40.09-29.51-63.81-30.44-.46,1.87-.86,3.71-1.21,5.52,20.38,.97,40.49,5.05,54.66,21.29,13.73,15.74,17.93,34.48,20.34,53.88,1.47,1.81,2.94,3.62,4.34,5.49l3.26-.3c-3.58-19.12-7.52-38.03-17.59-55.44Z"/><path class="cls-15" d="M222.84,179.65c-.07-4.06,.06-8.16,.31-12.25-.63-19.96-3.09-40.12-8.85-58.63-7.81-25.13-16.43-53.94-35.18-73.3-1.7,.73-3.35,1.51-4.94,2.33,15.5,14.22,24.91,41.08,30.29,56.94,9.66,28.44,16.04,56.02,14.81,85.24l3.55-.33Z"/><path class="cls-15" d="M239.24,90.48c-3.63,19.65-7.46,39.37-9.28,59.29-.65,7.09-1.45,14.68-1.8,22.3,.05,2.36,.09,4.72,.1,7.08l8.72-.8c.1-5.62,.62-11.33,1.31-17.22,2.41-20.6,2.37-41.36,4.96-61.94,2.12-16.89,5.53-33.54,13.04-48.92,2.42-4.96,5.11-10.17,8.48-14.77-1.5-.61-3.04-1.19-4.62-1.74-13.91,13.05-17.92,40.53-20.91,56.72Z"/><path class="cls-15" d="M273.74,168.6c5.61-9.93,13.15-16.73,23.51-21.45,6.52-2.97,13.24-4.28,19.93-5.69,.22-1.9,.43-3.83,.58-5.84-16.79,2.32-32.52,6.17-40.62,24.27-1.76,3.95-3.76,7.96-5.59,12.04-.03,.59-.08,1.18-.12,1.76,.73-1.94,1.51-3.69,2.31-5.1Z"/><path class="cls-15" d="M265.97,162.99c.83-3.75,1.71-7.32,2.62-10.82,1.98-10.61,5.26-20.88,10.26-30.27,1.54-2.89,3.17-5.82,4.9-8.71,.55-1.01-1.58-2.53-1-3.55,6.77-11.94,15.63-20.36,28.09-25.65-.61-1.63-1.24-3.26-1.96-4.9-7.11,2.11-13.05,6.2-18.98,13.03-6.71,7.71-13.15,16.26-17.38,25.64-8.35,18.52-10.8,38.32-11.36,58.36l3.25-.3c.6-1.62,1.26-3.23,1.95-4.82,.1-1.87,.25-3.73,.42-5.6-.64-.54-1.05-1.36-.82-2.4Z"/><path class="cls-15" d="M177.04,161.95c6.65,5.03,13.12,10.73,17.76,17.77,.52,.79,1.02,1.58,1.52,2.38l8.34-.77c-5.73-7.41-12.01-14.38-18.65-20.58-15.52-14.51-35.28-11.32-54.82-10.22,.21,1.52,.44,2.99,.66,4.44,15.18-1.71,32.86-2.35,45.18,6.98Z"/><path class="cls-6" d="M266.06,96.91c-27.52-2.92-38.37,22.38-38.37,22.38,0,0-13.7-26-42.89-20.58-29.19,5.42-33.43,34.48-33.43,34.48,0,0-1.91,91.07,3.94,104.96,5.85,13.88,28.94,28.93,69.49,28.93s61.28-18.77,68.46-29.33c7.18-10.55,4.88-87.31,4.97-101.22,.09-13.9-4.64-36.7-32.16-39.62Z"/><path class="cls-6" d="M164.86,184.35c0,10.29-8.34,18.63-18.63,18.63s-18.63-8.34-18.63-18.63,8.34-18.62,18.63-18.62,18.63,8.34,18.63,18.62Z"/><path class="cls-6" d="M320.2,184.35c0,10.29-8.34,18.63-18.63,18.63s-18.63-8.34-18.63-18.63,8.34-18.62,18.63-18.62,18.63,8.34,18.63,18.62Z"/><path class="cls-13" d="M224.08,244.01c-15.67,0-28.53-8.52-29.22-8.99-.76-.52-.96-1.55-.45-2.31,.51-.77,1.55-.97,2.31-.46,.21,.14,20.81,13.77,40.58,5.97,19.7-7.77,21.88-23.58,21.9-23.74,.11-.92,.91-1.58,1.86-1.45,.91,.11,1.56,.94,1.45,1.86-.09,.73-2.46,17.94-23.98,26.44-4.9,1.93-9.8,2.69-14.45,2.69Z"/><path class="cls-5" d="M232.28,196.23c0,5.02-4.06,9.07-9.07,9.07s-9.07-4.06-9.07-9.07,4.07-9.07,9.07-9.07,9.07,4.06,9.07,9.07Z"/><path class="cls-11" d="M213.49,260.35s15.41-5.34,27.13,0l-12.9,36.73-14.23-36.73Z"/><circle class="cls-13" cx="175.39" cy="148.76" r="7.81"/><circle class="cls-13" cx="269.2" cy="148.76" r="7.81"/><rect class="cls-9" x="191.13" y="169.09" width="63.39" height="2.5"/><rect class="cls-3" x="165.69" y="162.66" width="30.72" height="20.54"/><path class="cls-13" d="M176.35,126.97c2.24,0,3.82,.39,3.99,.43,.89,.22,1.43,1.13,1.2,2.02-.22,.89-1.12,1.43-2.02,1.21-.36-.09-8.8-2.09-13.47,4.88-.51,.76-1.55,.96-2.32,.45-.77-.51-.97-1.55-.45-2.32,3.76-5.59,9.32-6.68,13.07-6.68Z"/><path class="cls-13" d="M271.01,126.97c-2.24,0-3.82,.39-3.99,.43-.89,.22-1.43,1.13-1.21,2.02,.22,.89,1.12,1.43,2.02,1.21,.36-.09,8.8-2.09,13.47,4.87,.51,.77,1.55,.97,2.32,.46s.97-1.55,.45-2.32c-3.76-5.59-9.32-6.68-13.07-6.68Z"/><g class="cls-2"><rect class="cls-4" x="154.62" y="171.13" width="57.16" height="3.62" transform="translate(-67.97 192.47) rotate(-47.8)"/><polygon class="cls-4" points="199.39 149.81 160.99 192.15 160.11 191.35 198.51 149.01 199.39 149.81"/></g><g><rect class="cls-3" x="249.36" y="162.66" width="30.72" height="20.54"/><g class="cls-16"><rect class="cls-4" x="238.29" y="171.13" width="57.16" height="3.62" transform="translate(-40.51 254.44) rotate(-47.79)"/><polygon class="cls-4" points="283.06 149.81 244.65 192.15 243.78 191.35 282.18 149.01 283.06 149.81"/></g></g><path class="cls-7" d="M342.87,324.83c0,4.49-3.15,8.13-7.02,8.13h-15.27c-3.88,0-7.02-3.64-7.02-8.13h0c0-4.49,3.14-8.13,7.02-8.13h15.27c3.88,0,7.02,3.64,7.02,8.13h0Z"/><path class="cls-7" d="M344.18,358.06c0,5.28-3.7,9.57-8.27,9.57h-23.68c-4.57,0-8.27-4.29-8.27-9.57h0c0-5.29,3.7-9.57,8.27-9.57h23.68c4.57,0,8.27,4.29,8.27,9.57h0Z"/><g><path class="cls-7" d="M207.18,397.71l-5.2,15.76h-6.69l17.02-50.1h7.8l17.1,50.1h-6.91l-5.35-15.76h-17.76Zm16.43-5.05l-4.91-14.42c-1.11-3.27-1.86-6.25-2.6-9.14h-.15c-.74,2.97-1.56,6.02-2.53,9.06l-4.9,14.5h15.09Z"/><path class="cls-7" d="M244.13,360.69h6.54v52.77h-6.54v-52.77Z"/><path class="cls-7" d="M261.67,360.69h6.54v52.77h-6.54v-52.77Z"/></g></svg>