<?xml version="1.0" encoding="UTF-8"?><svg id="Layer_1" xmlns="http://www.w3.org/2000/svg" viewBox="0 0 432 852"><defs><style>.cls-1{fill:#e5b385;}.cls-2{fill:#fbca9c;}.cls-3{fill:#161616;}.cls-4{fill:#1e1e1e;}.cls-5{fill:#141414;}.cls-6{fill:#2d2a27;}.cls-7{fill:#4c301d;}</style></defs><path class="cls-2" d="M101.85,470.96l.11,4.92,.8,21.31s2.1,14.45,16.05,15.2c18.49,.99,19.73-15.73,19.73-15.73l.42-23.12-37.11-2.58Z"/><g><polygon class="cls-4" points="149.44 508.28 136.83 800.42 188.35 805.33 200.06 582.55 210.59 582.55 229.92 805.33 276.75 802.18 262.77 508.28 149.44 508.28"/><path class="cls-5" d="M120.9,813.26l67.62,2.2s6.59-29.42-19.76-38.2c-27.01-9.01-52.25,13.17-47.86,36.01Z"/><path class="cls-5" d="M288.03,813.26l-67.62,2.2s-6.59-29.42,19.76-38.2c27.01-9.01,52.25,13.17,47.86,36.01Z"/><path class="cls-3" d="M201.54,582.57c-9.72,0-14.61-7.75-14.81-8.08-.51-.82-.25-1.9,.57-2.41,.81-.51,1.9-.26,2.41,.56,.17,.26,4.11,6.42,11.83,6.42h11.2c-.09-.02,7.43-1.51,11.02-6.51,.56-.79,1.65-.97,2.45-.4,.79,.57,.97,1.66,.41,2.45-4.46,6.21-13.18,7.88-13.55,7.94l-11.52,.03Z"/></g><polygon class="cls-5" points="141.03 502.34 267.9 502.34 253.43 310.1 159.03 307.9 141.03 502.34"/><rect class="cls-7" x="141.03" y="493.94" width="128.07" height="14.34"/><path class="cls-4" d="M193.83,297.57s-66.63,2.53-71.9,5.33c-5.27,2.8-17.12,1.92-18.44,33.54s-4.83,143.49-4.83,143.49h27.22s-9.22,48.4,0,49.71c9.22,1.32,35.13-14.93,48.3-77.28,13.17-62.35,19.65-154.79,19.65-154.79Z"/><path class="cls-4" d="M344.04,413.65c0-17.94-35.13-70.76-35.13-70.76,0,0-31.62-47.26-36.88-50.06s-54.18,5.85-54.18,5.85c0,0,8.34,92.15,21.52,154.5,13.17,62.35,39.08,78.6,48.3,77.28s8.95-42.38,8.95-42.38c0,0,47.42-56.5,47.42-74.43Zm-67.28,32.85v-77.56l24.97,42.46-24.97,35.1Z"/><path class="cls-2" d="M190.64,270.14v42.15s.52,13.61,14.75,14.05c14.23,.44,13.35-8.78,13.79-18.44s0-39.11,0-39.11l-28.54,1.35Z"/><path class="cls-1" d="M219.36,286.04c-.05-9.11-.17-17.25-.17-17.25l-28.54,1.35v15.36c9.6-.02,19.16-.05,28.71,.53Z"/><path class="cls-7" d="M94.04,202.94s-17.56-67.02,7.03-113.27c24.59-46.25,124.71-78.45,171.54-26.35,0,0,25.18-.59,35.13,27.52,9.95,28.1,21.08,69.67,0,106.55l-213.7,5.55Z"/><path class="cls-2" d="M247.73,105.04s-9.87,7.1-20.2,18.88c-20.02,22.81-54.96,58.74-115.48,63.67l.88,69.82s-.88,23.71,27.22,24.15,126.49,2.34,142.74-2.93,16.69-20.2,17.12-29.42c.44-9.22-3.55-66.45-3.55-66.45,0,0-59.72-19.76-48.74-77.72Z"/><path class="cls-7" d="M178.47,252.63c-.18-4.67-.47-10.23,2.69-14.12,7.08-8.75,22.64-7.35,32.61-6.5,12.96,1.1,17.03,13.47,17.1,24.82,.05,7.45-.59,14.88-.71,22.33-.01,.93-.05,1.93-.09,2.96,5.3-.07,10.5-.16,15.39-.29-.44-6.06-1.05-12.11-1.52-18.19-.63-8.15,.35-17.21-1.68-25.18-2.92-11.46-11.55-13.21-22.31-13.57-8.24-.27-16.51,.02-24.71,.94-7.42,.83-19.55,.81-25.15,6.79-4.46,4.76-4.4,11.42-4.62,17.82-.36,10.75-.03,21.05,1.92,31.55,3.87,.05,7.99,.1,12.2,.13-.38-9.82-.74-19.65-1.12-29.47Z"/><circle class="cls-2" cx="109.85" cy="205.15" r="18"/><circle class="cls-2" cx="301.72" cy="200.18" r="18"/><path class="cls-6" d="M162.1,191.06c0,5.11-4.15,9.26-9.26,9.26s-9.26-4.14-9.26-9.26,4.14-9.26,9.26-9.26,9.26,4.14,9.26,9.26Z"/><path class="cls-6" d="M262.69,191.06c0,5.11-4.14,9.26-9.26,9.26s-9.26-4.14-9.26-9.26,4.14-9.26,9.26-9.26,9.26,4.14,9.26,9.26Z"/><polygon class="cls-1" points="201.62 191.06 190.64 215.63 214.36 215.63 201.62 191.06"/><path class="cls-6" d="M190.31,263.79c-5.48,.1-8.9-.46-8.99-.47-.57-.1-.98-.81-.91-1.59,.07-.78,.56-1.34,1.15-1.24,.23,.04,22.9,3.67,45.46-9.95,.53-.31,1.14,.01,1.38,.74,.23,.72,0,1.56-.53,1.88-14.29,8.63-28.64,10.48-37.55,10.63Z"/><path class="cls-5" d="M190.64,298.12l-31.62,48.42s23.71-8.34,31.62,7.03c0,0,2.63-52.06,0-55.45Z"/><path class="cls-5" d="M220.53,298.93l31.62,48.42s-23.71-8.34-31.62,7.03c0,0-2.63-52.06,0-55.45Z"/><path class="cls-2" d="M260.66,467.14l-15.06,13.25s-9.28,10.11-1.54,20.73c10.27,14.08,23.18,5.05,23.18,5.05l17.81-13.99-24.39-25.03Z"/><polygon class="cls-5" points="125.88 479.93 129.28 360.17 120.41 479.93 125.88 479.93"/></svg>