<?xml version="1.0" encoding="UTF-8"?><svg id="Layer_1" xmlns="http://www.w3.org/2000/svg" viewBox="0 0 432 852"><defs><style>.cls-1{fill:#e5b385;}.cls-2{fill:#fbca9c;}.cls-3{fill:#161616;}.cls-4{fill:#1e1e1e;}.cls-5{fill:#234e75;}.cls-6{fill:#141414;}.cls-7{fill:#1d425e;}.cls-8{fill:#27517d;}.cls-9{fill:#2d2a27;}.cls-10{fill:#282828;}.cls-11{fill:#515e66;}</style></defs><path class="cls-2" d="M303.95,483.23l-.11,4.92-.8,21.31s-2.09,14.45-16.05,15.2c-18.49,.99-19.73-15.73-19.73-15.73l-.42-23.12,37.11-2.58Z"/><path class="cls-2" d="M107.54,484.9l.11,4.92,.8,21.31s2.1,14.45,16.05,15.2c18.49,.99,19.73-15.73,19.73-15.73l.42-23.12-37.11-2.58Z"/><polygon class="cls-4" points="150.74 503.97 138.13 796.11 189.65 801.01 201.37 578.24 211.89 578.24 231.22 801.01 278.06 797.87 264.08 503.97 150.74 503.97"/><polygon class="cls-11" points="164.92 337.59 182.63 327.16 228.66 327.16 244.98 343.7 255.41 514.5 149.84 514.5 164.92 337.59"/><polygon class="cls-4" points="202.62 344.43 192.88 491.38 221.66 491.38 208.1 344.43 202.62 344.43"/><path class="cls-2" d="M193.17,296.12v40.69s.08,9.37,13.07,9.37,11.89-9.07,11.89-9.07l.02-40.98h-24.98Z"/><path class="cls-1" d="M212.55,306.21c1.87-.01,3.73-.07,5.59-.15v-9.93h-24.97v9.16c6.46,.24,12.92,.96,19.38,.92Z"/><path class="cls-4" d="M111.2,225.28s-7.61-80.79,2.34-96.6c9.95-15.81,122.36-87.82,175.06-87.82l-5.86,14.64,20.49-10.54v14.64l15.22-9.02-4.69,16.05,14.05-7.61s-9.37,118.71-29.86,158.59l-186.76,7.68Z"/><path class="cls-10" d="M313.77,66.62l4.69-16.05-15.22,9.02v-14.64l-20.49,10.54,5.65-14.13c-16.99,5.7-33.52,10.55-47.16,23.8-13.76,13.37-25.35,30.11-33.42,47.51-4.64,10-8.58,20.49-10.64,31.35-2.12,11.18-.35,21.59-.09,32.79,.26,10.74-1.08,22.79,1.8,33.23,.98,3.57,3.05,7.49,4.8,11.43l29.55-1.21c-1.6-13.6-4.48-27.01-1.14-40.78,1.47-6.05,3.54-12.48,7.63-17.34,5.33-6.33,12.51-8.92,19.91-12.25,18.93-8.53,37.81-18.45,50.16-35.81,6.05-8.5,10.67-17.84,13.73-27.84,.75-2.47,1.61-5.06,2.45-7.69,1.22-11.96,1.82-19.54,1.82-19.54l-14.05,7.61Z"/><path class="cls-2" d="M124.08,172.43s-1.17,99.11,0,109.06c1.17,9.95,.59,16.02,22.25,18.84,21.66,2.82,121.19,6.92,134.07-3.03,10.6-8.2,8.85-92.44-.58-134.16-2.03-8.97-6.98-15.96-9.37-19.82-6.51-10.54-49.18-14.83-63.23,13.66h-5.85s-19.32-27.82-40.4-21.91c-21.08,5.91-36.67,16.71-36.88,37.36Z"/><path class="cls-2" d="M140.47,223.52c0,10.02-8.13,18.15-18.15,18.15s-18.15-8.13-18.15-18.15,8.12-18.15,18.15-18.15,18.15,8.13,18.15,18.15Z"/><path class="cls-2" d="M305.79,223.52c0,10.02-8.12,18.15-18.15,18.15s-18.15-8.13-18.15-18.15,8.12-18.15,18.15-18.15,18.15,8.13,18.15,18.15Z"/><path class="cls-10" d="M201.36,156.98s10.25,25.27,35.71,15.61c0,0-20.5,.58-29.86-15.61,0,0-4.68-3.9-5.85,0Z"/><path class="cls-10" d="M202.24,156.34s-6.88,11.13,1.76,20.35c8.64,9.22,17.56,3.37,17.56,3.37,0,0-11.24,.95-15.37-8.34-3.51-7.9,0-12,0-12l-3.95-3.37Z"/><circle class="cls-9" cx="156.14" cy="206.24" r="9.22"/><circle class="cls-9" cx="252.76" cy="206.24" r="9.22"/><path class="cls-1" d="M220.24,234.56c0,5.13-4.16,9.28-9.28,9.28h-14.37c-5.13,0-9.28-4.15-9.28-9.28h0c0-5.13,4.16-9.28,9.28-9.28h14.37c5.13,0,9.28,4.15,9.28,9.28h0Z"/><path class="cls-9" d="M185.43,276.13c-7.66-.86-12.35-2.12-12.48-2.15-.78-.21-1.24-1.11-1.03-2.01,.22-.89,.99-1.46,1.8-1.24,.31,.09,31.39,8.35,65.01-3.44,.78-.27,1.58,.22,1.8,1.1,.21,.88-.24,1.81-1.03,2.09-21.3,7.47-41.61,7.06-54.07,5.65Z"/><g><path class="cls-8" d="M145.16,337.11l-8.78-12.88s-20.2-.87-22.25,12.88c-2.05,13.76-9.37,154.85-9.37,154.85l33.67,3.03,6.73-157.88Z"/><path class="cls-5" d="M126.09,493.88l12.34,1.11,2.34-151.47c-11.53,24.71-14.68,150.36-14.68,150.36Z"/><path class="cls-8" d="M136.38,324.23l-6.44,168.61s-6.15,56.79,15.66,56.2c21.81-.58,25.32-10.93,25.32-54.06s11.71-167.83,11.71-167.83l-46.25-2.93Z"/><polygon class="cls-7" points="182.63 327.16 155.88 372.24 173.55 374.22 147.21 447.17 172.8 449.8 182.63 327.16"/></g><g><path class="cls-8" d="M266.13,337.11l8.78-12.88s20.2-.87,22.25,12.88c2.05,13.76,9.37,154.85,9.37,154.85l-33.67,3.03-6.73-157.88Z"/><path class="cls-5" d="M285.4,493.88l-12.34,1.11-2.34-151.47c11.53,24.71,14.68,150.36,14.68,150.36Z"/><path class="cls-8" d="M274.91,324.23l6.44,168.61s6.15,56.79-15.66,56.2c-21.81-.58-25.32-10.93-25.32-54.06s-11.71-167.83-11.71-167.83l46.25-2.93Z"/><polygon class="cls-7" points="228.66 327.16 255.41 372.24 237.73 374.22 264.08 447.17 238.49 449.8 228.66 327.16"/></g><path class="cls-6" d="M122.21,808.94l67.62,2.2s6.59-29.42-19.76-38.2c-27.01-9.01-52.25,13.17-47.86,36.01Z"/><path class="cls-6" d="M289.33,808.94l-67.62,2.2s-6.59-29.42,19.76-38.2c27.01-9.01,52.25,13.17,47.86,36.01Z"/><path class="cls-3" d="M202.85,578.26c-9.72,0-14.61-7.75-14.81-8.08-.51-.82-.25-1.9,.57-2.41,.82-.51,1.9-.26,2.42,.56,.16,.26,4.11,6.42,11.83,6.42h11.2c-.09-.02,7.43-1.51,11.02-6.51,.56-.79,1.65-.97,2.45-.4,.79,.57,.97,1.66,.4,2.45-4.46,6.21-13.18,7.88-13.55,7.94l-11.52,.03Z"/></svg>