<?xml version="1.0" encoding="UTF-8"?><svg id="Layer_1" xmlns="http://www.w3.org/2000/svg" viewBox="0 0 432 852"><defs><style>.cls-1{fill:#eaba94;}.cls-2{fill:#eabd98;}.cls-3{fill:#fbca9c;}.cls-4{fill:#b79251;}.cls-5{fill:#252625;}.cls-6{fill:#1e1e1e;}.cls-7{fill:#141414;}.cls-8{fill:#487c33;}.cls-9{fill:#396326;}.cls-10{fill:#353029;}.cls-11{fill:#35271c;}</style></defs><path class="cls-7" d="M265.35,771.44s14.68,9.74,33.3,12.6c18.62,2.86,14.32,23.5,2.87,26.07-11.46,2.57-92.91,2.85-96.15-4.32-3.24-7.16,4.48-25.34,4.48-25.34l55.5-9.02Z"/><path class="cls-7" d="M112.93,771.18s-14.04,9.31-31.85,12.05c-17.81,2.74-13.7,22.48-2.74,24.94,10.96,2.46,88.88,2.73,91.97-4.12,3.1-6.85-4.29-24.24-4.29-24.24l-53.09-8.63Z"/><path class="cls-3" d="M282.6,258.27l-2.9-4.08-28.12-41.9s-7.04-13.06,3.9-22.12c14.5-12,25.62,.89,25.62,.89l30.22,42.64-28.72,24.57Z"/><path class="cls-1" d="M282.6,258.27l-2.9-4.08-28.12-41.9s-7.04-13.06,3.9-22.12c14.5-12,25.62,.89,25.62,.89l30.22,42.64-28.72,24.57Z"/><path class="cls-3" d="M132.55,479.63l-.24,5-1.37,21.63s-2.51,14.62-16.7,15.02c-18.81,.53-19.63-16.49-19.63-16.49l.17-23.5,37.77-1.66Z"/><polygon class="cls-5" points="122.15 502.72 112.93 771.18 167.16 782.72 179.03 561.96 188.86 561.96 208.95 782.72 267.41 772.7 250.69 505.57 122.15 502.72"/><path class="cls-8" d="M238.94,319.15l14.88-5.95s44.62,1.57,52.95-2.49c8.33-4.06,5.35-9.91,0-17.1-5.35-7.19-35.21-49.69-35.21-49.69l32.39-26.77s41.5,60.7,50.72,76.47c9.22,15.77,16.47,35.87-9.82,49.65-18.15,9.51-105.91,9.51-105.91,9.51v-33.62Z"/><path class="cls-8" d="M129.76,336.41l-10.11-23.2s-15.17,2.27-18.15,9.47c-2.97,7.19-10.11,163.67-10.11,163.67l42.24,2.97-3.87-152.91Z"/><path class="cls-9" d="M129.76,336.41l-3.75-8.6c-4.01,9.6-7.68,19.25-8.86,29.82-1.77,15.87-2.11,32.01-2.13,47.97-.03,27.48,.5,54.96,.68,82.45l17.93,1.26-3.87-152.91Z"/><polygon class="cls-8" points="119.65 313.2 190.75 307.85 253.82 313.2 253.82 510.14 119.65 512.22 119.65 313.2"/><polygon class="cls-9" points="173.49 309.15 170.52 352.77 191.05 327.03 211.87 352.77 208.6 309.36 173.49 309.15"/><rect class="cls-9" x="190.3" y="321.24" width="2.37" height="189.9"/><path class="cls-3" d="M208.6,276.38h-35.1l.27,35.1c.97,8.73,8.29,15.55,17.28,15.55s16.31-6.81,17.28-15.55l.27-35.1Z"/><path class="cls-2" d="M193.14,298.8c5.55-.16,10.19-1.58,15.31-3.03l.15-19.39h-35.1l.15,19.29c6.19,2.75,12.69,3.33,19.5,3.12Z"/><path class="cls-11" d="M102.99,187.48V121.44s-13.39,6.69-16.06,13.39c0,0-3.12-17.85,19.19-42.39l-29.01,10.71s20.97-32.13,49.53-37.93l-17.4-4.91s14.73-7.58,32.57-5.8l-13.83-14.28s33.91,3.12,49.53,10.26c15.62,7.14,19.63,10.26,19.63,10.26,0,0,25.88-12.05,57.56,.45,31.68,12.49,45.96,50.88,45.52,66.94-.45,16.06-5.35,63.48-5.35,63.48l-191.88-4.14Z"/><path class="cls-3" d="M119.95,120.1s-2.23,95.94-2.23,108.88,.46,58.9,70.95,65.15c70.5,6.25,78.53-47.75,81.21-64.26,2.68-16.51,2.68-104.42,2.68-104.42,0,0-126.39-12.49-152.61-5.35Z"/><path class="cls-3" d="M133.04,198.64c0,11.5-9.32,20.83-20.82,20.83s-20.82-9.32-20.82-20.83,9.32-20.82,20.82-20.82,20.82,9.32,20.82,20.82Z"/><path class="cls-3" d="M300.23,198.64c0,11.5-9.32,20.83-20.82,20.83s-20.82-9.32-20.82-20.83,9.32-20.82,20.82-20.82,20.82,9.32,20.82,20.82Z"/><polygon class="cls-1" points="188.67 181.1 173.49 223.88 202.05 223.88 188.67 181.1"/><rect class="cls-4" x="214.99" y="371.33" width="32.13" height="9.37"/><path class="cls-10" d="M150.27,181.06c-7.73,0-14.76-1.4-15.21-1.5-.97-.2-1.59-1.14-1.39-2.1,.2-.97,1.14-1.58,2.1-1.39,.16,.03,15.73,3.14,25.27,.05,.95-.3,1.94,.21,2.25,1.15,.3,.94-.21,1.94-1.15,2.25-3.59,1.16-7.83,1.54-11.88,1.54Z"/><path class="cls-10" d="M240.7,181.06c-7.73,0-14.76-1.4-15.21-1.5-.97-.2-1.59-1.14-1.39-2.1,.2-.97,1.14-1.58,2.1-1.39,.16,.03,15.73,3.14,25.27,.05,.95-.3,1.94,.21,2.25,1.15,.3,.94-.21,1.94-1.15,2.25-3.59,1.16-7.83,1.54-11.88,1.54Z"/><path class="cls-10" d="M154.64,154.38c-5.03,0-8.97-1.43-11.74-4.24-4.01-4.09-3.92-9.58-3.92-9.81,.02-.98,.77-1.74,1.83-1.74,.98,.03,1.76,.84,1.74,1.82,0,.12,0,4.3,2.92,7.26,2.08,2.11,5.18,3.22,9.26,3.15,4.09-.02,7.16-1.1,9.12-3.22,2.72-2.94,2.5-7.04,2.5-7.08-.07-.98,.67-1.84,1.65-1.91,1.01-.07,1.84,.67,1.91,1.65,.02,.23,.37,5.66-3.44,9.77-2.66,2.88-6.61,4.35-11.72,4.37h-.12Z"/><path class="cls-10" d="M234.37,154.38c-5.03,0-8.97-1.43-11.74-4.24-4.01-4.09-3.92-9.58-3.92-9.81,.02-.98,.77-1.74,1.83-1.74,.98,.03,1.76,.84,1.74,1.82,0,.12,0,4.3,2.92,7.26,2.09,2.11,5.18,3.22,9.26,3.15,4.09-.02,7.16-1.1,9.12-3.22,2.72-2.94,2.5-7.04,2.5-7.08-.07-.98,.67-1.84,1.65-1.91,1.01-.07,1.84,.67,1.91,1.65,.02,.23,.37,5.66-3.44,9.77-2.66,2.88-6.61,4.35-11.72,4.37h-.12Z"/><path class="cls-10" d="M155.46,254.95c-.86-.19-1.42-1.06-1.27-2,.16-.97,1.02-1.65,1.93-1.51,.56,.09,56.68,8.39,79-12.7,.7-.66,1.76-.61,2.37,.11,.6,.73,.52,1.86-.18,2.52-23.52,22.22-79.39,13.95-81.75,13.58-.03,0-.07,0-.1-.01Z"/><path class="cls-6" d="M188.13,561.56c-1.11,0-2.26,0-3.43-.02l-3.7-.02c-8.79,0-14.97-1.78-15.23-1.86-.94-.27-1.49-1.27-1.21-2.21,.28-.94,1.27-1.49,2.22-1.21,.06,.02,5.98,1.71,14.22,1.71l3.72,.02c6.92,.06,12.87,.1,16.3-1.62,.89-.44,1.95-.08,2.4,.8,.44,.88,.08,1.96-.8,2.39-3.53,1.77-8.59,2.01-14.49,2.01Z"/></svg>