<?xml version="1.0" encoding="UTF-8"?><svg id="Layer_1" xmlns="http://www.w3.org/2000/svg" viewBox="0 0 432 852"><defs><style>.cls-1{fill:#f2bf8c;}.cls-2{fill:#edbb8e;}.cls-3{fill:#e5ab4c;}.cls-4{fill:#fbca9c;}.cls-5{fill:#d89e4a;}.cls-6{fill:#252625;}.cls-7{fill:#1e1e1e;}.cls-8{fill:#353029;}.cls-9{fill:#4c392c;}.cls-10{fill:#472c5e;}.cls-11{fill:#503068;}</style></defs><path class="cls-4" d="M172.44,490.71l-.24,5-1.37,21.63s-2.51,14.62-16.7,15.02c-18.81,.53-19.63-16.49-19.63-16.49l.17-23.5,37.77-1.66Z"/><path class="cls-4" d="M259.64,490.71l.23,5,1.37,21.63s2.51,14.62,16.7,15.02c18.81,.53,19.63-16.49,19.63-16.49l-.17-23.5-37.76-1.66Z"/><polygon class="cls-6" points="179.58 519.88 156.16 532.37 156.16 797.13 205.66 797.13 214.59 581.16 227.91 580.56 246.74 797.13 296.42 797.13 284.52 532.37 273.21 525.23 179.58 519.88"/><path class="cls-11" d="M164.33,344.96l-10.86-10.71s-12.94,1.78-18.29,13.09c-5.35,11.3-8.03,150.23-8.03,150.23l34.21-2.09,2.98-150.53Z"/><path class="cls-10" d="M154.1,378.75c-.84,14.31-2.93,93.29-3.08,117.51l10.34-.78,2.98-150.53-3.19-3.14c-4.98,9.85-6.34,24.92-7.04,36.93Z"/><path class="cls-11" d="M265.93,341.59l10.86-10.71s12.94,1.78,18.3,13.09c5.35,11.31,8.03,150.23,8.03,150.23l-34.21-2.08-2.98-150.53Z"/><path class="cls-10" d="M281.99,394.93c.84,14.31,3.12,73.97,3.28,98.2l-10.34-.78-2.98-150.53s9.34,41.1,10.04,53.1Z"/><g><path class="cls-4" d="M200.52,305.3v38.08s0,14.3,17.25,14.28c14.88-.01,13.68-15.47,13.68-15.47l.02-36.89h-30.96Z"/><path class="cls-1" d="M200.67,317.29c4.52,2.79,11.16,1.28,16.21,1.13,5.15-.16,9.88-1.15,14.59-2.69v-10.43h-30.95v11.94s.1,.02,.15,.05Z"/></g><path class="cls-7" d="M135.97,227.49s-32.12-47.34-29.75-101.48c2.38-54.14,44.62-93.41,118.4-91.63,73.78,1.79,103.53,56.8,101.15,96.53-2.38,39.72-33.91,96.58-33.91,96.58H135.97Z"/><path class="cls-4" d="M253.57,146.08c-26.5-2.81-36.93,21.54-36.93,21.54,0,0-13.19-25.02-41.28-19.8-28.1,5.22-32.18,33.18-32.18,33.18v84.23c0,18.84,31.64,51.04,70.67,51.04s70.67-32.19,70.67-51.04c0,0-.09-67.64,0-81.02,.08-13.38-4.46-35.32-30.95-38.13Z"/><path class="cls-4" d="M156.16,230.23c0,9.9-8.03,17.93-17.93,17.93s-17.93-8.03-17.93-17.93,8.03-17.92,17.93-17.92,17.93,8.03,17.93,17.92Z"/><path class="cls-4" d="M305.66,230.23c0,9.9-8.03,17.93-17.93,17.93s-17.93-8.03-17.93-17.93,8.03-17.92,17.93-17.92,17.93,8.03,17.93,17.92Z"/><path class="cls-8" d="M185.56,209.12c0,6.89-5.58,12.47-12.47,12.47s-12.48-5.58-12.48-12.47,5.59-12.47,12.48-12.47,12.47,5.59,12.47,12.47Z"/><path class="cls-8" d="M265.35,209.12c0,6.89-5.58,12.47-12.47,12.47s-12.47-5.58-12.47-12.47,5.58-12.47,12.47-12.47,12.47,5.59,12.47,12.47Z"/><path class="cls-8" d="M252.97,176.04c2.99-.78,5.94-.65,8.84,.39,8.9,3.21,13.92,13.95,14.13,14.41,.37,.81,.01,1.76-.79,2.13-.82,.36-1.76,.02-2.13-.79-.04-.1-4.68-9.99-12.31-12.73-3.11-1.11-6.35-.87-9.66,.71-.8,.38-1.75,.05-2.14-.75-.39-.8-.05-1.76,.75-2.14,1.11-.53,2.21-.94,3.31-1.23Z"/><path class="cls-8" d="M175.38,177.14c-2.88-1.1-5.84-1.3-8.83-.59-9.21,2.2-15.38,12.33-15.64,12.76-.46,.76-.21,1.74,.55,2.2,.77,.44,1.75,.21,2.21-.55,.05-.09,5.75-9.41,13.64-11.29,3.21-.76,6.41-.17,9.51,1.78,.76,.47,1.74,.24,2.21-.51,.47-.75,.25-1.74-.51-2.22-1.04-.65-2.09-1.18-3.15-1.59Z"/><path class="cls-2" d="M239.3,244.43c0,5.25-4.25,9.5-9.5,9.5h-27.6c-5.24,0-9.5-4.25-9.5-9.5h0c0-5.25,4.25-9.5,9.5-9.5h27.6c5.24,0,9.5,4.25,9.5,9.5h0Z"/><path class="cls-8" d="M216.84,292.66c-23.31,0-33.79-15.31-34.23-15.97-.54-.82-.32-1.92,.5-2.47,.82-.55,1.92-.33,2.47,.49,.4,.59,10.21,14.65,31.74,14.38,21.48-.21,28.65-15.68,28.95-16.34,.4-.9,1.46-1.3,2.35-.91,.9,.4,1.31,1.45,.91,2.35-.33,.75-8.32,18.23-32.18,18.47-.17,0-.35,0-.52,0Z"/><path class="cls-11" d="M153.47,334.25l2.69,198.13h128.36l-7.44-201.6s-84.78-6.34-123.6,3.47Z"/><path class="cls-3" d="M190.97,337.34c0,4.96-4.02,8.98-8.98,8.98s-8.98-4.02-8.98-8.98,4.02-8.98,8.98-8.98,8.98,4.02,8.98,8.98Z"/><path class="cls-3" d="M191.29,353.99c0,4.96-4.02,8.98-8.98,8.98s-8.98-4.02-8.98-8.98,4.02-8.98,8.98-8.98,8.98,4.02,8.98,8.98Z"/><path class="cls-3" d="M197.54,369.76c0,4.96-4.02,8.98-8.98,8.98s-8.98-4.02-8.98-8.98,4.02-8.98,8.98-8.98,8.98,4.02,8.98,8.98Z"/><path class="cls-3" d="M248.71,369.76c0,4.96-4.02,8.98-8.98,8.98s-8.98-4.02-8.98-8.98,4.02-8.98,8.98-8.98,8.98,4.02,8.98,8.98Z"/><path class="cls-3" d="M255.55,353.99c0,4.96-4.02,8.98-8.98,8.98s-8.98-4.02-8.98-8.98,4.02-8.98,8.98-8.98,8.98,4.02,8.98,8.98Z"/><path class="cls-3" d="M255.55,337.34c0,4.96-4.02,8.98-8.98,8.98s-8.98-4.02-8.98-8.98,4.02-8.98,8.98-8.98,8.98,4.02,8.98,8.98Z"/><rect class="cls-3" x="177.87" y="377.7" width="72.44" height="44.48"/><path class="cls-5" d="M209.23,400.51c0,5.71-4.63,10.34-10.34,10.34s-10.34-4.63-10.34-10.34,4.63-10.34,10.34-10.34,10.34,4.63,10.34,10.34Z"/><circle class="cls-5" cx="228.5" cy="400.51" r="10.34"/><path class="cls-9" d="M139.45,817.68h78s-.8-37.06-35.2-40.19c-34.4-3.12-42.8,40.19-42.8,40.19Z"/><path class="cls-9" d="M308.8,817.68h-78s.8-37.06,35.2-40.19c34.4-3.12,42.8,40.19,42.8,40.19Z"/><path class="cls-7" d="M225.29,580.57c-1.12,0-2.26-.01-3.43-.02l-3.7-.02c-8.79,0-14.97-1.78-15.23-1.86-.94-.28-1.48-1.27-1.21-2.21,.28-.95,1.27-1.49,2.22-1.21,.05,.02,5.98,1.71,14.22,1.71l3.72,.02c6.92,.05,12.87,.1,16.3-1.62,.89-.44,1.95-.08,2.4,.8,.44,.88,.08,1.95-.8,2.39-3.53,1.76-8.59,2.01-14.49,2.01Z"/></svg>