<?xml version="1.0" encoding="UTF-8"?><svg id="Layer_1" xmlns="http://www.w3.org/2000/svg" viewBox="0 0 432 852"><defs><style>.cls-1{fill:#6b282b;}.cls-2{fill:#f2bf8c;}.cls-3{fill:#fbca9c;}.cls-4{fill:#333130;}.cls-5{fill:#252625;}.cls-6{fill:#1e1e1e;}.cls-7{fill:#6dc1b5;}.cls-8{fill:#2a3d4b;}.cls-9{fill:#4c392c;}</style></defs><path class="cls-9" d="M165.65,259.69s-33.57-9.68-46.65-33.81c-13.08-24.13-11.58-42.79-11.58-42.79l-13.89,6.73s5.46-15.32,16.57-25.83c0,0-13.97-.59-16.77,.8l11.82-13.54-22.93-1.84s22.64-7.84,24.16-20.06c0,0-8.83,3.05-21.71-10.33,0,0,15.42,1.78,21.67-2.55l-15.22-10.88s12.8,1.03,19.34-7.03c6.56-8.06,9.75-27.66,19.02-29.59,9.28-1.93,14.68,4.4,14.68,4.4,0,0,6.54-27.92,39.43-36.54,32.89-8.63,84.65-5,112.36,37.48,27.71,42.48,44.18,117.86-17.84,175.12l-112.45,10.27Z"/><path class="cls-3" d="M133.94,398.52l-4.99,153s4.24,11.63,14.84,12.07c14.86,.61,17.69-15.1,17.69-15.1l2.54-158.6-30.07,8.63Z"/><path class="cls-3" d="M311.78,398.52l4.99,153s-4.24,11.63-14.84,12.07c-14.86,.61-17.69-15.1-17.69-15.1l-2.54-158.6,30.07,8.63Z"/><path class="cls-9" d="M303.92,778.77s14.63,9.7,33.19,12.56c18.56,2.86,14.27,23.43,2.86,25.99-11.42,2.56-92.61,2.83-95.84-4.3-3.22-7.14,4.47-25.26,4.47-25.26l55.32-8.99Z"/><path class="cls-9" d="M151.99,778.51s-13.99,9.28-31.75,12.01c-17.75,2.73-13.66,22.4-2.73,24.86,10.92,2.45,88.59,2.72,91.67-4.12,3.09-6.82-4.27-24.15-4.27-24.15l-52.92-8.6Z"/><polygon class="cls-5" points="162.06 513.21 151.99 778.51 206.05 790.01 217.87 569.97 227.68 569.97 247.7 790.01 305.97 780.03 288.84 512.02 162.06 513.21"/><path class="cls-6" d="M226.95,569.58c-1.11,0-2.25,0-3.42-.01l-3.69-.02c-8.75,0-14.92-1.77-15.18-1.85-.94-.28-1.48-1.27-1.21-2.21,.28-.94,1.27-1.49,2.21-1.21,.05,.02,5.96,1.71,14.17,1.71l3.71,.02c6.9,.05,12.83,.1,16.25-1.61,.88-.44,1.95-.08,2.39,.8,.44,.88,.08,1.95-.8,2.38-3.52,1.76-8.56,2-14.44,2Z"/><path class="cls-7" d="M152.65,315.77s40.62-10.22,63.45-12c22.83-1.78,77.09,12,77.09,12,0,0,16.61,3.12,20.01,38.85l3.56,46.56s-16.9,4.45-33.36,3.11l5.78,114.75h-127.2l1.33-112.08-36.47-2.22s-3.99-82.26,25.8-88.97Z"/><path class="cls-8" d="M215.17,326.76c7.41-.33,19.37,.23,23.5-7.62,2.27-4.32,2.6-9.04,2.63-13.79-9.63-1.34-18.68-2.1-25.19-1.59-6.87,.53-15.36,1.84-23.86,3.4,2,11.44,9.81,20.19,22.92,19.6Z"/><path class="cls-3" d="M200.09,264.91v44.04s1.97,9.86,16.01,10.1c15.34,.27,16.01-10.1,16.01-10.1v-44.04h-32.02Z"/><path class="cls-2" d="M220.8,282.89c3.83-.19,7.57-.9,11.31-1.65v-16.32h-32.02v16.3c6.91,.44,13.66,2.01,20.71,1.67Z"/><polygon class="cls-8" points="221.72 360.9 236.1 390.03 268.24 394.7 244.98 417.37 250.47 449.39 221.72 434.28 192.97 449.39 198.46 417.37 175.2 394.7 207.35 390.03 221.72 360.9"/><path class="cls-3" d="M140.33,178.32s-5.49,35.27,1.95,55.04c7.44,19.77,24.17,48.14,75.59,46.9,51.42-1.24,65.71-28.75,69.76-49.11,4.05-20.36,4.23-52.54,4.23-52.54l-19.03-14.22s2.98,16.84-1.74,22.21c0,0-14.93-30.14-28.95-32.88,0,0,5.8,24.89,3.01,30.8l-51.58-60.5-9.06,17.79-9.91-13.35s-21.27,48.5-34.26,49.87Z"/><path class="cls-3" d="M304,191.08c0,7.12-5.77,12.9-12.9,12.9s-12.89-5.78-12.89-12.9,5.77-12.9,12.89-12.9,12.9,5.78,12.9,12.9Z"/><path class="cls-3" d="M151.44,191.08c0,7.12-5.77,12.9-12.9,12.9s-12.89-5.78-12.89-12.9,5.77-12.9,12.89-12.9,12.9,5.78,12.9,12.9Z"/><path class="cls-4" d="M179.99,185.74c0,6.63-5.38,12.01-12.01,12.01s-12.01-5.38-12.01-12.01,5.38-12.01,12.01-12.01,12.01,5.38,12.01,12.01Z"/><polygon class="cls-2" points="206.96 191.51 223.48 191.51 229.49 216.42 200.73 216.42 206.96 191.51"/><path class="cls-4" d="M153.1,170.41c-.71-.1-1.32-.63-1.49-1.39-.21-.96,.4-1.9,1.36-2.11l21.32-4.59c.97-.21,1.91,.4,2.11,1.36,.21,.96-.4,1.91-1.36,2.11l-21.32,4.6c-.21,.04-.43,.05-.63,.02Z"/><path class="cls-4" d="M273.44,180.09c-.35,2.65-1.05,5.03-2.36,6.51,0,0-2.95-5.95-7.45-12.8-.24-.01-.48-.07-.72-.07-6.63,0-12.01,5.38-12.01,12.01s5.38,12.01,12.01,12.01,12.01-5.38,12.01-12.01c0-2.05-.56-3.96-1.47-5.65Z"/><path class="cls-1" d="M215.21,259.27c-18.64,0-32.03-10.86-32.23-11.03-.75-.62-.85-1.73-.23-2.47,.62-.75,1.73-.84,2.47-.23,1.14,.94,28.29,22.85,58.97-.06,.77-.58,1.88-.43,2.46,.36,.58,.78,.42,1.88-.36,2.46-11.01,8.23-21.71,10.97-31.08,10.97Z"/></svg>