<?xml version="1.0" encoding="UTF-8"?><svg id="Layer_1" xmlns="http://www.w3.org/2000/svg" viewBox="0 0 432 852"><defs><style>.cls-1{fill:#696277;}.cls-2{fill:#ead2b5;}.cls-3{fill:#f2bf8c;}.cls-4{fill:#ffcc94;}.cls-5{fill:#fbe4c6;}.cls-6{fill:#1e1e1e;}.cls-7{fill:#20303a;}.cls-8{fill:#543728;}.cls-9{fill:#554f4b;}.cls-10{fill:#2a3d4c;}.cls-11{fill:#302c28;}.cls-12{fill:#5b3b29;}</style></defs><path class="cls-10" d="M152.1,524.39l-16.13,275.86h58.21l19.54-232.2h12.1l32.11,232.2h54.88l-28.78-252.46-3.79-32.58s-102.89,1-128.12,9.18Z"/><rect class="cls-8" x="152.1" y="507.63" width="128.12" height="15.15"/><polygon class="cls-5" points="172.98 299.47 260.3 294.4 270.26 303.27 273.9 513 161.12 513 166.66 304.21 172.98 299.47"/><path class="cls-1" d="M176.46,299.27s-36.08-4.86-37.68-4.87c-1.6,0-4.24,.94-4,5.78,.24,4.84,6.88,8.78,6.88,8.78,0,0-8.54-5.22-13.76,0-5.22,5.22-66.9,112.46-65.96,122.9,.95,10.44,45.55,65.48,45.55,65.48l28.47-38.91s-31.32-27.86-30.84-33.15c.47-5.29,29.42-55.11,29.42-55.11l-8.07,170.35s.48,30.37,19.46,41.28c18.98,10.91,18.82-2.85,18.82-2.85l11.7-279.69Z"/><path class="cls-1" d="M255.54,294.8s36.08-4.87,37.68-4.87c1.6,0,4.24,.94,4,5.78-.24,4.85-6.88,8.78-6.88,8.78,0,0,8.54-5.22,13.76,0,5.22,5.22,66.91,112.46,65.96,122.9-.95,10.44-45.55,65.48-45.55,65.48l-28.47-38.91s31.32-27.86,30.84-33.15c-.47-5.29-29.42-55.11-29.42-55.11l8.07,170.35s-.47,30.37-19.45,41.28c-18.98,10.91-18.82-2.85-18.82-2.85l-11.71-279.69Z"/><polygon class="cls-9" points="217.51 319.72 197.66 513 239.26 513 221.34 319.72 217.51 319.72"/><polygon class="cls-2" points="198.61 297.98 186.9 332.69 218.38 323.76 245.74 334.58 241.81 295.47 198.61 297.98"/><path class="cls-4" d="M198.61,263.72v49.66s5.14,11.39,21.55,10.13c16.41-1.27,21.16-11.08,21.16-11.08l1.27-43.34-43.97-5.38Z"/><path class="cls-3" d="M223.28,283.36c6.75-.11,12.9-1.61,18.99-3.71l.31-10.55-43.97-5.38v14.7c8.25,2.57,15.68,5.09,24.68,4.94Z"/><path class="cls-12" d="M128.38,183.37s-15.28-57.61-12.81-69.92c3.32-16.61,16.61-17.89,20.4-14.16,0,0,43.66-44.36,80.98-62.71,37.33-18.35,86.68-18.35,101.86,0,15.18,18.35,14.55,67.64-5.38,89.29,0,0,18.66-1.35,2.85,57.49H128.38Z"/><path class="cls-4" d="M138.79,125.88l160.42,3.71s18.35,142.36-58.84,147.42c-77.19,5.06-94.27-24.68-97.43-62.64-3.17-37.96-4.14-88.49-4.14-88.49Z"/><path class="cls-12" d="M207.65,274.54s-1.45,13.22,1.39,18.13c.96,1.65,16.94,3.2,20.21-.82,3.26-4.02,1.51-17.31,1.51-17.31,0,0-14.74,1.76-23.1,0Z"/><path class="cls-12" d="M208.17,273.84c-7.58-.2-16.02,.16-23.79-1.46,13.77,4.38,31.94,6.2,55.99,4.63,6.79-.44,12.68-1.77,17.95-4.01-5.1,1.07-38.48,1.15-50.15,.85Z"/><path class="cls-4" d="M155.02,187.41c0,8.97-7.27,16.24-16.24,16.24s-16.24-7.27-16.24-16.24,7.27-16.24,16.24-16.24,16.24,7.27,16.24,16.24Z"/><path class="cls-4" d="M316.36,187.41c0,8.97-7.27,16.24-16.24,16.24s-16.24-7.27-16.24-16.24,7.27-16.24,16.24-16.24,16.24,7.27,16.24,16.24Z"/><path class="cls-3" d="M201.45,186.4c5.38-4.61,33.53-3.3,37.48,0,3.96,3.3,9.65,23.23,6.64,27.18-3.01,3.96-49.51,4.9-51.25,0-1.74-4.9,1.74-22.57,7.12-27.18Z"/><path class="cls-11" d="M172.66,242.21c-.97,0-1.8-.75-1.89-1.73-.09-1.04,.68-1.96,1.73-2.05,.33-.03,32.96-2.89,49.36-7.22,5.03-1.33,10.36-3.25,16.01-5.28,13.17-4.74,26.77-9.65,39.12-8.05,1.04,.13,1.77,1.09,1.64,2.13-.13,1.04-1.09,1.75-2.13,1.64-11.42-1.48-24.6,3.27-37.34,7.86-5.73,2.06-11.14,4.01-16.32,5.38-16.72,4.42-48.65,7.22-50.01,7.33-.05,0-.11,0-.16,0Z"/><path class="cls-11" d="M188.17,168.19c0,6.46-5.24,11.7-11.7,11.7s-11.7-5.24-11.7-11.7,5.24-11.71,11.7-11.71,11.7,5.24,11.7,11.71Z"/><path class="cls-11" d="M276.11,168.19c0,6.46-5.24,11.7-11.7,11.7s-11.71-5.24-11.71-11.7,5.24-11.71,11.71-11.71,11.7,5.24,11.7,11.71Z"/><path class="cls-11" d="M154.95,160.28c-1.02,0-1.86-.81-1.89-1.84-.03-1.05,.79-1.92,1.84-1.96,.19,0,18.52-.78,21.63-13.73,.24-1.02,1.28-1.64,2.28-1.4,1.02,.24,1.65,1.27,1.41,2.29-3.78,15.78-24.32,16.61-25.19,16.64-.02,0-.04,0-.07,0Z"/><path class="cls-11" d="M285.61,160.28c1.02,0,1.86-.81,1.89-1.84,.03-1.05-.79-1.92-1.83-1.96-.19,0-18.53-.78-21.63-13.73-.24-1.02-1.28-1.64-2.28-1.4-1.02,.24-1.65,1.27-1.41,2.29,3.78,15.78,24.32,16.61,25.19,16.64,.02,0,.04,0,.06,0Z"/><path class="cls-6" d="M113.19,829.06h92.53s-.95-39.41-41.76-42.74c-40.81-3.32-50.77,42.74-50.77,42.74Z"/><path class="cls-6" d="M240.63,829.17l92.36-5.56s-3.31-39.29-44.25-40.15c-40.94-.86-48.12,45.71-48.12,45.71Z"/><path class="cls-4" d="M132.83,462.73l3.64,3.21,15.54,14.18s9.55,10.79,1.22,21.78c-11.04,14.56-24.41,4.85-24.41,4.85l-17.69-14.42,21.7-29.6Z"/><path class="cls-4" d="M299.55,458.97l-3.64,3.21-15.54,14.19s-9.55,10.79-1.22,21.77c11.04,14.56,24.41,4.85,24.41,4.85l17.69-14.42-21.7-29.6Z"/><path class="cls-7" d="M213.72,569.95c-10.51,0-15.79-8.38-16.01-8.73-.55-.89-.27-2.05,.62-2.6,.88-.55,2.05-.28,2.61,.61,.18,.28,4.44,6.93,12.79,6.93h12.09c-.09-.02,8.03-1.64,11.91-7.04,.61-.86,1.79-1.05,2.65-.44,.85,.61,1.05,1.8,.44,2.65-4.82,6.72-14.24,8.52-14.64,8.59l-12.44,.03Z"/></svg>