<?xml version="1.0" encoding="UTF-8"?><svg id="Layer_1" xmlns="http://www.w3.org/2000/svg" viewBox="0 0 432 852"><defs><style>.cls-1{fill:#f49821;}.cls-2{fill:#e54d39;}.cls-3{fill:#edc591;}.cls-4{fill:#ffbe2e;}.cls-5{fill:#fed89f;}.cls-6{fill:#c93535;}.cls-7{fill:#44322c;}.cls-8{fill:#956046;}.cls-9{fill:#2b2b2b;}</style></defs><path class="cls-5" d="M121.53,412.96v146.29s0,15.85,16.82,15.85c12.54,0,11.71-11.13,11.71-11.13l4.2-155.69-32.72,4.68Z"/><path class="cls-5" d="M314.48,412.96v146.29s0,15.85-16.81,15.85c-12.54,0-11.71-11.13-11.71-11.13l-4.2-155.69,32.72,4.68Z"/><g><path class="cls-7" d="M312.39,797.79l5.54,6.1s1.84,9.06-1.67,9.52c-.47,.06-65.01-.82-68.23-2.18-2.37-1-1.7-10.23-1.7-10.23l6.33-3.79,59.73,.58Z"/><path class="cls-5" d="M267.08,631.76l-.79,142.28s41.65-7.39,49.24,7.03c7.6,14.42,2.4,22.81,2.4,22.81l-71.6-2.89-5.18-171.65,25.93,2.41Z"/><path class="cls-7" d="M307.38,774.76s-16.81,3.42-23.32,28.28l-7.85-.45s1.95-8.86,7.7-16.57c5.53-7.41,14.84-13.68,16.51-13.53,3.41,.3,6.96,2.28,6.96,2.28Z"/></g><g><path class="cls-7" d="M128.83,797.18l-5.49,6.15s-1.76,9.07,1.76,9.51c.46,.06,64.99-1.39,68.21-2.78,2.36-1.02,1.61-10.24,1.61-10.24l-6.37-3.73-59.72,1.1Z"/><path class="cls-5" d="M172.52,630.77l2.2,142.27s-41.71-7.03-49.18,7.46c-7.46,14.49-2.2,22.83-2.2,22.83l71.57-3.51,3.51-171.69-25.91,2.63Z"/><path class="cls-7" d="M133.64,774.11s16.84,3.27,23.57,28.07l7.85-.52s-2.03-8.84-7.85-16.5c-5.6-7.36-14.96-13.55-16.63-13.39-3.4,.33-6.94,2.34-6.94,2.34Z"/></g><polygon class="cls-7" points="141.51 519.14 140.26 523.43 144.89 681.01 207.18 681.01 209.12 587.99 231.76 587.99 235.27 681.01 298.12 681.01 297.43 523.43 294.03 515.92 141.51 519.14"/><polygon class="cls-6" points="143.9 369.71 100.97 437.32 150.06 456.21 143.9 369.71"/><polygon class="cls-6" points="283.71 364.7 331.03 434.56 283.67 451.52 283.71 364.7"/><g><path class="cls-2" d="M140.26,523.43h157.17s-3.98-120.34-5.45-139.68c-1.18-15.43-12.38-30.82-48.64-36.22-9.18-1.37-19.49-2.03-30.92-1.81-11.57,.23-21.73,1.27-30.57,2.91-35.37,6.61-43.61,22.33-43.5,36.43,.14,17.63,1.91,138.36,1.91,138.36Z"/><path class="cls-5" d="M242.6,347.46c-6.96-1.78-18.96-2.52-30.11-2.3-11.34,.23-22.19,1.54-30.11,3.4,5.86,6.53,22.57,30.04,31.86,29.84,9.29-.19,21.35-20.36,28.36-30.94Z"/><g><path class="cls-5" d="M229.69,313.25h-34.54l.26,34.54c.96,8.59,8.16,15.3,17.01,15.3s16.05-6.71,17-15.3l.26-34.54Z"/><path class="cls-3" d="M229.54,332.11l.14-18.86h-34.54l.16,20.34c15.64,3.23,22.93,1.29,34.24-1.48Z"/></g><path class="cls-1" d="M126.05,256.42s-7.03-59.13-8.78-71.43c-1.76-12.29,8.78-12.88,8.78-12.88,0,0-7.61-16.98,0-35.71,7.61-18.73,27.52-29.86,36.3-32.2,8.78-2.34,43.32,4.68,60.3-5.85,16.98-10.54,26.93-26.93,23.42-34.54-3.51-7.61-8.78-11.12-23.42-10.54,0,0,6.44-8.2,21.08-5.85,0,0-2.34-4.1-7.61-8.78,0,0,15.45-1.15,35.13,8.2,18.92,8.98,48.59,45.08,44.5,81.38-2.91,25.76-22.83,59.13-22.83,59.13l1.17,59.13-168.03,9.95Z"/><path class="cls-5" d="M138.35,200.37s2.34,81.23,7.03,94.69c4.68,13.47,16.98,39.81,66.16,38.64,49.18-1.17,66.16-38.05,67.91-50.94,1.76-12.88,1.32-88.4,1.32-88.4,0,0-22.39,32.78-69.23,29.86-46.84-2.93-73.18-23.86-73.18-23.86Z"/><path class="cls-5" d="M150.06,258.86c0,9.11-7.39,16.49-16.49,16.49s-16.49-7.38-16.49-16.49,7.38-16.49,16.49-16.49,16.49,7.38,16.49,16.49Z"/><path class="cls-5" d="M305.21,258.86c0,9.11-7.39,16.49-16.49,16.49s-16.49-7.38-16.49-16.49,7.39-16.49,16.49-16.49,16.49,7.38,16.49,16.49Z"/><path class="cls-8" d="M203.11,319.61c-10.76,0-18.85-2.47-19.04-2.53-.93-.29-1.44-1.28-1.15-2.2,.29-.93,1.28-1.44,2.2-1.15,1.65,.52,40.62,12.34,59.43-19.85,.49-.84,1.56-1.12,2.4-.63,.84,.49,1.12,1.56,.63,2.4-11.5,19.68-30.3,23.95-44.48,23.95Z"/><polygon class="cls-3" points="195.41 287.67 223.75 287.67 206.74 240.43 195.41 287.67"/><path class="cls-8" d="M172.37,236.87c0,5.97-4.05,10.81-9.06,10.81s-9.06-4.84-9.06-10.81,4.05-10.82,9.06-10.82,9.06,4.84,9.06,10.82Z"/><path class="cls-8" d="M264.23,236.87c0,5.97-4.05,10.81-9.06,10.81s-9.06-4.84-9.06-10.81,4.05-10.82,9.06-10.82,9.06,4.84,9.06,10.82Z"/></g><path class="cls-4" d="M251.34,456.27c0,19.34-15.67,35.01-35.01,35.01s-35.01-15.67-35.01-35.01,15.67-35.01,35.01-35.01,35.01,15.68,35.01,35.01Z"/><path class="cls-9" d="M205.62,447.72c0,4.36-1.64,7.9-3.66,7.9s-3.66-3.54-3.66-7.9,1.64-7.9,3.66-7.9,3.66,3.54,3.66,7.9Z"/><ellipse class="cls-9" cx="229.69" cy="447.72" rx="3.66" ry="7.9"/><path class="cls-9" d="M217.42,482.56c-.17,0-.35,0-.52,0-18.44-.31-23.15-15.35-23.42-16-.38-.89,.03-1.92,.92-2.3,.89-.38,1.92,.03,2.31,.92,.24,.56,4.14,13.6,20.25,13.87,15.82,.4,19.93-12.88,20.02-13.44,.14-.96,1.05-1.61,2-1.47,.96,.15,1.61,1.04,1.47,2.01-.03,.16-4.67,16.42-23.02,16.42Z"/></svg>