<?xml version="1.0" encoding="UTF-8"?><svg id="Layer_1" xmlns="http://www.w3.org/2000/svg" xmlns:xlink="http://www.w3.org/1999/xlink" viewBox="0 0 432 852"><defs><style>.cls-1{fill:none;}.cls-2{clip-path:url(#clippath);}.cls-3{fill:#fff;}.cls-4{fill:#e5e5e5;}.cls-5{fill:#dca275;}.cls-6{fill:#c9926d;}.cls-7{fill:#1e4c2a;}.cls-8{fill:#3f2e27;}.cls-9{fill:#544f4b;}.cls-10{fill:#642d10;}.cls-11{fill:#2ca772;}.cls-12{fill:#276338;}</style><clipPath id="clippath"><path class="cls-1" d="M179.01,258.59s70.36,1.25,96.75-17.45l-7.02,39.77s-69.97-11.92-89.73-22.32Z"/></clipPath></defs><g><path class="cls-9" d="M126.23,824.36s-10.29,4.35-10.6,6.21c-.31,1.86-2.92,10.64,3.01,11.35,5.93,.71,61.69,2.85,68.57,.47,6.88-2.37,2.37-13.79-.36-14.49-2.73-.7-60.62-3.55-60.62-3.55Z"/><path class="cls-5" d="M172.95,643.09s-17.3,136.66-21.57,144.26c-4.27,7.59-35.59,24.67-35.59,30.84s-2.85,12.34,15.18,12.34,62.64,.95,61.69-6.64c-.95-7.59-16.39-28-19.71-37.49-3.32-9.49,19.73-137.61,19.73-137.61l-19.73-5.69Z"/><path class="cls-9" d="M127.26,806.74s21.13-5.2,23.1,23.77l3.04,3.42,2.73-3.36s.95-10.95,10.92-19.02c9.96-8.07,16.97-5.17,16.97-5.17l-3.88-6.38s-18.08,.64-24.5,11.44c0,0-6.51-11.51-19.03-11.44l-9.35,6.75Z"/></g><g><path class="cls-9" d="M319.32,824.36s10.29,4.35,10.6,6.21c.31,1.86,2.92,10.64-3.01,11.35-5.93,.71-61.69,2.85-68.57,.47-6.88-2.37-2.37-13.79,.36-14.49,2.73-.7,60.62-3.55,60.62-3.55Z"/><path class="cls-5" d="M272.6,643.09s17.3,136.66,21.57,144.26c4.27,7.59,35.59,24.67,35.59,30.84s2.85,12.34-15.19,12.34-62.64,.95-61.69-6.64c.95-7.59,16.39-28,19.71-37.49,3.32-9.49-19.73-137.61-19.73-137.61l19.73-5.69Z"/><path class="cls-9" d="M318.29,806.74s-21.13-5.2-23.1,23.77l-3.04,3.42-2.73-3.36s-.95-10.95-10.92-19.02c-9.96-8.07-16.97-5.17-16.97-5.17l3.88-6.38s18.08,.64,24.5,11.44c0,0,6.51-11.51,19.03-11.44l9.35,6.75Z"/></g><path class="cls-5" d="M140.26,353.44l-21.91,210.91s3.57,12.72,14.81,14.03c15.76,1.85,20.03-14.64,20.03-14.64l19.76-217.05-32.69,6.75Z"/><path class="cls-5" d="M308.05,354.35l11.32,211.74s-4.21,12.52-15.5,13.27c-15.83,1.06-19.28-15.62-19.28-15.62l-8.85-217.77,32.3,8.39Z"/><polygon class="cls-12" points="171.63 516.39 154.23 527.31 146.32 650.53 212.2 654.32 218.76 572.08 227.3 572.08 233.95 654.32 296.74 651.18 287.09 530.15 273.49 516.39 171.63 516.39"/><path class="cls-11" d="M171.31,319.84s73.57-4.57,107.96,1.8c34.39,6.37,31.07,56.67,31.07,56.67l-27.05,4.27,3.79,147.58-132.87-2.85,3.79-138.08-27.05-5.69s5.7-62.32,40.34-63.69Z"/><path class="cls-12" d="M200.3,332.24c3.03,11.83,15.03,12.96,25.42,12.63,7.39-.24,17.57,.18,23.8-4.56,6.32-4.82,6.63-13.33,6.25-21.23-18.31-1.1-39.45-.91-56.01-.44-.27,4.58-.55,9.35,.54,13.61Z"/><path class="cls-5" d="M209.75,289.89v33.53s1.42,12.02,18.51,10.75c17.08-1.26,15.64-10.75,15.64-10.75v-33.53h-34.14Z"/><path class="cls-6" d="M243.89,302.73v-12.84h-34.14v12.54c11.62,4.13,23.09,5.39,34.14,.3Z"/><path class="cls-10" d="M382.04,189.35c0-4.51-1.67-8.6-4.35-11.81,5.26-3.27,8.8-9.06,8.8-15.71,0-7.63-4.62-14.18-11.21-17.02,.77-2.04,1.24-4.22,1.24-6.53,0-3.4-.98-6.53-2.57-9.27,1.6-2.74,2.57-5.88,2.57-9.27,0-9.73-7.51-17.61-17.04-18.39,.43-1.56,.73-3.17,.73-4.86,0-9.44-7.07-17.14-16.19-18.3,.56-1.77,.94-3.61,.94-5.56,0-10.24-8.3-18.54-18.54-18.54,0-10.24-8.3-18.54-18.54-18.54-1.53,0-2.99,.24-4.41,.58,.01-.2,.06-.38,.06-.58,0-10.24-8.3-18.54-18.54-18.54-6.59,0-12.33,3.45-15.62,8.62-3.22-5.48-9.12-9.2-15.93-9.2-3.46,0-6.67,1.01-9.43,2.66-2.99-6.22-9.3-10.55-16.67-10.55-6.88,0-12.81,3.79-16.02,9.35-3.09-2.31-6.88-3.72-11.03-3.72-7.17,0-13.31,4.11-16.4,10.06-2.25-.97-4.72-1.52-7.33-1.52-9.17,0-16.74,6.68-18.23,15.43-2.74-1.6-5.89-2.58-9.3-2.58-6.31,0-11.87,3.17-15.22,7.99-2.78-1.66-5.98-2.67-9.45-2.67-10.24,0-18.54,8.3-18.54,18.54-10.24,0-18.54,8.3-18.54,18.54,0,1.88,.36,3.67,.89,5.38-1.5-.4-3.05-.67-4.68-.67-10.24,0-18.54,8.3-18.54,18.54,0,3.03,.79,5.84,2.08,8.36-12.24,2.28-21.51,13-21.51,25.9,0,11.26,7.07,20.85,17,24.63-7.79,3.56-13.21,11.4-13.21,20.52,0,9.72,6.15,17.97,14.76,21.16-3.48,2.79-5.75,7.02-5.75,11.82,0,8.4,6.81,15.22,15.22,15.22,1.32,0,2.58-.22,3.8-.54-.61,1.83-1.02,3.76-1.02,5.79,0,10.24,8.3,18.54,18.54,18.54,4.22,0,8.07-1.47,11.19-3.84,1.1,5.68,6.09,9.98,12.1,9.98,1.54,0,2.99-.32,4.35-.83-.02,.28-.08,.55-.08,.83,0,6.81,5.52,12.34,12.34,12.34,4.24,0,7.98-2.15,10.2-5.4,2.22,3.26,5.96,5.4,10.2,5.4,6.82,0,12.34-5.52,12.34-12.34h122.09c1.31,8.96,8.95,15.86,18.27,15.86s17.28-7.21,18.33-16.46c3.18,2.55,7.16,4.13,11.54,4.13,8.73,0,16-6.05,17.97-14.18,8.97-1.3,15.89-8.94,15.89-18.27,0-.94-.14-1.85-.28-2.75,7.32-2.48,12.61-9.33,12.61-17.48,0-4.39-1.59-8.38-4.15-11.56,1.39-2.6,2.25-5.52,2.25-8.68Z"/><path class="cls-5" d="M163.31,159.56s-6.24,91.11,5.78,111.35c12.02,20.24,34.16,31.63,56.31,31.32,22.15-.32,68.02-8.54,71.81-46.5,3.8-37.96,5.01-96.62,5.01-96.62l-138.91,.45Z"/><path class="cls-10" d="M185.55,159.1c0,7.08-5.74,12.81-12.81,12.81s-12.81-5.74-12.81-12.81,5.74-12.81,12.81-12.81,12.81,5.73,12.81,12.81Z"/><path class="cls-10" d="M209.26,159.1c0,7.08-5.74,12.81-12.81,12.81s-12.81-5.74-12.81-12.81,5.74-12.81,12.81-12.81,12.81,5.73,12.81,12.81Z"/><path class="cls-10" d="M232.97,159.1c0,7.08-5.74,12.81-12.81,12.81s-12.82-5.74-12.82-12.81,5.74-12.81,12.82-12.81,12.81,5.73,12.81,12.81Z"/><path class="cls-10" d="M256.67,159.1c0,7.08-5.74,12.81-12.81,12.81s-12.81-5.74-12.81-12.81,5.74-12.81,12.81-12.81,12.81,5.73,12.81,12.81Z"/><path class="cls-10" d="M280.38,159.1c0,7.08-5.74,12.81-12.81,12.81s-12.81-5.74-12.81-12.81,5.73-12.81,12.81-12.81,12.81,5.73,12.81,12.81Z"/><path class="cls-10" d="M304.09,159.1c0,7.08-5.74,12.81-12.81,12.81s-12.81-5.74-12.81-12.81,5.74-12.81,12.81-12.81,12.81,5.73,12.81,12.81Z"/><polygon class="cls-6" points="231.05 206.06 223.51 235.01 242.01 235.01 231.05 206.06"/><path class="cls-5" d="M173.21,220.53c0,8.38-6.8,15.18-15.19,15.18s-15.18-6.8-15.18-15.18,6.8-15.19,15.18-15.19,15.19,6.8,15.19,15.19Z"/><path class="cls-5" d="M317.46,220.53c0,8.38-6.8,15.18-15.18,15.18s-15.19-6.8-15.19-15.18,6.8-15.19,15.19-15.19,15.18,6.8,15.18,15.19Z"/><path class="cls-8" d="M209.75,197.34c0,6.46-5.24,11.7-11.71,11.7s-11.7-5.24-11.7-11.7,5.24-11.7,11.7-11.7,11.71,5.24,11.71,11.7Z"/><path class="cls-8" d="M279.27,197.34c0,6.46-5.24,11.7-11.7,11.7s-11.71-5.24-11.71-11.7,5.24-11.7,11.71-11.7,11.7,5.24,11.7,11.7Z"/><path class="cls-3" d="M190.33,258.5c.07,1.57,.13,3.15,.24,4.72,27.22,9.01,78.17,17.69,78.17,17.69l7.02-39.77c-19.82,14.04-64.45,16.83-85.44,17.35Z"/><g class="cls-2"><rect class="cls-4" x="215.07" y="260.56" width="60.06" height="3.83" transform="translate(-19.66 505.11) rotate(-89.46)"/><rect class="cls-4" x="215.24" y="227.51" width="3.82" height="60.06" transform="translate(-6.51 5.64) rotate(-1.47)"/></g><path class="cls-7" d="M226.82,572.36c-1.19,0-2.4-.01-3.65-.02l-3.93-.02c-9.34,0-15.92-1.89-16.2-1.98-1.01-.29-1.58-1.34-1.29-2.35,.29-1.01,1.35-1.59,2.35-1.29,.06,.01,6.36,1.82,15.13,1.82l3.96,.02c7.35,.06,13.69,.11,17.33-1.72,.94-.47,2.08-.09,2.55,.85,.47,.94,.09,2.08-.85,2.55-3.75,1.88-9.13,2.14-15.41,2.14Z"/></svg>