<?xml version="1.0" encoding="UTF-8"?><svg id="Layer_1" xmlns="http://www.w3.org/2000/svg" xmlns:xlink="http://www.w3.org/1999/xlink" viewBox="0 0 432 852"><defs><style>.cls-1{clip-path:url(#clippath);}.cls-2{fill:#fff;}.cls-3{fill:#fff8ee;}.cls-4{fill:#e83d3d;}.cls-5{fill:#e5b385;}.cls-6{fill:#fbca9c;}.cls-7{fill:#dbdbdb;}.cls-8{fill:#1e1e1e;}.cls-9{fill:#181919;}.cls-10{fill:#302925;}.cls-11{fill:#353029;}</style><clipPath id="clippath"><path class="cls-2" d="M166.8,243.19s57.73,.29,92.45-16.37v29.81l-92.45,2.92v-16.36Z"/></clipPath></defs><g><path class="cls-8" d="M145.62,792.55s-9.73,4.95-9.91,6.79c-.17,1.84-2.11,10.58,3.73,10.86,5.83,.28,60.36-1.52,66.9-4.32,6.55-2.79,1.35-13.61-1.35-14.1-2.71-.49-59.37,.76-59.37,.76Z"/><path class="cls-6" d="M178.03,597.68s-6.82,149.32-10.45,157.02c-3.64,7.7-32.99,26.54-32.56,32.56,.43,6.02-1.92,12.23,15.66,10.98,17.59-1.26,61.15-3.43,59.7-10.77-1.46-7.34-17.94-26.17-21.84-35.19-3.89-9.02,9.13-150.41,9.13-150.41l-19.64-4.18Z"/><path class="cls-8" d="M145.39,775.3s20.25-6.55,24.18,21.57l3.2,3.12,2.43-3.46s.16-10.75,9.32-19.3c9.15-8.57,16.19-6.23,16.19-6.23l-4.22-5.96s-17.58,1.89-23.09,12.86c0,0-7.15-10.77-19.35-9.83l-8.65,7.23Z"/></g><g><path class="cls-8" d="M302.04,792.55s9.73,4.95,9.9,6.79c.17,1.84,2.11,10.58-3.73,10.86-5.84,.28-60.36-1.52-66.89-4.32-6.55-2.79-1.35-13.61,1.35-14.1,2.71-.49,59.37,.76,59.37,.76Z"/><path class="cls-6" d="M269.63,597.68s6.82,149.32,10.45,157.02c3.64,7.7,32.99,26.54,32.56,32.56s1.92,12.23-15.67,10.98c-17.59-1.26-61.15-3.43-59.7-10.77,1.46-7.34,17.94-26.17,21.84-35.19,3.89-9.02-9.13-150.41-9.13-150.41l19.64-4.18Z"/><path class="cls-8" d="M302.27,775.3s-20.25-6.55-24.18,21.57l-3.2,3.12-2.43-3.46s-.16-10.75-9.32-19.3c-9.15-8.57-16.19-6.23-16.19-6.23l4.23-5.96s17.58,1.89,23.09,12.86c0,0,7.15-10.77,19.35-9.83l8.65,7.23Z"/></g><path class="cls-6" d="M124.43,392.44l-5.2,159.6s4.42,12.14,15.47,12.59c15.5,.64,18.45-15.75,18.45-15.75l2.65-165.44-31.37,9Z"/><path class="cls-6" d="M309.94,392.44l5.2,159.6s-4.42,12.14-15.48,12.59c-15.5,.64-18.45-15.75-18.45-15.75l-2.65-165.44,31.37,9Z"/><polygon class="cls-10" points="171.86 504.21 153.69 518.15 150.94 626.6 213.21 627.31 216.31 569.51 226.48 569.51 234.32 627.31 293.8 627.31 286.38 518.15 171.86 504.21"/><path class="cls-3" d="M143.95,306.11s42.37-10.66,66.19-12.51c23.82-1.86,80.42,12.51,80.42,12.51,0,0,17.32,3.26,20.88,40.53l3.71,48.56s-17.63,4.64-34.8,3.25l6.03,119.7H153.69l1.39-116.91-38.04-2.32s-4.17-85.81,26.91-92.8Z"/><path class="cls-6" d="M193.43,253.06v45.94s2.05,10.28,16.7,10.53c16.01,.28,16.7-10.53,16.7-10.53v-45.94h-33.41Z"/><path class="cls-8" d="M132.57,189.41h-32.76s-24.82-51.67-24.33-95.28c.49-43.61,63.59-32.48,102.56-32.48s130.71-5.92,150.19,1.5c19.49,7.42,38.17,19.99,22.4,61.74-15.77,41.76-27.84,64.52-27.84,64.52H132.57Z"/><path class="cls-9" d="M178.04,61.66c-3.25,0-6.67-.08-10.21-.2v127.95h88.14V59.79c-28.39,.62-59.8,1.86-77.94,1.86Z"/><rect class="cls-8" x="172.79" y="41.77" width="78.22" height="107.5" rx="4.64" ry="4.64"/><path class="cls-6" d="M300.52,244.33c0,16.14-11.78,29.23-26.3,29.23h-124.62c-14.52,0-26.3-13.09-26.3-29.23v-100.08c0-16.14,11.78-29.23,26.3-29.23h124.62c14.52,0,26.3,13.09,26.3,29.23v100.08Z"/><path class="cls-6" d="M134.42,190.2c0,9.42-7.63,17.05-17.05,17.05s-17.05-7.64-17.05-17.05,7.64-17.06,17.05-17.06,17.05,7.64,17.05,17.06Z"/><path class="cls-6" d="M322.79,189.41c0,9.42-7.64,17.06-17.06,17.06s-17.05-7.64-17.05-17.06,7.64-17.05,17.05-17.05,17.06,7.64,17.06,17.05Z"/><path class="cls-11" d="M174.3,170.52c0,6.15-4.99,11.14-11.13,11.14s-11.13-4.98-11.13-11.14,4.98-11.14,11.13-11.14,11.13,4.98,11.13,11.14Z"/><path class="cls-11" d="M268.97,170.52c0,6.15-4.99,11.14-11.14,11.14s-11.14-4.98-11.14-11.14,4.99-11.14,11.14-11.14,11.14,4.98,11.14,11.14Z"/><polygon class="cls-5" points="211.9 170.52 199.54 206.47 228.6 206.47 211.9 170.52"/><g><path class="cls-2" d="M166.8,243.19s57.73,.29,92.45-16.37v29.81l-92.45,2.92v-16.36Z"/><g class="cls-1"><g><rect class="cls-7" x="181.37" y="224.52" width="1.56" height="44.01"/><rect class="cls-7" x="201.95" y="224.52" width="1.56" height="44.01"/><rect class="cls-7" x="222.53" y="224.52" width="1.56" height="44.01"/><rect class="cls-7" x="243.11" y="224.52" width="1.56" height="44.01"/><rect class="cls-7" x="162.67" y="247.68" width="108.2" height="1.32" transform="translate(-12.11 11.11) rotate(-2.86)"/></g></g></g><path class="cls-4" d="M159.46,206.24c0,7.94-6.44,14.37-14.37,14.37s-14.37-6.44-14.37-14.37,6.43-14.37,14.37-14.37,14.37,6.43,14.37,14.37Z"/><path class="cls-4" d="M293.16,206.24c0,7.94-6.44,14.37-14.37,14.37s-14.37-6.44-14.37-14.37,6.44-14.37,14.37-14.37,14.37,6.43,14.37,14.37Z"/><path class="cls-11" d="M136.28,166.2c-.47,0-.94-.18-1.3-.53-.73-.72-.74-1.89-.02-2.62l17.61-17.94c.72-.73,1.89-.74,2.62-.02,.73,.72,.74,1.89,.03,2.62l-17.61,17.94c-.36,.37-.84,.56-1.33,.56Z"/><path class="cls-11" d="M285.8,166.2c.47,0,.94-.18,1.3-.53,.73-.72,.74-1.89,.02-2.62l-17.61-17.94c-.72-.73-1.89-.74-2.62-.02-.73,.72-.74,1.89-.03,2.62l17.61,17.94c.37,.37,.85,.56,1.33,.56Z"/><path class="cls-4" d="M252.26,405.9c0,18.96-15.37,34.33-34.33,34.33s-34.33-15.37-34.33-34.33,15.37-34.33,34.33-34.33,34.33,15.37,34.33,34.33Z"/></svg>