<?xml version="1.0" encoding="UTF-8"?><svg id="Layer_1" xmlns="http://www.w3.org/2000/svg" viewBox="0 0 432 852"><defs><style>.cls-1{fill:#e8e6e6;}.cls-2{fill:#f2c097;}.cls-3{fill:#aa958a;}.cls-4{fill:#bdc5d1;}.cls-5{fill:#adadad;}.cls-6{fill:#e2af88;}.cls-7{fill:#3f3f3f;}.cls-8{fill:#9b8880;}.cls-9{fill:#353029;}</style></defs><path class="cls-2" d="M110.05,497.23l.33,44.58s1.08,10.5,13.62,11.8c15.46,1.6,15.29-10.75,15.29-10.75l1.3-40.03-30.53-5.6Z"/><path class="cls-2" d="M317.96,497.03l.73,44.58s.57,11.53-13.33,12.12c-14.25,.61-15.54-10.39-15.54-10.39l-2.24-39.98,30.39-6.33Z"/><path class="cls-7" d="M159.62,778.74l-8.2,5.28s-35.13-4.35-42.15,6.02c-7.03,10.37-.59,20.32,9.37,22.08,9.95,1.76,73.45-.26,81.81-4.52,8.35-4.26,5.03-23.57,5.03-23.57l-8.39-9.26-37.47,3.98Z"/><path class="cls-7" d="M272.59,778.74l8.2,5.28s35.13-4.35,42.15,6.02c7.03,10.37,.59,20.32-9.37,22.08-9.95,1.76-73.45-.26-81.81-4.52-8.35-4.26-5.03-23.57-5.03-23.57l8.39-9.26,37.47,3.98Z"/><polygon class="cls-1" points="151.36 721.97 151.36 784.62 206.4 784.62 206.4 719.63 151.36 721.97"/><polygon class="cls-1" points="281.33 721.97 281.33 784.62 226.3 784.62 226.3 719.63 281.33 721.97"/><polygon class="cls-4" points="147.84 495.98 136.72 514.03 131.74 730.17 302.99 730.17 292.85 509.44 147.84 495.98"/><g><path class="cls-1" d="M101.11,514.03h226.48s-13.42-152.17-18.44-173.08c-3.77-15.69-25.35-25.21-68-30.84-10.81-1.43-22.92-2.12-36.37-1.89-13.61,.24-25.55,1.32-35.95,3.03-41.6,6.88-56.11,24.18-58.34,38.71-3.04,19.78-9.38,164.07-9.38,164.07Z"/><path class="cls-4" d="M160.37,285.95s-4.97,21.56,0,36.68c4.98,15.13,20.21,23.03,46.26,22.16,26.05-.88,46.54-8.49,47.42-33.37,.88-24.88-2.63-36.01-2.63-36.01l-91.04,10.54Z"/><path class="cls-3" d="M294.37,224.7s37.82,1.76,49.17-29.76c11.34-31.51-1.89-53.57-17.02-65.54,0,0,7.57-49.79-32.14-63.03-39.7-13.23-111.55-39.07-161.34-20.8-49.79,18.28-35.93,74.5-25.85,86.42,0,0-20.17,6.87-22.69,25.77-2.52,18.9,12.6,41.4,12.6,41.4l197.27,25.54Z"/><path class="cls-2" d="M110.34,138.07s-1.82,80.37-.22,122.12c.51,13.29,.53,17.99,4,22.36,3.47,4.37,9.47,4.54,23.65,5.34,35.74,2.04,97.71,2.04,135.76,.12,16.3-.82,21.82-1.44,25.83-4.83,4.34-3.67,5.85-9.77,5.82-23.51-.09-45.08-3.88-135.31-3.88-135.31,0,0-63.66,49.37-126.06,49.27-62.39-.11-64.91-35.56-64.91-35.56Z"/><path class="cls-8" d="M187.54,86.23c-9.77-17.33-32.77-24.27-52-22.69-19.22,1.57-51.33,35.61-28.36,68.45,0,0-6.93-34.1,17.02-47.02,23.95-12.92,44.28-1.81,49.79,5.67,5.52,7.48,13.08,30.41,1.34,40.79-14.13,12.49-35.53,11.6-40.26,2.62-4.73-8.98-2.6-23.87,12.53-24.58,0,0-13.1-2.83-20.56,11.34-4.73,8.98,4.11,26.7,20.88,26.94,16.78,.24,41.04-10.16,44.35-27.88,3.31-17.72-4.73-33.64-4.73-33.64Z"/><circle class="cls-2" cx="105.86" cy="201.31" r="19.76"/><path class="cls-2" d="M324.94,201.31c0,10.92-8.84,19.76-19.75,19.76s-19.76-8.84-19.76-19.76,8.84-19.76,19.76-19.76,19.75,8.85,19.75,19.76Z"/><path class="cls-2" d="M201.72,286.96c0,8.03-7.96,14.54-17.77,14.54s-17.77-6.51-17.77-14.54,7.96-14.54,17.77-14.54,17.77,6.51,17.77,14.54Z"/><path class="cls-2" d="M233.94,286.96c0,8.03-7.95,14.54-17.77,14.54s-17.77-6.51-17.77-14.54,7.96-14.54,17.77-14.54,17.77,6.51,17.77,14.54Z"/><rect class="cls-4" x="205.85" y="327.22" width="7.68" height="186.8"/><path class="cls-9" d="M210.46,270.48c-10.76,0-18.85-2.46-19.04-2.52-.92-.3-1.44-1.28-1.15-2.2,.29-.93,1.28-1.44,2.2-1.15,1.65,.51,40.62,12.33,59.43-19.85,.49-.84,1.56-1.12,2.4-.63,.84,.49,1.12,1.56,.63,2.4-11.5,19.68-30.3,23.95-44.48,23.95Z"/><polygon class="cls-6" points="202.07 192.17 197.18 253.75 216.4 248.71 202.07 192.17"/><path class="cls-9" d="M271.82,202.07c-1.21,0-2.2-.98-2.2-2.2v-7.94c0-5.4-4.39-9.78-9.78-9.78h-3.49c-5.39,0-9.78,4.38-9.78,9.78v7.94c0,1.21-.98,2.2-2.2,2.2s-2.2-.98-2.2-2.2v-7.94c0-7.81,6.36-14.17,14.17-14.17h3.49c7.81,0,14.17,6.36,14.17,14.17v7.94c0,1.21-.99,2.2-2.2,2.2Z"/><path class="cls-9" d="M161.83,202.07c-1.21,0-2.2-.98-2.2-2.2v-7.94c0-5.4-4.39-9.78-9.78-9.78h-3.49c-5.39,0-9.78,4.38-9.78,9.78v7.94c0,1.21-.98,2.2-2.2,2.2s-2.2-.98-2.2-2.2v-7.94c0-7.81,6.36-14.17,14.17-14.17h3.49c7.81,0,14.17,6.36,14.17,14.17v7.94c0,1.21-.99,2.2-2.2,2.2Z"/></g><path class="cls-5" d="M135.27,513.99l5.69-160.84c.02-.45,.4-.81,.91-.79,.49,.02,.86,.41,.84,.86l-5.69,160.84-1.76-.07Z"/><path class="cls-5" d="M291.35,514.06l-7.16-160.42c-.02-.45,.36-.84,.84-.85,.43-.03,.89,.33,.91,.78l7.16,160.42-1.76,.07Z"/></svg>