<?xml version="1.0" encoding="UTF-8"?><svg id="Layer_1" xmlns="http://www.w3.org/2000/svg" viewBox="0 0 432 852"><defs><style>.cls-1{fill:#303030;}.cls-2{fill:#8e5f3f;}.cls-3{fill:#ba6d38;}.cls-4{fill:#ce936b;}.cls-5{fill:#dca275;}.cls-6{fill:#443931;}.cls-7{fill:#3a3a3a;}.cls-8{fill:#7c5337;}</style></defs><path class="cls-5" d="M350.43,497.59s7.48,33.81,0,39.08c-7.48,5.27-22.41,12.29-33.39,0-10.98-12.29,1.51-43.68,1.51-43.68l31.88,4.6Z"/><path class="cls-5" d="M145.21,488.55s26.35,26.64,41.86,17.86c15.51-8.78,4.77-29.28,4.77-29.28l-27.02-14.34-19.62,25.76Z"/><g><path class="cls-7" d="M156.2,791.21l-5.49,6.15s-1.76,9.07,1.76,9.51c.47,.06,64.99-1.39,68.21-2.78,2.36-1.03,1.61-10.24,1.61-10.24l-6.37-3.73-59.72,1.1Z"/><path class="cls-5" d="M199.89,586.15l2.2,180.91s-41.71-7.03-49.18,7.46c-7.46,14.49-2.2,22.83-2.2,22.83l71.57-3.51,3.51-210.33-25.91,2.63Z"/><path class="cls-7" d="M161.01,768.14s16.84,3.27,23.57,28.07l7.85-.51s-2.02-8.84-7.85-16.5c-5.6-7.36-14.97-13.56-16.63-13.39-3.4,.33-6.94,2.34-6.94,2.34Z"/></g><g><path class="cls-7" d="M343.14,791.21l5.49,6.15s1.76,9.07-1.76,9.51c-.47,.06-64.99-1.39-68.21-2.78-2.36-1.03-1.61-10.24-1.61-10.24l6.37-3.73,59.72,1.1Z"/><path class="cls-5" d="M299.45,586.15l-2.2,180.91s41.71-7.03,49.18,7.46c7.46,14.49,2.2,22.83,2.2,22.83l-71.57-3.51-3.51-210.33,25.91,2.63Z"/><path class="cls-7" d="M338.33,768.14s-16.84,3.27-23.57,28.07l-7.85-.51s2.02-8.84,7.85-16.5c5.6-7.36,14.96-13.56,16.63-13.39,3.4,.33,6.94,2.34,6.94,2.34Z"/></g><path class="cls-2" d="M307.39,289.05l7.61-8.49s21.23,2.04,28.69,29.89c6.62,24.7,15.81,199.06,15.81,199.06l-44.49,4.1-7.61-224.55Z"/><path class="cls-8" d="M319.63,465.1c1.06-20.81,2.22-41.57,1.88-62.41-.37-22.34-2.85-44.03-4.87-66.22-.95-10.47-2.2-21.13-2.41-31.65-.15-7.82,.37-15.62-.21-23.39l-6.64,7.4,7.61,224.55,4.43-.41c-1.69-15.79-.58-32.26,.21-47.88Z"/><polygon class="cls-6" points="188.34 478.29 179.27 488.26 185.02 649.84 243.57 649.84 244.74 549.72 252.97 549.72 256.49 649.84 314.44 649.84 315 487.67 307.39 481.81 188.34 478.29"/><path class="cls-2" d="M194.98,280.56h-5.84s-26.94,3.36-40.99,15.08c-14.05,11.71-64.99,95.73-64.99,95.73,0,0-22.83,26.05-1.61,45.16,15.96,14.38,66.35,59.42,66.35,59.42l26.6-34.04s-39.97-24.02-52.69-44.49c-4.25-6.83,4.03-16.55,7.2-21.1,12.73-18.3,42.56-63.85,42.56-63.85l7.72,155.8,135.72-.59v-207.11h-120.02Z"/><path class="cls-3" d="M203.18,280.56s-3.01,34.25,33.4,38.2c36.41,3.95,62.42-10.1,58.81-38.2h-92.21Z"/><path class="cls-5" d="M218.98,257.71v39.09s17.56,9.96,38.64,7.03c21.08-2.93,22.25-8.2,22.25-8.2v-45.67l-60.89,7.74Z"/><path class="cls-4" d="M279.87,260.07v-10.1l-60.89,7.74v4.42c34.54,8.77,42.87,2.72,60.89-2.06Z"/><path class="cls-1" d="M233.62,257.71s5.56,19.77,8.78,20.36c3.22,.59,22.25-.58,24.3-3.22,2.05-2.63-6.15-21.96-6.15-21.96l-26.93,4.82Z"/><path class="cls-1" d="M135.8,169.18s-1.16-57.38,0-64.99c1.17-7.61,5.86-14.05,15.81-10.54,0,0-5.86-24,18.15-36.3,24-12.29,74.43-13.75,101.29-11.13,48.01,4.68,49.75,20.39,52.67,46.15,0,0,13.48-6.34,19.92,15.32,6.44,21.66,3.51,58.55,3.51,58.55l-211.35,2.93Z"/><path class="cls-5" d="M339.03,171.52c0,51.95-33.99,90.75-94.26,90.75-65.21,0-100.7-31.37-100.7-90.75,0-45.03,28.85-77,63.72-90.31,11.83-4.51,33.76,9.51,33.76,9.51,0,0,21.8-14.59,30.76-11.3,36.92,13.51,66.72,51.99,66.72,92.1Z"/><path class="cls-5" d="M153.99,168.74c0,7.44-6.03,13.47-13.47,13.47s-13.46-6.03-13.46-13.47,6.02-13.46,13.46-13.46,13.47,6.03,13.47,13.46Z"/><path class="cls-5" d="M357.73,169.61c0,7.92-6.42,14.34-14.35,14.34s-14.34-6.42-14.34-14.34,6.42-14.34,14.34-14.34,14.35,6.42,14.35,14.34Z"/><path class="cls-1" d="M142.72,182.89l3.95-2.59s24.56,29.09,35.42,28.69c15.81-.58,7.61-12.95,14.05-14.38,6.44-1.43,91.92-9.04,96.02-3.18,4.1,5.86,5.71,15.16,15.22,13.47,12.95-2.31,26.05,.44,31.03-24.59l4.97,3.66s4.39,46.69-10.83,56.64c-15.22,9.95-39.23,12.29-39.23,12.29l.59-22.25s.29-25.76-12.59-27.52-62.94-4.68-69.38,9.37c-6.44,14.05-6.38,45.21-6.38,45.21,0,0-37.52-.13-49.24-20.62-11.71-20.49-13.61-54.2-13.61-54.2Z"/><path class="cls-4" d="M267.03,170.34c0,4.2-3.4,7.61-7.61,7.61h-27.56c-4.21,0-7.61-3.4-7.61-7.61h0c0-4.21,3.4-7.61,7.61-7.61h27.56c4.21,0,7.61,3.41,7.61,7.61h0Z"/><path class="cls-1" d="M205.24,150.66c0,7.85-5.34,14.22-11.92,14.22s-11.91-6.37-11.91-14.22,5.33-14.23,11.91-14.23,11.92,6.37,11.92,14.23Z"/><path class="cls-1" d="M309.02,150.66c0,7.85-5.34,14.22-11.92,14.22s-11.91-6.37-11.91-14.22,5.33-14.23,11.91-14.23,11.92,6.37,11.92,14.23Z"/><path class="cls-1" d="M229.53,240.96c-5.04,0-8.49-.32-8.97-.36-.96-.1-1.67-.95-1.58-1.92,.1-.96,.92-1.64,1.92-1.58,.38,.04,38.61,3.53,51.09-13.91,.57-.79,1.67-.97,2.45-.4,.79,.56,.97,1.66,.4,2.45-9.79,13.69-32.58,15.73-45.32,15.73Z"/></svg>