<?xml version="1.0" encoding="UTF-8"?><svg id="Layer_1" xmlns="http://www.w3.org/2000/svg" viewBox="0 0 432 852"><defs><style>.cls-1{fill:#f4c778;}.cls-2{fill:#eab894;}.cls-3{fill:#fbba37;}.cls-4{fill:#ee7848;}.cls-5{fill:#fbca9c;}.cls-6{fill:#c13a3a;}.cls-7{fill:#222c35;}.cls-8{fill:#302c28;}.cls-9{fill:#2f3b49;}.cls-10{fill:#4c301d;}</style></defs><path class="cls-5" d="M308.62,528.71c-2.34,0-4.71-.44-7.02-1.36-9.64-3.88-14.32-14.84-10.44-24.48l30.65-76.26c3.29-8.2,2.43-17.53-2.33-24.98l-36.14-56.64c-5.59-8.76-3.02-20.4,5.74-25.99,8.77-5.59,20.4-3.02,25.99,5.74l36.14,56.64c11.27,17.66,13.33,39.82,5.52,59.26l-30.65,76.26c-2.95,7.34-10.01,11.81-17.46,11.81Z"/><path class="cls-10" d="M170.63,758.49l-25.41-.94s-35.76-5.64-41.4,11.76c-5.65,17.41,1.46,21.64,7.79,23.05,6.32,1.41,91.95,5.64,91.95,5.64l1.26-5.64-4.55-15.02-29.64-18.85Z"/><path class="cls-10" d="M279.39,758.49l25.41-.94s35.76-5.64,41.41,11.76c5.64,17.41-1.47,21.64-7.79,23.05-6.33,1.41-91.96,5.64-91.96,5.64l-1.26-5.64,4.55-15.02,29.64-18.85Z"/><path class="cls-5" d="M124.05,349.16l-12.23,167.03s-3.55,23.95,18.82,24.94c22.38,.98,24.78-33.88,24.78-33.88l9.1-129.86-40.46-28.23Z"/><polygon class="cls-9" points="170.4 501.28 153.93 516.18 145.23 757.55 204.83 792.36 217.21 570.91 223.02 570.91 244.98 792.36 296.73 757.55 289.2 513.2 276.97 501.28 170.4 501.28"/><path class="cls-3" d="M188.51,299.28s-31.52,0-41.4,4.16c-7.46,3.14-18.82,24.33-29.8,55.44l39.51,24.78-2.89,132.52,135.27-2.98-4.24-155.89,11.76,17.72,32-36.23-16.94-25.28s-6.12-11.89-22.11-14.24c-16-2.35-36.23,0-36.23,0h-64.93Z"/><path class="cls-4" d="M188.51,299.28h64.93s1.83,26.01-34.56,28.36c-36.39,2.35-30.37-28.36-30.37-28.36Z"/><path class="cls-5" d="M202.31,269.36v34.94s-.78,13.49,15.6,13.8c16.39,.32,19.53-9.09,20.47-14.74,.94-5.65,0-37.01,0-37.01l-36.07,3.01Z"/><path class="cls-2" d="M238.66,277.96c-.12-6.47-.27-11.61-.27-11.61l-36.07,3.01v8.86c10.88,4.91,24.25,2.41,36.35-.26Z"/><path class="cls-10" d="M172.52,260.7s-21.33,6.27-42.03,0c-20.7-6.27-34.82-24.15-39.21-41.4-4.39-17.25,1.57-45.48,1.57-45.48,0,0-8.78,10.66-22.27,8.15,0,0,12.86-11.29,17.88-25.41,5.02-14.11,30.43-101.94,124.21-102.57,93.79-.63,104.03,47.08,109,66.97,4.97,19.89,12.7,62.89,31.52,65.71,0,0-10.66,5.33-18.5-1.41,0,0,8.16,38.11-4.39,54.42-12.55,16.31-34.5,36.7-73.4,27.29-38.89-9.41-84.38-6.27-84.38-6.27Z"/><path class="cls-5" d="M130.64,233.55s10.35,42.21,84.69,43.62c74.34,1.41,87.98-48.46,89.86-81.4,0,0-63.05-13.64-65.87-52.7,0,0-8.94,23.52-25.41,28.23,0,0,11.29-18.82,7.53-28.23,0,0-29.46,34.33-60.63,47.48-30.18,12.74-30.18,42.99-30.18,42.99Z"/><polygon class="cls-2" points="204.83 231.53 229.61 231.53 215.49 199.85 204.83 231.53"/><path class="cls-6" d="M261.16,241.41l-73.87,10.8c-1.03,.15-1.98-.56-2.13-1.59-.15-1.03,.56-1.98,1.59-2.13l73.86-10.8c1.03-.15,1.98,.56,2.13,1.59,.15,1.03-.56,1.98-1.59,2.14Z"/><polygon class="cls-1" points="286.2 402.81 156.41 402.81 155.42 447.96 287.43 447.96 286.2 402.81"/><path class="cls-7" d="M217.21,572.8c-6.37,0-13.55-5.49-13.85-5.72-.82-.64-.97-1.82-.34-2.64,.63-.83,1.81-.98,2.64-.34,.06,.05,6.47,4.94,11.55,4.94,5.64,0,12.81-1.24,16.03-4.73,.7-.76,1.9-.81,2.66-.1,.77,.71,.81,1.9,.11,2.66-5.08,5.51-15.67,5.94-18.79,5.94Z"/><path class="cls-8" d="M157.73,192.06c1.77,5.33,6.74,9.2,12.67,9.2,7.4,0,13.41-6.01,13.41-13.41,0-3.21-1.18-6.12-3.06-8.43-6.37,4.33-13.09,8.26-19.92,11.14-1.1,.46-2.07,1-3.09,1.5Z"/><path class="cls-8" d="M244.98,187.85c0,7.4,6,13.41,13.41,13.41s13.41-6.01,13.41-13.41c0-1.83-.37-3.56-1.03-5.15-4.34-2.37-8.64-5.11-12.61-8.23-7.29,.13-13.17,6.06-13.17,13.39Z"/></svg>