<?xml version="1.0" encoding="UTF-8"?><svg id="Layer_1" xmlns="http://www.w3.org/2000/svg" viewBox="0 0 432 852"><defs><style>.cls-1{fill:#6b282b;}.cls-2{fill:#f2bf8c;}.cls-3{fill:#edbb8e;}.cls-4{fill:#fbca9c;}.cls-5{fill:#1c1e23;}.cls-6{fill:#725c44;}.cls-7{fill:#5b2226;}.cls-8{fill:#492027;}.cls-9{fill:#353029;}.cls-10{fill:#3a2d20;}.cls-11{fill:#282b33;}</style></defs><path class="cls-4" d="M117.32,533.71l.11,4.93,.8,21.35s2.1,14.47,16.08,15.22c18.52,.99,19.76-15.75,19.76-15.75l.42-23.16-37.17-2.58Z"/><path class="cls-1" d="M155.5,561.81l-8.36,10.4-7.99,243.9h53.95l11.07-215.21h9.89l24.04,215.21h50.87l-24.01-241.7-10.93-19.93s-75.13-.26-98.52,7.33Z"/><path class="cls-11" d="M118.03,842.82h85.76s-.88-36.53-38.7-39.61c-37.82-3.08-47.06,39.61-47.06,39.61Z"/><path class="cls-11" d="M221.14,842.82l85.75-1.45s-1.5-36.51-39.37-38.95c-37.87-2.44-46.38,40.4-46.38,40.4Z"/><path class="cls-7" d="M204.16,602.66c-9.74,0-14.63-7.76-14.84-8.09-.51-.83-.25-1.9,.57-2.42,.82-.51,1.9-.26,2.42,.56,.16,.26,4.11,6.43,11.85,6.43h11.21c-.09-.02,7.44-1.52,11.04-6.53,.56-.79,1.66-.97,2.45-.4,.79,.56,.97,1.67,.41,2.45-4.47,6.22-13.2,7.89-13.57,7.96l-11.53,.03Z"/><path class="cls-11" d="M217.94,352.31l12.75-20.67,17.35,26.65s34.72-4.14,39.1,2.6c2.74,4.2,41.63,88.18,42.51,91.7,.88,3.52,4.84,14.95-2.64,25.95-7.48,11-40.46,59.37-40.46,59.37l-27.71-27.27,32.11-48.82-26-58.94v171.53h-117.89l.07-35.63-32.54-.44,7.1-163.17s-1.39-28.59,18.25-27.27c12.45,.84,26.91,.88,26.91,.88l15.62-20.67,13.19,24.63,22.28-.44Z"/><path class="cls-5" d="M147.14,398.27c-1.97-.09-3.95,140.52-3.95,140.52h3.95c.05,0,0-140.52,0-140.52Z"/><rect class="cls-5" x="205.49" y="359.35" width="1.9" height="215.07"/><path class="cls-8" d="M183.87,49.5s-5.91-13.63-20.23-23.97c0,0,16.47-17.67,41.03-16.27,24.55,1.4,40.51,16.27,40.51,16.27,0,0-19.3,10.12-19.3,27.05l-42-3.08Z"/><g><path class="cls-6" d="M184.4,59.04s-6.45-6.16-2.64-11.14c3.81-4.98,15.22-7.18,24.92-6.01,9.7,1.17,16.64,2.92,19.9,8.72,3.26,5.8,2.97,10.11,2.97,10.11l-45.15-1.67Z"/><path class="cls-10" d="M181.17,54.29c1.08,2.7,3.23,4.75,3.23,4.75l45.15,1.67s.08-1.48-.48-3.83c-13.04-11.87-32.98-10.07-47.9-2.6Z"/><path class="cls-6" d="M180.29,66.08s-2.07-8.31,3.51-11.78c5.58-3.47,18.78-4.64,28.45-2.88,9.67,1.76,19.24,5.87,18.12,14.66-1.12,8.79-50.08,0-50.08,0Z"/></g><g><path class="cls-4" d="M190.23,310.63v37.53s0,14.09,17.01,14.08c14.67-.02,13.49-15.25,13.49-15.25l.02-36.35h-30.51Z"/><path class="cls-2" d="M190.38,322.45c4.45,2.75,11,1.26,15.98,1.11,5.07-.16,9.73-1.14,14.38-2.66v-10.27h-30.51v11.76c.05,.03,.1,.02,.15,.06Z"/></g><path class="cls-8" d="M137.46,227.08l-27.27-6.03s-8.21-31.23-8.28-61.57c-.07-30.35,14.44-98.52,96.68-98.52s99.84,59.82,102.47,92.36c2.64,32.54-7.92,59.37-7.92,59.37l-155.69,14.39Z"/><path class="cls-4" d="M246.53,133.97c-29.03-3.08-40.46,23.6-40.46,23.6,0,0-14.45-27.42-45.23-21.7-30.79,5.72-35.25,36.36-35.25,36.36v110.83c0,20.65,34.67,37.38,77.43,37.38s77.43-16.74,77.43-37.38c0,0-.09-92.65,0-107.31,.09-14.66-4.89-38.7-33.92-41.78Z"/><path class="cls-4" d="M139.81,226.18c0,10.85-8.8,19.65-19.65,19.65s-19.65-8.8-19.65-19.65,8.8-19.64,19.65-19.64,19.65,8.8,19.65,19.64Z"/><path class="cls-4" d="M303.62,226.18c0,10.85-8.8,19.65-19.65,19.65s-19.65-8.8-19.65-19.65,8.8-19.64,19.65-19.64,19.65,8.8,19.65,19.64Z"/><polygon class="cls-3" points="206.99 189.39 196.41 189.39 187.16 258.88 217.94 258.88 206.99 189.39"/><path class="cls-9" d="M172.02,203.05c0,7.55-6.12,13.67-13.66,13.67s-13.67-6.12-13.67-13.67,6.12-13.66,13.67-13.66,13.66,6.12,13.66,13.66Z"/><path class="cls-9" d="M259.45,203.05c0,7.55-6.12,13.67-13.67,13.67s-13.66-6.12-13.66-13.67,6.11-13.66,13.66-13.66,13.67,6.12,13.67,13.66Z"/><path class="cls-9" d="M163.63,287.22c-.92,0-1.7-.72-1.76-1.66-.06-.97,.68-1.8,1.65-1.86,.6-.04,60.2-3.77,78.45-28.75,.57-.78,1.67-.96,2.46-.39,.79,.57,.96,1.68,.38,2.46-19.23,26.32-78.57,30.04-81.09,30.18-.04,0-.07,0-.1,0Z"/><polygon class="cls-5" points="166.86 348.79 157.26 360.89 186.29 358.25 161.22 359.35 166.86 348.79"/><polygon class="cls-5" points="244.2 353.3 253.79 365.4 224.77 362.76 249.84 363.86 244.2 353.3"/><path class="cls-5" d="M221.93,389.47c0,2.55-2.07,4.62-4.62,4.62s-4.62-2.07-4.62-4.62,2.07-4.62,4.62-4.62,4.62,2.07,4.62,4.62Z"/><path class="cls-5" d="M221.93,428.56c0,2.55-2.07,4.62-4.62,4.62s-4.62-2.07-4.62-4.62,2.07-4.62,4.62-4.62,4.62,2.07,4.62,4.62Z"/><path class="cls-5" d="M221.93,467.65c0,2.55-2.07,4.62-4.62,4.62s-4.62-2.07-4.62-4.62,2.07-4.62,4.62-4.62,4.62,2.07,4.62,4.62Z"/><path class="cls-5" d="M221.93,506.74c0,2.55-2.07,4.62-4.62,4.62s-4.62-2.07-4.62-4.62,2.07-4.62,4.62-4.62,4.62,2.07,4.62,4.62Z"/><path class="cls-5" d="M221.93,545.83c0,2.55-2.07,4.62-4.62,4.62s-4.62-2.07-4.62-4.62,2.07-4.62,4.62-4.62,4.62,2.07,4.62,4.62Z"/><rect class="cls-5" x="158.14" y="394.09" width="29.03" height="8.35"/><path class="cls-4" d="M259.27,508.36l-3.3,3.66-14.05,16.09s-8.4,11.97,1.26,22.1c12.8,13.43,25.18,2.09,25.18,2.09l16.19-16.57-25.28-27.37Z"/></svg>