<?xml version="1.0" encoding="UTF-8"?><svg id="Layer_1" xmlns="http://www.w3.org/2000/svg" xmlns:xlink="http://www.w3.org/1999/xlink" viewBox="0 0 432 852"><defs><style>.cls-1{clip-path:url(#clippath);}.cls-2{fill:#66a6c6;}.cls-3{fill:#fff;}.cls-4{fill:#f2bf8c;}.cls-5{fill:#fbca9c;}.cls-6{fill:#dbdbdb;}.cls-7{fill:#252625;}.cls-8{fill:#24353f;}.cls-9{fill:#2a3d4b;}.cls-10{fill:#353029;}.cls-11{fill:#467d9e;}</style><clipPath id="clippath"><rect class="cls-3" x="162.64" y="239.42" width="87.91" height="19.99"/></clipPath></defs><g><path class="cls-7" d="M148.06,789.74s-9.36,4.77-9.53,6.53c-.17,1.77-2.02,10.17,3.58,10.45,5.61,.27,58.05-1.46,64.34-4.15,6.3-2.68,1.3-13.09-1.3-13.56-2.6-.47-57.1,.73-57.1,.73Z"/><path class="cls-5" d="M179.23,602.32s-6.56,143.61-10.06,151.02c-3.5,7.41-31.73,25.53-31.32,31.31,.41,5.79-1.85,11.76,15.06,10.56,16.92-1.21,58.82-3.3,57.42-10.36-1.4-7.06-17.25-25.17-21.01-33.85-3.74-8.68,8.78-144.67,8.78-144.67l-18.89-4.02Z"/><path class="cls-7" d="M147.84,773.15s19.47-6.29,23.26,20.75l3.08,3,2.34-3.33s.16-10.34,8.97-18.56c8.8-8.24,15.57-5.99,15.57-5.99l-4.06-5.73s-16.91,1.81-22.21,12.37c0,0-6.88-10.36-18.62-9.45l-8.32,6.95Z"/></g><g><path class="cls-7" d="M298.51,789.74s9.36,4.77,9.52,6.53c.17,1.77,2.03,10.17-3.58,10.45-5.61,.27-58.05-1.46-64.34-4.15-6.3-2.68-1.3-13.09,1.3-13.56,2.61-.47,57.1,.73,57.1,.73Z"/><path class="cls-5" d="M267.34,602.32s6.56,143.61,10.05,151.02c3.5,7.41,31.73,25.53,31.32,31.31-.41,5.79,1.85,11.76-15.07,10.56-16.92-1.21-58.82-3.3-57.42-10.36,1.4-7.06,17.26-25.17,21.01-33.85,3.74-8.68-8.78-144.67-8.78-144.67l18.89-4.02Z"/><path class="cls-7" d="M298.72,773.15s-19.47-6.29-23.26,20.75l-3.08,3-2.34-3.33s-.15-10.34-8.97-18.56c-8.8-8.24-15.57-5.99-15.57-5.99l4.06-5.73s16.91,1.81,22.21,12.37c0,0,6.88-10.36,18.62-9.45l8.33,6.95Z"/></g><polygon class="cls-9" points="173.3 476.71 155.83 490.12 153.18 630.13 213.07 630.81 216.05 575.23 225.84 575.23 233.37 630.81 290.59 630.81 283.45 490.12 173.3 476.71"/><path class="cls-11" d="M146.46,321.88s40.75-10.25,63.66-12.04c22.91-1.78,77.35,12.04,77.35,12.04l45.18,58.07-40.16,34.36-14.28-16.51,5.24,92.32h-127.62l-.78-92.32-13.83,16.51-41.94-32.47,47.18-59.96Z"/><path class="cls-9" d="M215.13,328.26c10.97-1.21,14.66-8.59,15.79-17.4-7.96-.97-15.3-1.44-20.8-1.02-6.64,.52-14.79,1.75-23.01,3.23,5.24,10.17,14.52,16.67,28.03,15.18Z"/><polygon class="cls-2" points="279.69 433.94 278.26 399.14 155.06 399.14 155.27 433.94 279.69 433.94"/><path class="cls-5" d="M194.05,270.86v44.19s1.98,9.89,16.07,10.13c15.39,.27,16.06-10.13,16.06-10.13v-44.19h-32.13Z"/><path class="cls-4" d="M226.18,285.7v-14.84h-32.13v16.31c11.75,3.49,21.53,2.21,32.13-1.46Z"/><path class="cls-7" d="M145.24,248.67s-29.9-23.65-37.04-93.14c-9.54-92.81,83.89-111.14,116.02-110.25,32.13,.89,90.04,37.05,86.92,102.35-3.12,65.3-37.83,96.67-37.83,96.67l-128.06,4.37Z"/><path class="cls-5" d="M138.54,172.01s-8.48,69.17,7.14,89.25c15.62,20.08,53.99,26.5,70.95,24.85,16.96-1.65,60.7-14.15,63.81-65.49,1.69-27.85,0-40.92,0-40.92,0,0-40.16-7.68-53.99-58.55,0,0-3.33,22.76-17.06,29,0,0,7.93-22.76,0-35.7,0,0-9.71,42.39-70.85,57.56Z"/><path class="cls-5" d="M145.17,182.25c0,6.9-5.59,12.49-12.49,12.49s-12.49-5.59-12.49-12.49,5.59-12.49,12.49-12.49,12.49,5.6,12.49,12.49Z"/><path class="cls-5" d="M297.78,191.01c0,6.9-5.59,12.49-12.49,12.49s-12.49-5.59-12.49-12.49,5.59-12.49,12.49-12.49,12.49,5.59,12.49,12.49Z"/><path class="cls-10" d="M160.63,202.18c-.53,0-1.06-.24-1.41-.69-.61-.78-.46-1.9,.32-2.5l15.04-11.66-20.12-7.13c-.93-.33-1.41-1.35-1.09-2.28,.33-.93,1.35-1.42,2.28-1.08l23.2,8.22c.62,.22,1.06,.75,1.17,1.4s-.15,1.29-.67,1.69l-17.63,13.66c-.32,.25-.71,.37-1.09,.37Z"/><path class="cls-10" d="M252.99,200.4c.54,0,1.06-.24,1.42-.69,.6-.78,.46-1.9-.32-2.5l-15.04-11.67,20.12-7.13c.93-.33,1.41-1.35,1.09-2.28-.33-.93-1.35-1.42-2.28-1.08l-23.2,8.22c-.61,.22-1.06,.75-1.16,1.4-.1,.64,.15,1.29,.67,1.69l17.63,13.67c.32,.25,.71,.37,1.09,.37Z"/><path class="cls-4" d="M225.11,209.04c0,5.11-4.14,9.26-9.26,9.26h-18.08c-5.11,0-9.26-4.14-9.26-9.26h0c0-5.11,4.14-9.26,9.26-9.26h18.08c5.11,0,9.26,4.14,9.26,9.26h0Z"/><g><rect class="cls-3" x="162.64" y="239.42" width="87.91" height="19.99"/><g class="cls-1"><rect class="cls-6" x="178.47" y="230.49" width="2.06" height="34.81"/><rect class="cls-6" x="197.29" y="230.49" width="2.06" height="34.81"/><rect class="cls-6" x="216.11" y="230.49" width="2.06" height="34.81"/><rect class="cls-6" x="234.93" y="230.49" width="2.06" height="34.81"/><rect class="cls-6" x="159.71" y="248.41" width="110.86" height="2.07"/></g></g><path class="cls-5" d="M298.91,408.81l10.88,12.15-48.42,46.22s-6.81,10.09,.8,20.47c10.37,14.14,24.82,1.68,24.82,1.68,0,0,64.46-51.98,63.51-64.42-.95-12.44-24.57-39.22-24.57-39.22l-27.03,23.12Z"/><path class="cls-5" d="M136.24,410.65l-14.15,16.6,49.52,45.02s7.05,9.93-.3,20.49c-10.02,14.38-24.77,2.28-24.77,2.28,0,0-65.71-50.4-65.06-62.85,.64-12.46,26.61-43.52,26.61-43.52l28.15,21.98Z"/><path class="cls-8" d="M224.12,575.04c-1.11,0-2.26-.01-3.43-.02l-3.7-.02c-8.79,0-14.97-1.78-15.23-1.86-.94-.28-1.49-1.27-1.21-2.21,.28-.95,1.27-1.49,2.22-1.21,.06,.02,5.98,1.72,14.22,1.72l3.72,.02c6.92,.05,12.87,.1,16.3-1.62,.89-.44,1.95-.08,2.4,.8,.44,.88,.08,1.95-.8,2.39-3.53,1.76-8.59,2.01-14.49,2.01Z"/></svg>