<?xml version="1.0" encoding="UTF-8"?><svg id="Layer_1" xmlns="http://www.w3.org/2000/svg" viewBox="0 0 432 852"><defs><style>.cls-1{fill:#f2bf8c;}.cls-2{fill:#fbca9c;}.cls-3{fill:#6dc1b5;}.cls-4{fill:#2a3d4b;}.cls-5{fill:#353029;}.cls-6{fill:#282a2b;}</style></defs><g><path class="cls-4" d="M161.25,811.79s-9.65,4.91-9.82,6.73c-.17,1.82-2.09,10.48,3.69,10.76,5.78,.28,59.82-1.51,66.3-4.27,6.49-2.76,1.33-13.49-1.34-13.97-2.68-.49-58.84,.75-58.84,.75Z"/><path class="cls-2" d="M193.37,618.66s-6.76,147.98-10.36,155.62c-3.61,7.64-32.7,26.3-32.27,32.27,.43,5.96-1.9,12.12,15.52,10.88,17.43-1.25,60.61-3.4,59.17-10.67-1.45-7.28-17.78-25.93-21.65-34.88-3.86-8.94,9.05-149.07,9.05-149.07l-19.46-4.14Z"/><path class="cls-4" d="M161.02,794.68s20.07-6.48,23.97,21.38l3.17,3.09,2.41-3.43s.16-10.65,9.24-19.13c9.07-8.49,16.04-6.17,16.04-6.17l-4.19-5.9s-17.43,1.87-22.89,12.74c0,0-7.09-10.67-19.18-9.74l-8.58,7.17Z"/></g><g><path class="cls-4" d="M316.28,811.79s9.64,4.91,9.81,6.73c.17,1.82,2.09,10.48-3.69,10.76-5.78,.28-59.82-1.51-66.3-4.27-6.49-2.76-1.34-13.49,1.34-13.97,2.69-.49,58.84,.75,58.84,.75Z"/><path class="cls-2" d="M284.15,618.66s6.76,147.98,10.36,155.62c3.61,7.64,32.7,26.3,32.27,32.27-.43,5.96,1.9,12.12-15.53,10.88-17.43-1.25-60.61-3.4-59.17-10.67,1.44-7.28,17.78-25.93,21.65-34.88,3.86-8.94-9.05-149.07-9.05-149.07l19.46-4.14Z"/><path class="cls-4" d="M316.5,794.68s-20.07-6.48-23.97,21.38l-3.18,3.09-2.4-3.43s-.16-10.65-9.24-19.13c-9.07-8.49-16.04-6.17-16.04-6.17l4.19-5.9s17.42,1.87,22.88,12.74c0,0,7.09-10.67,19.18-9.74l8.58,7.17Z"/></g><path class="cls-2" d="M140.25,415.24l-5.16,158.18s4.38,12.03,15.34,12.48c15.37,.63,18.28-15.61,18.28-15.61l2.62-163.96-31.09,8.92Z"/><path class="cls-2" d="M324.11,415.24l5.16,158.18s-4.38,12.03-15.34,12.48c-15.36,.63-18.28-15.61-18.28-15.61l-2.62-163.96,31.09,8.92Z"/><polygon class="cls-4" points="187.26 526.02 169.25 539.83 166.52 647.31 228.24 648.02 231.31 590.74 241.39 590.74 249.16 648.02 308.11 648.02 300.75 539.83 187.26 526.02"/><path class="cls-3" d="M159.59,329.69s42-10.56,65.6-12.4c23.61-1.84,79.7,12.4,79.7,12.4,0,0,17.17,3.23,20.69,40.17l3.68,48.13s-17.47,4.6-34.48,3.22l5.98,118.63H169.25l1.38-115.87-37.7-2.29s-4.13-85.04,26.67-91.98Z"/><path class="cls-4" d="M172.93,386.08c.59-6.43-3.07-5.99-8.82-6.41-9.79-.72-19.27-3.08-29.02-4.03-3.26,23.05-2.15,46.04-2.15,46.04l37.7,2.29s1.92-33.82,2.29-37.89Z"/><path class="cls-4" d="M293.4,376.78c-.52,.26-1.01,.64-1.44,1.19-1.8,2.26-.79,6.57-.68,9.21,.16,3.8,.57,7.59,.99,11.37,.71,6.39,1.75,12.77,2.24,19.18,.09,1.15,.2,2.32,.3,3.47,17.01,1.37,34.46-3.22,34.46-3.22,0,0-3.42-44.79-3.42-44.8-.08-1.01-23.57,1.73-26.24,2.55-2.05,.64-4.35,.11-6.2,1.04Z"/><path class="cls-4" d="M222.11,373.6c1.68,.98,6.44,2.16,10.29,1.41,3.85-.74,10.27-6.01,14.11-14.18,6.02-12.83,11.49-26.59,12.15-40.77-12.02-1.89-25.46-3.39-33.47-2.77-9.43,.74-21.79,2.87-33.24,5.16,4.56,10.89,23.3,47.13,30.16,51.15Z"/><path class="cls-2" d="M208.64,277.12v45.54s2.04,10.19,16.55,10.44c15.86,.28,16.56-10.44,16.56-10.44v-45.54h-33.11Z"/><path class="cls-1" d="M241.75,292.41v-15.29h-33.11v16.8c12.11,3.6,22.19,2.28,33.11-1.51Z"/><path class="cls-6" d="M345.97,149.9c0,70.26-58.19,127.21-129.98,127.21s-129.97-56.95-129.97-127.21S144.22,22.69,215.99,22.69s129.98,56.95,129.98,127.21Z"/><path class="cls-2" d="M139.44,137.71s-2.52,113.83,15.25,130.99c17.78,17.17,46.59,26.05,72.96,24.37,26.36-1.68,69.27-21.14,69.89-64.44,.61-43.3,0-54.95,0-54.95,0,0-12.19-5.13-22.07-14.1-3.89-3.53,5.06,13.56,5.06,13.56,0,0-18.85,3.91-48.28-23.23,0,0,3.68,19.48,14.41,24.38,0,0-31.57,1.53-62.53-28.81,0,0,.61,22.38,5.52,26.97,0,0-37.86,.4-50.2-34.74Z"/><path class="cls-2" d="M153.21,188.76c0,8.71-7.07,15.78-15.79,15.78s-15.79-7.07-15.79-15.78,7.07-15.78,15.79-15.78,15.79,7.06,15.79,15.78Z"/><path class="cls-2" d="M315.49,188.76c0,8.71-7.06,15.78-15.79,15.78s-15.78-7.07-15.78-15.78,7.07-15.78,15.78-15.78,15.79,7.06,15.79,15.78Z"/><polygon class="cls-1" points="210.48 204.54 227.03 204.54 237.46 236.21 200.67 235.31 210.48 204.54"/><path class="cls-5" d="M177.12,188.06c0,5.85-4.75,10.6-10.6,10.6s-10.6-4.75-10.6-10.6,4.75-10.61,10.6-10.61,10.6,4.75,10.6,10.61Z"/><path class="cls-5" d="M279.79,188.06c0,5.85-4.75,10.6-10.6,10.6s-10.61-4.75-10.61-10.6,4.75-10.61,10.61-10.61,10.6,4.75,10.6,10.61Z"/><path class="cls-5" d="M220.28,266.05c-17.28,0-31.45-9.4-32.22-9.91-.84-.57-1.06-1.71-.49-2.55,.57-.85,1.71-1.07,2.55-.5,.23,.15,22.94,15.18,44.74,6.58,21.72-8.57,24.12-26,24.14-26.18,.13-1.01,1-1.74,2.05-1.6,1.01,.12,1.73,1.04,1.6,2.05-.1,.8-2.71,19.78-26.44,29.14-5.4,2.13-10.81,2.96-15.93,2.96Z"/></svg>