<?xml version="1.0" encoding="UTF-8"?><svg id="Layer_1" xmlns="http://www.w3.org/2000/svg" viewBox="0 0 432 852"><defs><style>.cls-1{fill:#f2bf8c;}.cls-2{fill:#fbca9c;}.cls-3{fill:#fed3aa;}.cls-4{fill:#333130;}.cls-5{fill:#443429;}.cls-6{fill:#6faf3e;}.cls-7{fill:#353029;}.cls-8{fill:#4c392c;}.cls-9{fill:#255b33;}.cls-10{fill:#276338;}</style></defs><g><path class="cls-10" d="M317.67,791.67l5.62,6.18s1.86,9.17-1.7,9.65c-.46,.06-65.84-.83-69.11-2.21-2.4-1.02-1.72-10.36-1.72-10.36l6.42-3.84,60.5,.58Z"/><path class="cls-3" d="M271.78,605.71l-.8,161.91s42.18-7.49,49.88,7.12c7.68,14.61,2.43,23.11,2.43,23.11l-72.53-2.92-5.24-191.66,26.26,2.44Z"/><path class="cls-10" d="M312.59,768.34s-17.03,3.46-23.62,28.64l-7.96-.45s1.97-8.98,7.8-16.78c5.61-7.51,15.03-13.86,16.73-13.72,3.45,.31,7.05,2.31,7.05,2.31Z"/></g><g><path class="cls-10" d="M128.18,791.06l-5.56,6.23s-1.78,9.19,1.78,9.64c.47,.05,65.83-1.41,69.09-2.82,2.4-1.04,1.63-10.37,1.63-10.37l-6.45-3.78-60.49,1.11Z"/><path class="cls-3" d="M172.43,604.7l2.22,161.89s-42.25-7.11-49.81,7.56c-7.56,14.68-2.22,23.13-2.22,23.13l72.5-3.56,3.56-191.69-26.24,2.67Z"/><path class="cls-10" d="M133.05,767.69s17.06,3.32,23.87,28.43l7.95-.52s-2.05-8.96-7.95-16.71c-5.67-7.46-15.16-13.73-16.84-13.57-3.45,.33-7.03,2.37-7.03,2.37Z"/></g><g><path class="cls-8" d="M117.16,206.2s-19.48-29.67-12.54-72.79c6.95-43.12,49.76-73.38,88.64-85.04,38.88-11.66,74.17,4.33,74.04,30.08,0,0,18.63-8.04,30.27,14.65,11.64,22.69,15.21,71.77-1.81,110.03l-178.6,3.08Z"/><path class="cls-5" d="M138.08,151.18l-3.42,.97s-6.18,3.7-8.75,19.03c-1.48,8.87-.74,16.1,5.19,19.52l11.34,2.22-4.36-41.74Z"/><polygon class="cls-10" points="172.71 478.55 155.3 491.91 152.66 631.46 212.36 632.14 215.32 576.74 225.08 576.74 232.59 632.14 289.61 632.14 282.5 491.91 172.71 478.55"/><path class="cls-6" d="M145.96,324.23s40.62-10.22,63.45-12c22.83-1.78,77.09,12,77.09,12,0,0,44.52,57.81,62.53,85.94,4.21,6.58,8.86,16.11,4.73,27.48-4.13,11.38-54.44,46.54-54.44,46.54l-29.46-28.64,39.14-35.28-31.63-37.66,5.11,109.3h-127.2l-1.37-109.3-29.52,43.86,37.56,31.22-27.8,35.89s-35.68-27.53-50.21-40.64c-14.53-13.11-2.97-32.38-2.97-32.38l64.96-96.33Z"/><path class="cls-10" d="M201.71,357.17c12.95,7.8,23.12-4.83,28.05-15.84,3.72-8.31,8.1-17.47,10.49-26.66-11.67-1.84-23.07-3.04-30.84-2.44-9.1,.71-21.01,2.76-32.07,4.97,5.52,14.41,11.66,32.31,24.36,39.97Z"/><path class="cls-2" d="M193.4,273.37v44.04s1.97,9.86,16.01,10.1c15.34,.27,16.01-10.1,16.01-10.1v-44.04h-32.02Z"/><path class="cls-1" d="M225.42,288.16v-14.79h-32.02v16.25c11.71,3.48,21.46,2.2,32.02-1.46Z"/><path class="cls-2" d="M272.58,457.52l-12.07,11.52s-6.8,10.07,.8,20.4c10.34,14.09,24.73,1.67,24.73,1.67,0,0,4.48-3.61,11.02-9.13l-24.48-24.47Z"/><path class="cls-2" d="M171.03,474.13l-12.93-11.76-21.15,27.31,9.1,7.14s14.7,12.06,24.69-2.27c7.33-10.52,.3-20.42,.3-20.42Z"/><path class="cls-9" d="M223.37,576.55c-1.11,0-2.25-.01-3.42-.02l-3.68-.02c-8.76,0-14.92-1.77-15.18-1.85-.94-.28-1.48-1.27-1.21-2.2,.28-.95,1.27-1.49,2.21-1.21,.06,.01,5.96,1.7,14.18,1.7l3.71,.02c6.9,.05,12.83,.1,16.25-1.61,.88-.44,1.95-.08,2.39,.8,.44,.88,.09,1.95-.8,2.38-3.52,1.76-8.56,2.01-14.45,2.01Z"/><path class="cls-2" d="M135.71,152.28s-14.19,81.08,12.48,110.63c26.67,29.55,92.18,36.5,117.12-1.64,24.95-38.14,13.36-113.12,13.36-113.12,0,0-13.18,11.54-32.79,1.02,0,0-19.17,20.11-42.35,20.29-23.18,.19-56.78-24.99-67.82-17.18Z"/><path class="cls-2" d="M145.86,206.22c0,10.46-8.48,18.94-18.94,18.94s-18.95-8.48-18.95-18.94,8.48-18.95,18.95-18.95,18.94,8.48,18.94,18.95Z"/><path class="cls-2" d="M307.31,206.22c0,10.46-8.48,18.95-18.94,18.95s-18.95-8.48-18.95-18.95,8.48-18.95,18.95-18.95,18.94,8.48,18.94,18.95Z"/><polygon class="cls-1" points="203.64 195.36 197.73 231.16 218.89 231.16 210.56 195.36 203.64 195.36"/><path class="cls-7" d="M173.8,264.66c-.87-.01-1.6-.75-1.64-1.7-.04-.99,.67-1.82,1.59-1.86,.57-.03,57.02-3.07,74.64-28.1,.55-.79,1.59-.95,2.33-.36,.74,.59,.88,1.71,.33,2.49-18.56,26.37-74.77,29.4-77.15,29.52-.03,0-.07,.01-.1,.01Z"/><path class="cls-4" d="M174.85,189.25c0,5.07-4.11,9.19-9.19,9.19s-9.19-4.12-9.19-9.19,4.11-9.19,9.19-9.19,9.19,4.12,9.19,9.19Z"/><path class="cls-4" d="M260.15,189.25c0,5.07-4.12,9.19-9.19,9.19s-9.19-4.12-9.19-9.19,4.12-9.19,9.19-9.19,9.19,4.12,9.19,9.19Z"/><path class="cls-4" d="M178.51,177.63c-.08-.01-.16-.03-.23-.05l-32.39-9.39c-.94-.27-1.48-1.26-1.21-2.2,.27-.94,1.28-1.49,2.2-1.22l32.39,9.39c.94,.27,1.49,1.26,1.21,2.2-.25,.86-1.1,1.39-1.97,1.27Z"/><path class="cls-4" d="M232.86,178.03c.08-.01,.16-.03,.24-.05l32.14-10.2c.94-.3,1.45-1.3,1.16-2.23s-1.31-1.45-2.24-1.16l-32.14,10.19c-.93,.3-1.45,1.3-1.16,2.24,.27,.86,1.13,1.37,2,1.21Z"/></g></svg>