<?xml version="1.0" encoding="UTF-8"?><svg id="Layer_1" xmlns="http://www.w3.org/2000/svg" viewBox="0 0 432 852"><defs><style>.cls-1{fill:#eab783;}.cls-2{fill:#ffcc94;}.cls-3{fill:#877966;}.cls-4{fill:#dedad3;}.cls-5{fill:#d3c1a3;}.cls-6{fill:#af9a80;}.cls-7{fill:#353029;}.cls-8{fill:#3a3a3a;}.cls-9{fill:#60594e;}</style></defs><path class="cls-9" d="M298.68,786.66l7.98,5.14s34.18-4.24,41.01,5.85c6.84,10.09,.57,19.77-9.11,21.48-9.68,1.71-71.47-.25-79.6-4.4-8.12-4.15-4.89-22.94-4.89-22.94l8.16-9.02,36.46,3.87Z"/><path class="cls-9" d="M154.09,786.66l-7.98,5.14s-34.18-4.24-41.02,5.85c-6.83,10.09-.57,19.77,9.12,21.48,9.68,1.71,71.47-.25,79.6-4.4,8.12-4.15,4.89-22.94,4.89-22.94l-8.16-9.02-36.46,3.87Z"/><polygon class="cls-6" points="150.95 489.02 141.04 497.9 136.69 791.52 199.66 791.52 217.27 571.72 227 571.72 253.28 791.52 315.87 791.52 299.2 497.9 287.68 489.02 150.95 489.02"/><path class="cls-2" d="M335.93,534.31c-9.51,0-18.13-6.48-20.47-16.12l-16.01-66.16c-2.74-11.32,4.22-22.71,15.53-25.44,11.34-2.73,22.71,4.22,25.44,15.53l16.01,66.16c2.74,11.32-4.22,22.71-15.53,25.44-1.67,.4-3.33,.6-4.97,.6Z"/><path class="cls-2" d="M96.06,534.16c-1.76,0-3.55-.22-5.33-.69-11.26-2.94-18.01-14.45-15.08-25.71l17.17-65.87c2.94-11.27,14.44-18.02,25.71-15.08,11.26,2.94,18.01,14.45,15.08,25.71l-17.17,65.87c-2.47,9.48-11.02,15.77-20.38,15.77Z"/><path class="cls-4" d="M258.81,313.06s38.88-19.23,49.79,4.78c7.74,17.01,44.43,147.54,44.43,147.54l-49.64,12.01-44.59-164.33Z"/><path class="cls-4" d="M174.82,314.03s-38.88-19.23-49.79,4.77c-7.74,17.02-44.44,147.55-44.44,147.55l49.64,12.01,44.59-164.33Z"/><g><path class="cls-4" d="M141.04,497.9h158.16s.03-130.88-1.37-150.49c-1.11-15.65-18.77-32.21-52.96-37.68-8.66-1.38-18.38-2.07-29.16-1.84-10.91,.24-20.48,1.28-28.82,2.96-33.35,6.69-46.89,23.37-46.78,37.66,.13,17.87,.93,149.39,.93,149.39Z"/><g><path class="cls-2" d="M232.79,283.13h-33.62l.26,33.61c.93,8.36,7.94,14.89,16.55,14.89s15.62-6.53,16.55-14.89l.26-33.61Z"/><path class="cls-1" d="M232.65,301.48l.14-18.35h-33.62l.15,19.79c15.22,3.13,22.32,1.25,33.32-1.44Z"/></g><path class="cls-8" d="M115.87,215.98l203.08,4.35,17.95-47.18s9.68-27.32-9.12-36.73c0,0,22.79-12.84,21.65-44.73-1.14-31.91-31.33-52.41-128.75-58.68-97.41-6.27-125.9,27.92-127.04,54.12-1.14,26.21,17.66,41.87,17.66,41.87,0,0-12.7,1.5-14.99,16.58-2.27,15.08,19.55,70.41,19.55,70.41Z"/><polygon class="cls-2" points="126.26 139.53 138.23 301.9 299.3 301.9 308.28 139.53 126.26 139.53"/><path class="cls-2" d="M146.2,213.59c0,8.97-7.27,16.23-16.24,16.23s-16.23-7.27-16.23-16.23,7.27-16.24,16.23-16.24,16.24,7.27,16.24,16.24Z"/><path class="cls-2" d="M322.51,213.59c0,8.97-7.27,16.23-16.24,16.23s-16.24-7.27-16.24-16.23,7.27-16.24,16.24-16.24,16.24,7.27,16.24,16.24Z"/><polygon class="cls-1" points="203.6 190.37 224.96 190.37 239.92 248.49 192.06 248.49 203.6 190.37"/><path class="cls-7" d="M228.02,271.18c-10.47,0-18.35-2.4-18.52-2.45-.9-.29-1.4-1.24-1.12-2.14,.28-.9,1.24-1.4,2.14-1.11,1.6,.5,39.52,11.99,57.82-19.32,.48-.81,1.52-1.09,2.34-.61,.82,.48,1.09,1.52,.62,2.34-11.19,19.15-29.49,23.3-43.28,23.3Z"/><polygon class="cls-9" points="199.18 307.85 172.53 309.58 201.32 324.39 188.43 329.8 214.7 351.74 214.7 313.06 199.18 307.85"/><polygon class="cls-9" points="232.79 307.85 260.12 309.58 230.66 324.39 243.45 329.8 217.27 351.74 217.27 313.06 232.79 307.85"/><rect class="cls-5" x="245.18" y="355.44" width="38.31" height="9.5"/><rect class="cls-3" x="214.7" y="313.06" width="2.57" height="184.84"/><path class="cls-7" d="M277.52,191.04c0,8.69-5.9,15.73-13.18,15.73s-13.18-7.04-13.18-15.73,5.9-15.73,13.18-15.73,13.18,7.05,13.18,15.73Z"/><path class="cls-7" d="M154.68,210.81c-.53,0-1.07-.26-1.4-.72-.54-.78-.36-1.85,.42-2.38l23.4-16.49-23.24-12.8c-.83-.46-1.13-1.49-.67-2.32,.45-.83,1.5-1.14,2.32-.67l25.64,14.12c.52,.28,.85,.81,.88,1.4,.03,.59-.24,1.15-.72,1.49l-25.64,18.07c-.3,.21-.64,.31-.98,.31Z"/></g></svg>