<?xml version="1.0" encoding="UTF-8"?><svg id="Layer_1" xmlns="http://www.w3.org/2000/svg" viewBox="0 0 432 852"><defs><style>.cls-1{fill:#eab783;}.cls-2{fill:#ffcc94;}.cls-3{fill:#a8d7e1;}.cls-4{fill:#3f342c;}.cls-5{fill:#27517d;}.cls-6{fill:#2d231b;}.cls-7{fill:#302c28;}.cls-8{fill:#313233;}.cls-9{fill:#4f4137;}</style></defs><path class="cls-2" d="M145.23,361.51l-79.62,190.13s-.24,12.22,9.37,16.39c13.47,5.85,21.66-7.61,21.66-7.61l75.53-187.01-26.93-11.9Z"/><path class="cls-2" d="M312.34,349.2s49.52-71.35,52.88-87.83-1.6-123.71-1.6-123.71c0,0,2.76-17.93-14.39-18.73-14.67-.68-14.95,16.58-14.95,16.58,0,0,3.17,102.49,.64,115.37-2.54,12.88-47.77,83.08-47.77,83.08l25.18,15.25Z"/><path class="cls-8" d="M251.22,779.83l-5.27,10.83s.88,5.2,82.84,3.81c9.37-.16,13.13-4.74,13.15-10.47,.04-8.78-9-26.35-45.67-21.44l-45.06,17.27Z"/><path class="cls-8" d="M205.02,779.83l5.27,10.83s-.88,5.2-82.84,3.81c-9.37-.16-13.13-4.74-13.15-10.47-.04-8.78,9-26.35,45.67-21.44l45.06,17.27Z"/><polygon class="cls-9" points="166.89 507.29 149.96 520.7 158.45 762.37 210.22 790.66 213.73 602.72 235.39 602.72 245.93 790.66 296.28 762.56 300.69 520.7 292.18 511.39 166.89 507.29"/><polygon class="cls-4" points="300.43 533.96 300.69 520.7 292.18 511.39 166.89 507.29 149.96 520.7 150.47 533.96 300.43 533.96"/><path class="cls-5" d="M165.2,346.55s-21.73,8.23-33.14,23.16c-11.42,14.93-25.47,46.31-25.47,46.31l55.97,21.32,2.64-90.78Z"/><g><path class="cls-3" d="M149.96,520.7h150.74s.02-129.94-1.3-149.28c-1.33-19.34-27.42-40.09-78.27-38.97-52,1.15-72.18,22.44-72.06,40.06,.12,17.63,.89,148.19,.89,148.19Z"/><path class="cls-5" d="M244.42,337.51l.03-4.09c-7.31-.75-15.17-1.14-23.75-.97-8.58,.17-16.36,.79-23.42,1.77l.03,3.29c1.33,11.27,11.3,20.06,23.56,20.06s22.23-8.79,23.55-20.06Z"/><g><path class="cls-2" d="M238.13,299.98h-34.54l.26,34.54c.96,8.59,8.16,15.3,17.01,15.3s16.05-6.7,17-15.3l.26-34.54Z"/><path class="cls-1" d="M237.99,318.36l.14-18.38h-34.54l.15,19.31c3.8,1.78,10.34,2.74,17.12,2.49,7.97-.3,15.78-2.4,17.13-3.42Z"/></g><path class="cls-7" d="M131.39,205.44s-21.37-53-15.51-80.22c5.85-27.22,42.78-47.89,72.89-40.4,35.32,8.78,42.47,3.07,50.94-.88,15.79-7.36,7.03-23.42,2.63-26.64,0,0,18.74,2.34,22.83,21.96,0,0,12-2.34,8.78-17.27,0,0,16.98,7.32,13.47,25.18,0,0,10.41-4.39,7.99-20.49,0,0,13.09,8.2,9.87,27.22,0,0,14.35,12.59,16.39,36.15,2.05,23.57-13.17,59.29-21.37,83.29l-101.58,4.68-67.33-12.57Z"/><path class="cls-2" d="M273.77,140.17c-25.36-1.27-55.73,34.81-55.73,34.81,0,0-30.51-36.07-55.87-34.81-25.36,1.27-21.42,35.65-21.42,35.65h0v88.44c0,30.56,34.6,55.32,77.28,55.32s77.28-24.77,77.28-55.32v-89.28h-.06c.4-5.29,1.5-33.65-21.49-34.81Z"/><path class="cls-2" d="M155.1,207.03c0,10.83-8.78,19.61-19.61,19.61s-19.61-8.78-19.61-19.61,8.78-19.62,19.61-19.62,19.61,8.78,19.61,19.62Z"/><path class="cls-2" d="M319.91,207.03c0,10.83-8.78,19.61-19.61,19.61s-19.61-8.78-19.61-19.61,8.78-19.62,19.61-19.62,19.61,8.78,19.61,19.62Z"/><path class="cls-6" d="M218.79,291.62c-22.94,0-33.25-15.07-33.68-15.72-.54-.81-.32-1.89,.49-2.43,.8-.54,1.89-.32,2.44,.48,.39,.58,10.05,14.42,31.24,14.15,21.14-.21,28.2-15.43,28.49-16.08,.39-.88,1.44-1.28,2.32-.89,.89,.39,1.29,1.43,.9,2.32-.33,.73-8.19,17.94-31.67,18.17-.17,0-.34,0-.51,0Z"/><path class="cls-1" d="M201.65,202.05h34.25v44.34s-1.01,15.82-17.12,14.94c-16.11-.88-17.12-14.94-17.12-14.94v-44.34Z"/><path class="cls-6" d="M172.22,200.07c0,7-4.32,12.67-9.66,12.67s-9.66-5.67-9.66-12.67,4.32-12.67,9.66-12.67,9.66,5.67,9.66,12.67Z"/><path class="cls-6" d="M280.71,198.59c0,7-4.32,12.67-9.66,12.67s-9.66-5.67-9.66-12.67,4.32-12.67,9.66-12.67,9.66,5.67,9.66,12.67Z"/></g><path class="cls-5" d="M264.14,337.9l38.9-40.2,38.9,27.56-42.73,48.15s-17.22-6.08-35.07-35.51Z"/><path class="cls-2" d="M341.51,178.64s-24.9-17.32-22.6-23.89c2.29-6.57,8.27-8.96,22.6,0v23.89Z"/></svg>