<?xml version="1.0" encoding="UTF-8"?><svg id="Layer_1" xmlns="http://www.w3.org/2000/svg" viewBox="0 0 432 852"><defs><style>.cls-1{fill:#69a038;}.cls-2{fill:#f2bf8c;}.cls-3{fill:#ffa894;}.cls-4{fill:#e5b385;}.cls-5{fill:#fbca9c;}.cls-6{fill:#1e1e1e;}.cls-7{fill:#6faf3e;}.cls-8{fill:#2d2a27;}.cls-9{fill:#353029;}.cls-10{fill:#4c392c;}.cls-11{fill:#276338;}</style></defs><path class="cls-5" d="M119.05,483.75l-4.34,4.04,1.5,22.3s2.64,15.07,17.29,15.42c19.4,.47,20.18-17.08,20.18-17.08l-.28-25.23-34.34,.55Z"/><path class="cls-7" d="M159.8,318.04l-12.29-12.73s-21.08-.99-25.32,9.42c-3.73,9.13-8.49,175.79-8.49,175.79h34.69l11.42-172.48Z"/><path class="cls-1" d="M145.03,364.28c-4.02,15.14-2.58,126.24-2.58,126.24h5.93l10.47-158.14c-6.42,10.69-10.62,19.86-13.82,31.9Z"/><g><path class="cls-6" d="M138.85,776.61s-9.21,4.69-9.38,6.43c-.16,1.74-1.99,10.01,3.53,10.28,5.53,.26,57.13-1.44,63.32-4.08,6.2-2.64,1.28-12.88-1.28-13.34-2.56-.47-56.19,.72-56.19,.72Z"/><path class="cls-5" d="M169.53,553.54s-6.46,179.96-9.9,187.25c-3.44,7.29-31.23,25.12-30.81,30.81,.41,5.69-1.82,11.57,14.82,10.39,16.64-1.19,57.88-3.25,56.5-10.19-1.38-6.95-16.97-24.76-20.67-33.31-.91-2.12-1.15-4.42-.52-21.61,.53-14.58,2.74-59.87,3.38-70.58,2.63-44.71,5.79-88.81,5.79-88.81l-18.59-3.96Z"/><path class="cls-6" d="M138.64,760.28s19.16-6.19,22.88,20.41l3.03,2.95,2.3-3.28s.16-10.17,8.83-18.27c8.67-8.11,15.32-5.89,15.32-5.89l-3.99-5.64s-16.64,1.78-21.86,12.17c0,0-6.77-10.19-18.32-9.3l-8.19,6.84Z"/></g><g><path class="cls-6" d="M287.61,776.61s9.21,4.69,9.38,6.43c.16,1.74,1.99,10.01-3.53,10.28-5.52,.26-57.13-1.44-63.32-4.08-6.2-2.64-1.28-12.88,1.28-13.34,2.56-.47,56.18,.72,56.18,.72Z"/><path class="cls-5" d="M256.94,553.54s6.46,179.96,9.9,187.25c3.44,7.29,31.22,25.12,30.81,30.81-.4,5.69,1.82,11.57-14.82,10.39-16.64-1.19-57.88-3.25-56.51-10.19,1.38-6.95,16.97-24.76,20.67-33.31,.91-2.12,1.15-4.42,.52-21.61-.53-14.58-2.74-59.87-3.38-70.58-2.64-44.71-5.79-88.81-5.79-88.81l18.59-3.96Z"/><path class="cls-6" d="M287.83,760.28s-19.16-6.19-22.89,20.41l-3.03,2.95-2.3-3.28s-.16-10.17-8.82-18.27c-8.67-8.11-15.32-5.89-15.32-5.89l3.99-5.64s16.64,1.78,21.86,12.17c0,0,6.77-10.19,18.32-9.3l8.18,6.84Z"/></g><polygon class="cls-10" points="163.69 465.07 146.49 478.26 143.89 619.55 202.82 620.22 205.75 526.88 215.38 526.88 222.8 620.22 279.1 620.22 272.07 478.26 163.69 465.07"/><path class="cls-7" d="M147.51,305.31l122.07-.98s21.08-.9,32.49,16.7c11.42,17.59,47.42,82.19,47.42,92.3,0,15.28-47.42,83.22-47.42,83.22l-31.62-24.91s39.08-52.51,39.08-58.31-36.88-61.56-36.88-61.56l-.29,126.46-125.73-.44,.88-172.48Z"/><path class="cls-5" d="M270.45,471.64l-14.71,16.83s-8.79,12.52,1.32,23.13c13.39,14.05,26.35,2.2,26.35,2.2l17.64-18.04-30.6-24.11Z"/><g><path class="cls-5" d="M193.77,270.2v32.03s.59,17.15,14.35,16.27,13.32-16.27,13.32-16.27l-1.32-32.03h-26.35Z"/><path class="cls-2" d="M207.93,282.9c4.34-.12,8.57-.07,12.69-.66l-.49-12.04h-26.35v10.4c4.74,.55,9.15,2.43,14.16,2.29Z"/></g><polygon class="cls-3" points="270.45 471.64 272.34 469.09 272.34 473.12 270.45 471.64"/><path class="cls-10" d="M98.32,205.9s-15.78-69.35-15.81-84.31c-.05-28.54,10.98-61.47,97.92-62.79,86.94-1.32,125.14,5.27,137,45.67,11.86,40.4-14.93,107.58-14.93,107.58l-204.18-6.15Z"/><path class="cls-5" d="M108.04,138.54s2.94,101.49,2.94,118.61,3.72,21.08,39,21.96c35.28,.88,125.64,.13,125.64,.13,0,0,18.57,.44,19.03-16.25,.46-16.69,.21-124.45,.21-124.45,0,0-101.87-15.55-186.82,0Z"/><circle class="cls-5" cx="106.29" cy="209.64" r="17.56"/><circle class="cls-5" cx="296.86" cy="209.64" r="17.56"/><circle class="cls-9" cx="144.27" cy="177.14" r="10.32"/><circle class="cls-9" cx="263.27" cy="177.14" r="10.32"/><polygon class="cls-4" points="198.5 166.82 187.96 227.2 212.99 227.2 198.5 166.82"/><path class="cls-8" d="M172.8,259.84c-6.51,0-10.78-.3-11.3-.34-1.01-.08-1.77-.96-1.69-1.97,.08-1,.97-1.76,1.97-1.69,.4,.03,40.23,2.87,68.79-9.63,28.27-12.37,33.78-27.57,33.83-27.72,.33-.95,1.37-1.46,2.33-1.13,.96,.33,1.47,1.37,1.14,2.33-.23,.69-6.11,16.88-35.83,29.89-20.16,8.82-45.04,10.27-59.24,10.27Z"/><path class="cls-11" d="M207.19,369.56c-20.33,0-36.81,16.48-36.81,36.81s16.48,36.81,36.81,36.81,36.81-16.48,36.81-36.81-16.48-36.81-36.81-36.81Zm0,65.17c-15.66,0-28.36-12.7-28.36-28.36s12.69-28.36,28.36-28.36,28.36,12.7,28.36,28.36-12.69,28.36-28.36,28.36Z"/><path class="cls-11" d="M207.19,427.42c-11.62,0-21.05-9.42-21.05-21.05s9.43-21.05,21.05-21.05,21.05,9.42,21.05,21.05-9.43,21.05-21.05,21.05Z"/></svg>