<?xml version="1.0" encoding="UTF-8"?><svg id="Layer_1" xmlns="http://www.w3.org/2000/svg" viewBox="0 0 432 852"><defs><style>.cls-1{fill:#f2c097;}.cls-2{fill:#c5d55d;}.cls-3{fill:#e2b18d;}.cls-4{fill:#427032;}.cls-5{fill:#353535;}.cls-6{fill:#335626;}.cls-7{fill:#473543;}.cls-8{fill:#756236;}</style></defs><path class="cls-8" d="M225.22,763.41l2.35,25.03h102.16s18.44-18.44,0-32.05c-18.44-13.61-51.81-2.2-51.81-2.2l-52.69,9.22Z"/><path class="cls-8" d="M151.15,763.41l-2.35,25.03H46.65s-18.44-18.44,0-32.05c18.44-13.61,51.81-2.2,51.81-2.2l52.69,9.22Z"/><path class="cls-1" d="M247.65,324.81l61.22,46.99s44.48-64.59,46.93-68.19c4.82-7.09,14.49-15.61,27.94-7.53,16.69,10.03,7.01,28.55,7.01,28.55,0,0-63.07,94.05-75.36,98.05-12.29,4-70.67-46.21-70.67-46.21l2.93-51.67Z"/><path class="cls-1" d="M128.33,325.01s-39.86-.2-42.78,16.19-14.77,143.51-6.85,162.25c7.92,18.74,43.74,41.49,43.74,41.49l5.9-219.93Z"/><polygon class="cls-4" points="140.74 470.55 119.06 487.78 88.92 751.69 156.84 769.06 180.66 569.62 191.83 569.33 220.51 769.06 289.09 751.36 239.41 481.06 140.74 470.55"/><path class="cls-6" d="M137.18,523.23c13.48-15.63,11.9-33.37,11.15-51.88l-7.58-.81-21.69,17.22-5.06,48.59c8.89-2.14,17.12-6.09,23.18-13.13Z"/><path class="cls-6" d="M231.16,530.04c5.74,2.8,11.77,4.18,17.94,4.76l-9.7-53.75-32.5-3.46c1.24,20.47,6.36,43.73,24.26,52.45Z"/><path class="cls-7" d="M293.91,275.27c-22.83,27.75-41.69,25.99-52.69,25.99l-62.97-8.49-70.52,8.49c-11,0-35.14,7.15-54.45-25.99-19.32-33.14-18.44-114.23,7.9-156.38,18.08-28.92,39.19-55.32,111.95-55.32s94.12,22.42,113.98,55.32c13.15,21.79,29.62,128.63,6.79,156.38Z"/><path class="cls-1" d="M111.58,497.96H250.57s-6.59-124.96-7.82-144.3c-.21-3.3,.89-30.14,.89-30.14l-66.44-6.79-62.23,8.97-3.39,172.25Z"/><g><path class="cls-1" d="M197.93,284.27h-34.54l.27,34.54c.96,8.59,8.16,15.3,17.01,15.3s16.05-6.7,17-15.3l.27-34.54Z"/><path class="cls-3" d="M197.8,302.65l.14-18.38h-34.54l.15,19.31c3.8,1.78,10.33,2.74,17.12,2.49,7.97-.3,15.78-2.4,17.13-3.42Z"/></g><path class="cls-1" d="M90.24,200.43s34.44,12.1,86.25,12.1,84.08-9.16,84.08-9.16c0,0,19.24,96.34-75.71,100.06-94.93,3.73-99.58-51.81-94.63-103Z"/><path class="cls-5" d="M152.78,288.13c-.57,0-1.13-.28-1.47-.79-.54-.81-.31-1.9,.5-2.43,.76-.5,19.11-12.13,70.92-8.19,.97,.08,1.69,.92,1.62,1.89-.08,.97-.97,1.69-1.89,1.62-50.63-3.86-68.54,7.5-68.71,7.62-.3,.2-.64,.29-.97,.29Z"/><path class="cls-5" d="M211.07,213.4c0,7.71,5.23,13.96,11.69,13.96s11.7-6.25,11.7-13.96c0-1.7-.29-3.31-.75-4.82-6.47,.93-13.95,1.83-22.44,2.53-.1,.75-.19,1.5-.19,2.29Z"/><path class="cls-5" d="M116.64,213.4c0,7.71,5.23,13.96,11.69,13.96s11.7-6.25,11.7-13.96c0-1-.1-1.98-.26-2.92-8.19-.92-15.52-2.06-21.88-3.24-.77,1.87-1.25,3.94-1.25,6.16Z"/><rect class="cls-3" x="160.3" y="245.87" width="30.49" height="19.32" rx="7.03" ry="7.03"/><path class="cls-2" d="M249.36,324.09l-25.5-2.52v27.69c0,11-8.92,19.91-19.92,19.91h-50.19c-11,0-19.91-8.91-19.91-19.91v-26.86l-23.09,2.78,.82,172.78H250.57l-1.2-173.87Z"/><path class="cls-1" d="M335.83,343.12l-1.45-34.51s.19-10.69,8.21-8.21c8.2,2.53,6.76,24.37,6.76,24.37l-13.51,18.34Z"/></svg>