<?xml version="1.0" encoding="UTF-8"?><svg id="Layer_1" xmlns="http://www.w3.org/2000/svg" viewBox="0 0 432 852"><defs><style>.cls-1{fill:#f9c5b0;}.cls-2{fill:#eaa48c;}.cls-3{fill:#f2bf8c;}.cls-4{fill:#ffcc94;}.cls-5{fill:#2d2a27;}.cls-6{fill:#302c28;}.cls-7{fill:#382d21;}.cls-8{fill:#473728;}</style></defs><path class="cls-6" d="M131.02,706.28s-15.91,12.38-38.9,15.92c-22.99,3.54-17.68,29.02-3.54,32.19,14.15,3.18,115.8-.36,119.8-9.2s-6.61-27.41-6.61-27.41l-70.74-11.49Z"/><path class="cls-6" d="M304.68,706.28s15.91,12.38,38.9,15.92c22.99,3.54,17.68,29.02,3.54,32.19-14.15,3.18-115.8-.36-119.8-9.2-4-8.84,6.61-27.41,6.61-27.41l70.74-11.49Z"/><path class="cls-1" d="M129.84,222.02s-30.65-3.66-44.8,16.44c-14.15,20.11-2.36,135.65-2.36,135.65l265.85-6.94s7.67-108.81,4.73-120.81c-2.95-12.01-17.69-24.6-42.81-24.6-44.44,0-180.61,.26-180.61,.26Z"/><path class="cls-2" d="M258.78,319.86c-16.1,.43-32.05-2.01-48.11-2.55-.42,.46-1.03,.77-1.84,.77-46.13,.07-94.93,3.22-127.79,37.41,.9,11.28,1.64,18.62,1.64,18.62l265.85-6.94s.24-3.43,.62-9.07c-15.85-30.65-57.53-36.42-90.37-38.24Z"/><path class="cls-7" d="M115.01,493.18l6.28,221.06s6.49,17.69,50.11,18.57c43.62,.88,36.55-16.8,36.55-16.8l.43-200.72-93.36-22.11Z"/><path class="cls-7" d="M321.55,493.18l-6.28,221.06s-6.49,17.69-50.11,18.57c-43.62,.88-36.55-16.8-36.55-16.8l-.43-200.72,93.36-22.11Z"/><path class="cls-1" d="M359.83,414.79c0,66.09-64.4,119.67-143.84,119.67s-143.83-53.58-143.83-119.67,64.39-119.67,143.83-119.67,143.84,53.58,143.84,119.67Z"/><rect class="cls-2" x="210.23" y="297.94" width="3.9" height="236.52"/><path class="cls-6" d="M118.2,205.37l-3.19,7.44s.97,73.91,60.22,89.38c59.24,15.47,106.99-1.29,124.68-37.56,17.69-36.27,15.63-51.99,15.63-51.99l-5.01-3.67-192.32-3.61Z"/><path class="cls-4" d="M315.53,191.29c0,15.33-3.78,32.01-12.04,45.1-3.89,6.16-20.09,36.63-50.44,37.51-21.24,.61-31.65-12.45-31.65-12.45,0,0-15.82,16.29-33.8,16.3-19.45,0-32.52-10.45-38.26-15.42-10.71-9.28-19.54-19.87-25.1-31.24-6.05-12.36-9.23-26.03-9.23-39.79,0-52.37,44.88-94.83,100.26-94.83s100.26,42.46,100.26,94.83Z"/><path class="cls-8" d="M115.27,184.74l48.49-10.22-1.09-5.16-46.83,9.87c-.24,1.82-.44,3.66-.57,5.51Z"/><path class="cls-8" d="M314.59,178.42l-42.98-9.06-1.09,5.16,44.68,9.42c-.15-1.85-.36-3.69-.61-5.51Z"/><path class="cls-4" d="M126.21,198.38c0,7.97-7.63,14.43-17.05,14.43s-17.05-6.46-17.05-14.43,7.63-14.43,17.05-14.43,17.05,6.46,17.05,14.43Z"/><path class="cls-4" d="M296.07,198.38c0,7.97,7.63,14.43,17.05,14.43s17.05-6.46,17.05-14.43-7.63-14.43-17.05-14.43-17.05,6.46-17.05,14.43Z"/><rect class="cls-8" x="178.77" y="167.82" width="66.91" height="5.27"/><path class="cls-5" d="M184.96,176.34c0,12.54-10.16,22.69-22.7,22.69s-22.7-10.16-22.7-22.69,10.16-22.7,22.7-22.7,22.7,10.16,22.7,22.7Z"/><path class="cls-5" d="M283.7,176.34c0,12.54-10.16,22.69-22.69,22.69s-22.7-10.16-22.7-22.69,10.16-22.7,22.7-22.7,22.69,10.16,22.69,22.7Z"/><polygon class="cls-3" points="202.94 187.1 226.81 187.1 233.88 217.6 194.39 217.6 202.94 187.1"/><path class="cls-6" d="M188.24,246.36c-9.34,0-15.16-.76-15.31-.78-.97-.13-1.65-1.02-1.52-1.99,.13-.96,.99-1.65,1.99-1.51,.38,.06,38.91,5.04,77.78-11.37,.89-.38,1.93,.04,2.32,.94,.38,.9-.04,1.93-.94,2.32-24.62,10.4-49.13,12.39-64.31,12.39Z"/><path class="cls-2" d="M232.59,336.2c0,3.36-2.72,6.08-6.07,6.08s-6.08-2.72-6.08-6.08,2.72-6.08,6.08-6.08,6.07,2.72,6.07,6.08Z"/><path class="cls-2" d="M232.59,378.1c0,3.35-2.72,6.08-6.07,6.08s-6.08-2.72-6.08-6.08,2.72-6.08,6.08-6.08,6.07,2.72,6.07,6.08Z"/><path class="cls-2" d="M232.59,420c0,3.35-2.72,6.07-6.07,6.07s-6.08-2.72-6.08-6.07,2.72-6.08,6.08-6.08,6.07,2.72,6.07,6.08Z"/><path class="cls-2" d="M232.59,503.79c0,3.35-2.72,6.07-6.07,6.07s-6.08-2.72-6.08-6.07,2.72-6.08,6.08-6.08,6.07,2.72,6.07,6.08Z"/><path class="cls-2" d="M232.59,461.9c0,3.35-2.72,6.07-6.07,6.07s-6.08-2.72-6.08-6.07,2.72-6.08,6.08-6.08,6.07,2.72,6.07,6.08Z"/></svg>