<?xml version="1.0" encoding="UTF-8"?><svg id="Layer_1" xmlns="http://www.w3.org/2000/svg" viewBox="0 0 432 852"><defs><style>.cls-1{fill:#eee5d7;}.cls-2{fill:#cec5ba;}.cls-3{fill:#ce936b;}.cls-4{fill:#dca275;}.cls-5{fill:#dbd1c7;}.cls-6{fill:#3f3f3f;}.cls-7{fill:#353029;}.cls-8{fill:#3a2f28;}.cls-9{fill:#4f4137;}</style></defs><path class="cls-6" d="M151.54,791.6l-10.77,6.93s-46.14-5.71-55.37,7.9c-9.23,13.62-.78,26.7,12.31,29,13.07,2.31,96.49-.34,107.47-5.93,10.97-5.6,6.61-30.97,6.61-30.97l-11.02-12.17-49.22,5.24Z"/><path class="cls-6" d="M301.08,791.6l10.77,6.93s46.15-5.71,55.38,7.9c9.22,13.62,.77,26.7-12.31,29-13.07,2.31-96.5-.34-107.47-5.93-10.96-5.6-6.61-30.97-6.61-30.97l11.02-12.17,49.22,5.24Z"/><path class="cls-4" d="M129.56,540.09c0,11.62-9.41,21.03-21.03,21.03h0c-11.61,0-21.03-9.41-21.03-21.03v-22.27c0-11.61,9.41-21.03,21.03-21.03h0c11.62,0,21.03,9.42,21.03,21.03v22.27Z"/><path class="cls-4" d="M317.79,540.09c0,11.62,9.41,21.03,21.03,21.03h0c11.61,0,21.03-9.41,21.03-21.03v-22.27c0-11.61-9.42-21.03-21.03-21.03h0c-11.62,0-21.03,9.42-21.03,21.03v22.27Z"/><polygon class="cls-9" points="139.16 510.05 126.8 521.9 130.18 800.86 214.44 811.31 214.44 605.25 234.67 605.25 239.17 811.31 322.3 800.86 322.3 527.84 307.7 515.29 139.16 510.05"/><path class="cls-1" d="M143.8,259.57s-48.64,10.63-51.25,20.27c-2.62,9.64,17.03,248.92,17.03,248.92h242.29s4.34-228.53-.79-251.14c-1.34-5.93-21.83-12.42-41.21-13.77-64.02-4.42-166.06-4.28-166.06-4.28Z"/><polygon class="cls-2" points="176.22 302.7 218.43 349.88 259.91 302.7 176.22 302.7"/><rect class="cls-2" x="217.27" y="304.38" width="2.08" height="224.37"/><path class="cls-4" d="M173.61,277.19s-2.61,25.11,3.14,28.11c5.75,3.01,25.11,6.64,42.63,6.13,17.52-.51,38.44-5.89,42.63-8.72,4.18-2.84,0-29.97,0-29.97l-88.39,4.45Z"/><path class="cls-3" d="M263.55,286.45c-.52-7.06-1.55-13.71-1.55-13.71l-88.39,4.45s-.39,3.86-.54,8.72c29.51,5.35,60.68,3.52,90.48,.55Z"/><path class="cls-5" d="M358.47,163.37c0-11.07-5.08-20.95-13.03-27.45,5.69-7.6,9.11-17,9.11-27.23,0-23.51-17.81-42.83-40.68-45.24-7.92-15.19-23.77-25.57-42.09-25.57-12.46,0-23.76,4.84-32.23,12.69-5.53-20.08-23.88-34.84-45.72-34.84s-40.69,15.18-45.93,35.7c-7.27-8.86-18.3-14.51-30.65-14.51-21.88,0-39.62,17.74-39.62,39.62,0,6.99,1.83,13.55,5.01,19.25-14.3,3.1-25.01,15.81-25.01,31.04,0,7.49,2.6,14.35,6.93,19.78-5.56,5.44-9.02,13.01-9.02,21.4,0,14.53,10.34,26.62,24.06,29.36-1.26,3.13-1.97,6.54-1.97,10.13,0,12.68,8.67,23.3,20.4,26.34,0,.11-.02,.22-.02,.34,0,12.79,10.37,23.16,23.16,23.16,11.12,0,20.4-7.85,22.63-18.3l64.84,16.65,74.96-16.55c2.58,11.69,12.97,20.44,25.43,20.44,14.38,0,26.05-11.66,26.05-26.05,0-1.09-.09-2.16-.21-3.21,5.9-5.81,9.55-13.88,9.55-22.81,0-4.95-1.15-9.61-3.15-13.79,10.28-6.2,17.19-17.44,17.19-30.33Z"/><path class="cls-4" d="M133.34,167.62s-2.88,102.87,4.44,111.92c7.32,9.05,158.16,6.93,164.43,1.34,6.27-5.59,2.67-98.1,2.67-98.1,0,0-33.47-3.13-31.38-40.27,0,0-23.62,5.23-29.33-9.94,0,0-13.91,19.57-29.42,5.08,0,0-.87,16.89-23.88,23.17-23.01,6.28-34.52-8.88-34.52-8.88,0,0,.52,24.05-23.01,15.69Z"/><path class="cls-4" d="M147.07,196.9c0,8.23-6.67,14.91-14.91,14.91s-14.91-6.67-14.91-14.91,6.67-14.91,14.91-14.91,14.91,6.68,14.91,14.91Z"/><path class="cls-4" d="M318.88,196.9c0,8.23-6.68,14.91-14.91,14.91s-14.91-6.67-14.91-14.91,6.68-14.91,14.91-14.91,14.91,6.68,14.91,14.91Z"/><path class="cls-3" d="M215.71,274.05s-3.42,11.72-12.3,11.58h22.24s-8.29-3.21-9.94-11.58Z"/><path class="cls-7" d="M163.6,263.37c-.5,0-.99-.22-1.32-.64-.58-.73-.46-1.79,.27-2.37,.67-.54,16.87-13.11,56.23-12.25,39.25,.85,55.22,11.73,55.88,12.18,.76,.54,.94,1.59,.41,2.35-.53,.76-1.58,.95-2.35,.42-.15-.11-15.93-10.76-54-11.58-38.09-.78-53.9,11.39-54.06,11.51-.31,.25-.69,.38-1.05,.38Z"/><path class="cls-3" d="M248.14,229.33c0,3.47-2.81,6.28-6.28,6.28h-63.03c-3.47,0-6.28-2.81-6.28-6.28v-19.88c0-3.46,2.81-6.27,6.28-6.27h63.03c3.46,0,6.28,2.81,6.28,6.27v19.88Z"/><path class="cls-7" d="M181.82,172.7c0,6.48-5.25,11.73-11.72,11.73s-11.74-5.24-11.74-11.73h23.46Z"/><path class="cls-7" d="M265.32,172.7c0,6.48-5.25,11.73-11.73,11.73s-11.73-5.24-11.73-11.73h23.46Z"/><path class="cls-2" d="M235.07,357.6c0,2.67-2.17,4.84-4.84,4.84s-4.84-2.16-4.84-4.84,2.16-4.84,4.84-4.84,4.84,2.17,4.84,4.84Z"/><path class="cls-2" d="M235.07,401.93c0,2.67-2.17,4.84-4.84,4.84s-4.84-2.16-4.84-4.84,2.16-4.84,4.84-4.84,4.84,2.17,4.84,4.84Z"/><path class="cls-2" d="M235.07,446.25c0,2.67-2.17,4.84-4.84,4.84s-4.84-2.17-4.84-4.84,2.16-4.84,4.84-4.84,4.84,2.17,4.84,4.84Z"/><rect class="cls-2" x="269.85" y="340.86" width="49.03" height="9.02"/><path class="cls-2" d="M269.85,352.76h49.03v42.63s-1.96,6.54-26.28,6.54c-19.64,0-22.75-6.93-22.75-6.93v-42.23Z"/><path class="cls-2" d="M70.74,283.85c-.38,1.4,10.07,245.1,10.07,245.1h45.5l-5.23-251.73c-10.47,2.45-48.11-1.58-50.34,6.64Z"/><path class="cls-2" d="M353.57,276.11c-4.6-.95-13.91-1.54-27.99-3.37l-2.78,256.21h41.1s-5.18-251.78-10.33-252.84Z"/><path class="cls-1" d="M70.74,283.85c-.38,1.4,10.07,245.1,10.07,245.1h40.8l.63-263.79c-10.47,2.46-49.27,10.48-51.5,18.7Z"/><path class="cls-1" d="M376.45,283.85c.38,1.4-10.07,245.1-10.07,245.1h-40.8l-.63-263.1c10.47,2.46,49.27,9.78,51.5,18Z"/><path class="cls-8" d="M253.92,605.67h-60.67c-.87,0-1.57-.7-1.57-1.57s.7-1.57,1.57-1.57h60.67c.86,0,1.57,.7,1.57,1.57s-.7,1.57-1.57,1.57Z"/></svg>