<?xml version="1.0" encoding="UTF-8"?><svg id="Layer_1" xmlns="http://www.w3.org/2000/svg" viewBox="0 0 432 852"><defs><style>.cls-1{fill:#efbd95;}.cls-2{fill:#fbca9c;}.cls-3{fill:#b79251;}.cls-4{fill:#1e1e1e;}.cls-5{fill:#141414;}.cls-6{fill:#702c2c;}.cls-7{fill:#2d2a27;}.cls-8{fill:#843636;}</style></defs><path class="cls-2" d="M107.17,524.93l-4.74,4.41,1.64,24.35s2.88,16.45,18.87,16.83c21.18,.51,22.03-18.64,22.03-18.64l-.31-27.54-37.48,.6Z"/><path class="cls-5" d="M295.14,747.47s16.83,11.16,38.17,14.44c21.35,3.28,16.42,26.94,3.29,29.89-13.14,2.95-106.52,3.27-110.23-4.94-3.71-8.21,5.14-29.05,5.14-29.05l63.63-10.34Z"/><path class="cls-5" d="M126.02,745.31s-16.82,11.16-38.17,14.44c-21.35,3.28-16.42,26.95-3.29,29.89,13.14,2.95,106.52,3.27,110.23-4.94,3.71-8.21-5.14-29.05-5.14-29.05l-63.63-10.34Z"/><path class="cls-4" d="M151.65,344.02l-13.42-13.89s-23.01-1.08-27.64,10.28c-4.07,9.97-9.27,191.91-9.27,191.91h37.87l12.46-188.3Z"/><path class="cls-3" d="M101.57,521.05c-.16,7.15-.25,11.26-.25,11.26h37.87l.55-11.26h-38.17Z"/><polygon class="cls-4" points="144.78 524.33 137.27 530.08 123.69 747.39 193.36 767.84 203.9 567.47 215.41 567.15 228.83 764.32 296.18 748.11 274.53 529.12 265.58 524.33 144.78 524.33"/><polygon class="cls-3" points="274.53 530.08 137.27 530.08 137.27 518.41 138.53 514.58 274.53 514.58 274.53 530.08"/><path class="cls-4" d="M138.23,330.12l133.26-1.07s23.01-.98,35.47,18.23c12.46,19.21,51.77,89.73,51.77,100.76,0,16.68-51.77,90.85-51.77,90.85l-34.51-27.2s42.66-57.33,42.66-63.66-40.27-67.21-40.27-67.21l-.32,138.05-137.26-.48,.96-188.29Z"/><path class="cls-2" d="M278.92,511.94l-6.47-.24-16.06,18.38s-9.59,13.67,1.44,25.24c14.62,15.34,28.76,2.4,28.76,2.4l19.26-19.7-26.93-26.08Z"/><polygon class="cls-3" points="278.7 503.21 272.45 511.7 306.96 538.9 313.01 530.08 278.7 503.21"/><rect class="cls-3" x="198.31" y="346.32" width="2.48" height="171.19"/><path class="cls-2" d="M181.38,303.82v34.2s-1.95,12,18.01,12.32c21.67,.05,18.35-14.24,18.35-14.24l.44-35.79-36.8,3.52Z"/><path class="cls-1" d="M210.56,313.25c2.54-.83,5.01-1.68,7.49-2.48l.13-10.46-36.8,3.52v9.58c9.5,2.22,19.84,2.89,29.17-.15Z"/><path class="cls-2" d="M283.95,223.61c0,48.98-41.64,88.68-93,88.68s-92.99-39.7-92.99-88.68,41.64-88.68,92.99-88.68,93,39.71,93,88.68Z"/><path class="cls-4" d="M167.95,152.66c8.63-3.36,113.43,60.95,113.43,60.95l17.23-1.18s.68-64.08-7.71-77.51c-8.39-13.42-107.6-81.18-146.91-76.38-39.31,4.79-36.92,97.47-36.92,97.47,0,0-20.61-6.71-22.96,4.32-1.53,7.16,4.26,66.18,4.26,66.18l11.5,3.32s59.44-73.82,68.07-77.18Z"/><path class="cls-2" d="M109.47,239.67c0,8.87-7.19,16.06-16.06,16.06s-16.06-7.19-16.06-16.06,7.19-16.06,16.06-16.06,16.06,7.19,16.06,16.06Z"/><path class="cls-2" d="M306.96,226.52c0,8.87-7.19,16.06-16.06,16.06s-16.06-7.19-16.06-16.06,7.19-16.06,16.06-16.06,16.06,7.19,16.06,16.06Z"/><path class="cls-7" d="M154.29,226.37c0,7.34-5.95,13.3-13.3,13.3s-13.3-5.96-13.3-13.3,5.96-13.3,13.3-13.3,13.3,5.96,13.3,13.3Z"/><path class="cls-7" d="M244.53,213.06c0,7.35-5.96,13.3-13.3,13.3s-13.3-5.96-13.3-13.3,5.96-13.3,13.3-13.3,13.3,5.96,13.3,13.3Z"/><polygon class="cls-1" points="185.69 229.84 180.41 255.73 209.65 253.19 192.14 229.84 185.69 229.84"/><path class="cls-6" d="M220.2,278.74s6.71-34.17,21.57-34.1c14.86,.07,17.26,18.28,13.9,23.56-3.36,5.27-26.84,14.38-35.47,10.55Z"/><path class="cls-8" d="M250.02,247.16c-12.09,5.66-17.76,18.41-19.05,31.98,10.09-1.68,22.34-7.25,24.69-10.95,2.59-4.07,1.73-15.84-5.65-21.03Z"/><path class="cls-4" d="M178.97,290.23c-12.19,0-29.14-2.15-47.6-10.92-28.56-13.56-32.6-54.27-32.76-55.99-.1-1.05,.68-1.99,1.74-2.08,1.04-.11,1.99,.67,2.09,1.73,.04,.4,4.01,40.26,30.59,52.88,34.24,16.26,63.73,8.76,64.02,8.68,1.03-.27,2.07,.34,2.35,1.37,.27,1.02-.34,2.07-1.37,2.34-.6,.16-7.8,1.99-19.05,1.99Z"/><path class="cls-4" d="M212.55,283.2c1.2,4.98-2.59,10.16-8.47,11.57-5.88,1.42-11.61-1.47-12.81-6.45-1.2-4.98,2.59-10.16,8.47-11.57,5.88-1.42,11.61,1.47,12.81,6.45Z"/><rect class="cls-3" x="149.02" y="381.8" width="41.93" height="9.91"/><path class="cls-3" d="M220.57,379.96c0,3.75-3.04,6.79-6.79,6.79s-6.79-3.04-6.79-6.79,3.04-6.79,6.79-6.79,6.79,3.04,6.79,6.79Z"/><path class="cls-3" d="M220.57,417.8c0,3.75-3.04,6.79-6.79,6.79s-6.79-3.04-6.79-6.79,3.04-6.79,6.79-6.79,6.79,3.04,6.79,6.79Z"/><path class="cls-3" d="M220.57,455.63c0,3.75-3.04,6.79-6.79,6.79s-6.79-3.04-6.79-6.79,3.04-6.79,6.79-6.79,6.79,3.04,6.79,6.79Z"/><path class="cls-3" d="M220.57,493.47c0,3.75-3.04,6.79-6.79,6.79s-6.79-3.04-6.79-6.79,3.04-6.79,6.79-6.79,6.79,3.04,6.79,6.79Z"/></svg>