<?xml version="1.0" encoding="UTF-8"?><svg id="Layer_1" xmlns="http://www.w3.org/2000/svg" viewBox="0 0 432 852"><defs><style>.cls-1{fill:#eb623c;}.cls-2{fill:#eab894;}.cls-3{fill:#f18858;}.cls-4{fill:#fbca9c;}.cls-5{fill:#b22f36;}.cls-6{fill:#e25a3b;}.cls-7{fill:#1e1e1e;}.cls-8{fill:#3f2e27;}.cls-9{fill:#302925;}.cls-10{fill:#26201e;}</style></defs><path class="cls-4" d="M278.39,254.03l-3.08-4.34-29.9-44.55s-7.48-13.89,4.15-23.52c15.41-12.76,27.24,.94,27.24,.94l32.13,45.34-30.54,26.13Z"/><path class="cls-2" d="M277.61,203.36c.06-6.81-.99-13.51-.35-20.14l-.47-.66s-11.83-13.71-27.24-.94c-11.63,9.63-4.15,23.52-4.15,23.52l12.1,18.03c10.5-2.31,19.99-6.84,20.11-19.81Z"/><path class="cls-4" d="M118.83,466.65l-.25,5.31-1.45,23s-2.67,15.55-17.76,15.97c-20,.56-20.87-17.53-20.87-17.53l.18-24.99,40.16-1.76Z"/><g><path class="cls-5" d="M95.2,817.08s-9.96,5.07-10.13,6.95c-.17,1.88-2.15,10.82,3.81,11.11,5.97,.29,61.74-1.55,68.42-4.41,6.7-2.85,1.38-13.92-1.38-14.42-2.77-.5-60.72,.77-60.72,.77Z"/><path class="cls-4" d="M128.35,617.78s-6.98,152.72-10.7,160.6c-3.72,7.88-33.74,27.14-33.3,33.3,.44,6.15-1.97,12.51,16.02,11.23,17.99-1.28,62.55-3.51,61.07-11.02-1.49-7.51-18.35-26.76-22.34-35.99-3.98-9.23,9.34-153.84,9.34-153.84l-20.09-4.27Z"/><path class="cls-5" d="M94.97,799.43s20.71-6.69,24.73,22.06l3.27,3.19,2.48-3.54s.17-10.99,9.54-19.74c9.36-8.76,16.56-6.37,16.56-6.37l-4.32-6.09s-17.98,1.93-23.62,13.15c0,0-7.32-11.01-19.8-10.05l-8.85,7.39Z"/></g><g><path class="cls-5" d="M267.19,817.08s9.96,5.07,10.13,6.95c.17,1.88,2.15,10.82-3.81,11.11-5.97,.29-61.74-1.55-68.42-4.41-6.7-2.85-1.38-13.92,1.38-14.42,2.77-.5,60.72,.77,60.72,.77Z"/><path class="cls-4" d="M234.05,617.78s6.97,152.72,10.69,160.6c3.72,7.88,33.75,27.14,33.3,33.3-.44,6.15,1.97,12.51-16.02,11.23-17.99-1.28-62.54-3.51-61.06-11.02,1.49-7.51,18.35-26.76,22.34-35.99,3.98-9.23-9.34-153.84-9.34-153.84l20.09-4.27Z"/><path class="cls-5" d="M267.42,799.43s-20.71-6.69-24.73,22.06l-3.27,3.19-2.48-3.54s-.17-10.99-9.54-19.74c-9.36-8.76-16.56-6.37-16.56-6.37l4.32-6.09s17.98,1.93,23.62,13.15c0,0,7.32-11.01,19.8-10.05l8.85,7.39Z"/></g><polygon class="cls-9" points="119.98 489.92 105.11 501.31 100.68 624.68 166.64 628.95 171.86 543.06 183.25 542.59 192.74 628.95 260.59 624.68 247.78 499.1 237.34 492.29 119.98 489.92"/><path class="cls-1" d="M231.96,318.77l15.82-6.33s47.44,1.67,56.3-2.64c8.86-4.32,5.69-10.54,0-18.18-5.69-7.64-37.44-52.84-37.44-52.84l34.45-28.47s44.13,64.55,53.93,81.31c9.8,16.77,17.52,38.14-10.44,52.79-19.3,10.11-112.62,10.11-112.62,10.11v-35.75Z"/><path class="cls-1" d="M115.86,337.12l-10.75-24.68s-16.14,2.42-19.3,10.07c-3.16,7.65-10.75,151.27-10.75,151.27l44.92,3.17-4.11-139.83Z"/><path class="cls-6" d="M101.2,381.74c-1.87,10.85-1.66,21.58-1.2,32.54,.84,20.19-.99,41.08,.56,61.3l19.42,1.37-3.42-116.21c-7.41,5.22-13.79,11.88-15.36,21Z"/><polygon class="cls-1" points="105.11 312.45 180.72 306.75 247.78 312.45 247.78 499.1 105.11 501.31 105.11 312.45"/><path class="cls-3" d="M117.46,391.31l-1.6-54.19-10.75-24.68s-16.14,2.42-19.3,10.07c-.69,1.67-1.59,9.82-2.58,21.52,10.74,16.3,22.31,31.9,34.23,47.27Z"/><path class="cls-3" d="M222.47,463.88c-14.63-16.73-28.67-33.98-41.96-51.8-14.98-20.09-29.35-40.55-42.66-61.79-7.57-12.07-13.33-27.13-22.55-38.62l-10.21,.77v62.64c14.32,19.2,29.38,37.83,44.31,56.69,12.54,15.85,24.83,31.89,37.08,47.95,4.95,6.49,9.77,13.34,14.73,20.09l46.55-.72v-9.39c-8.64-8.45-17.43-16.8-25.31-25.82Z"/><path class="cls-4" d="M160.94,278.63v31.17s0,12.71,17.26,12.71,16.43-12.71,16.43-12.71l.83-33.42-34.52,2.24Z"/><path class="cls-2" d="M195.15,288.76l.31-12.37-34.52,2.24v11.59c11.63,2.93,22.81,.7,34.21-1.46Z"/><path class="cls-7" d="M95.93,187.81s-25.9-18.98-27.82-63.9c-1.91-44.92,25.29-39.23,25.29-39.23,0,0-6.97-24.7,12.02-44.29,18.99-19.59,79.72-37.96,125.91-6.96,46.18,31,71.49,103.76,35.43,154.37-36.06,50.62-170.83,0-170.83,0Z"/><path class="cls-4" d="M102.89,156.82s-3.17,74.64,0,86.66c3.17,12.02,13.92,44.6,64.53,44.13,50.62-.47,85.42-19.21,87.95-48.75,2.53-29.54,0-55.5,0-55.5,0,0-29.74,5.11-29.74-26.54,0,0-24.68,.62-23.41-23.43,0,0-26.23,3.16-23.24-25.31l-20.27-5.06s4.91,15.18-8.37,24.04c-13.29,8.86-22.78,3.8-22.78,3.8,0,0,2.77,24.07-24.68,25.96Z"/><path class="cls-4" d="M115.86,201.41c0,10.31-8.36,18.66-18.66,18.66s-18.66-8.35-18.66-18.66,8.36-18.67,18.66-18.67,18.66,8.36,18.66,18.67Z"/><path class="cls-4" d="M275.16,201.41c0,10.31-8.36,18.66-18.67,18.66s-18.67-8.35-18.67-18.66,8.36-18.67,18.67-18.67,18.67,8.36,18.67,18.67Z"/><polygon class="cls-2" points="165.21 190.66 186.09 190.66 192.74 215.01 157.62 213.73 165.21 190.66"/><path class="cls-8" d="M225.64,181.3c0,5.33-4.32,9.65-9.65,9.65s-9.65-4.32-9.65-9.65,4.32-9.65,9.65-9.65,9.65,4.32,9.65,9.65Z"/><path class="cls-8" d="M151.77,181.3c0,5.33-4.32,9.65-9.65,9.65s-9.65-4.32-9.65-9.65,4.32-9.65,9.65-9.65,9.65,4.32,9.65,9.65Z"/><path class="cls-8" d="M135.16,251.71c-.6,0-1.19-.28-1.55-.81-.6-.86-.39-2.04,.47-2.64,1.06-.74,26.24-17.97,47.96-17.43,21.93,.65,40.88,16.86,41.68,17.55,.79,.69,.88,1.89,.19,2.68-.69,.8-1.88,.88-2.68,.19-.19-.16-18.74-16.02-39.3-16.62-20.79-.71-45.43,16.57-45.68,16.74-.33,.23-.71,.34-1.09,.34Z"/><path class="cls-10" d="M180.78,542.88c-1.19,0-2.4,0-3.65-.02l-3.93-.02c-9.34,0-15.92-1.9-16.2-1.98-1-.29-1.58-1.34-1.29-2.35,.3-1,1.35-1.59,2.36-1.29,.06,.02,6.36,1.82,15.13,1.82l3.96,.02c7.36,.06,13.69,.11,17.33-1.72,.94-.47,2.08-.09,2.55,.84,.47,.94,.09,2.08-.85,2.55-3.75,1.88-9.14,2.14-15.41,2.14Z"/></svg>