<?xml version="1.0" encoding="UTF-8"?><svg id="Layer_1" xmlns="http://www.w3.org/2000/svg" viewBox="0 0 432 852"><defs><style>.cls-1{fill:#e5b385;}.cls-2{fill:#fbca9c;}.cls-3{fill:#242e38;}.cls-4{fill:#1f2123;}.cls-5{fill:#1e1e1e;}.cls-6{fill:#2d2a27;}.cls-7{fill:#30281a;}.cls-8{fill:#272a2d;}.cls-9{fill:#2f3b49;}</style></defs><g><path class="cls-2" d="M163.85,776.03s-13.41,32.1-11.59,34.25c1.82,2.15,49.14,2.81,51.46,0,2.32-2.81-4.8-35.08-4.8-35.08l-35.08,.83Z"/><polygon class="cls-7" points="149.12 810.12 150.74 822.03 205.38 822.03 206.86 810.12 149.12 810.12"/><path class="cls-7" d="M178.14,813.49s-.23-10.59-3.32-13.9c-3.09-3.31-5.41-7.17-16.55-9.6l1.43-3.7s15.99,2.49,20.41,16.28c0,0,6.92-16.1,20.62-18.64l.71,3.66s-20,7.15-20.11,25.91h-3.19Z"/></g><g><path class="cls-2" d="M289.78,776.03s13.41,32.1,11.58,34.25c-1.82,2.15-49.15,2.81-51.46,0-2.32-2.81,4.8-35.08,4.8-35.08l35.08,.83Z"/><polygon class="cls-7" points="304.51 810.12 302.88 822.03 248.24 822.03 246.75 810.12 304.51 810.12"/><path class="cls-7" d="M275.48,813.49s.23-10.59,3.32-13.9,5.41-7.17,16.55-9.6l-1.44-3.7s-15.99,2.49-20.41,16.28c0,0-6.93-16.1-20.62-18.64l-.7,3.66s20,7.15,20.11,25.91h3.19Z"/></g><g><polygon class="cls-9" points="167.57 489.47 154.96 781.62 206.48 786.53 218.2 563.74 228.72 563.74 248.05 786.53 294.89 783.38 280.91 489.47 167.57 489.47"/><path class="cls-3" d="M181.55,514.98c2.81-2.66,4.65-10.07,8.57-9.33,14.49,2.76,21.6,4.64,35.08,4.88,4.7,.09,15.5-1.88,20.01-3.38,3.09-1.02,16.23-1.96,18.74,1.04,4.92,5.88,7.06,9.8,15.73,11.99,.9,.23,1.81,.37,2.71,.56l-1.49-31.27h-113.34l-1.38,31.86c3.2-.71,13.21-4.34,15.35-6.35Z"/><path class="cls-3" d="M219.68,563.77c-9.72,0-14.61-7.75-14.81-8.08-.51-.82-.25-1.9,.57-2.41,.82-.51,1.9-.26,2.42,.56,.16,.26,4.11,6.42,11.83,6.42h11.2c-.09-.02,7.43-1.52,11.02-6.52,.56-.79,1.65-.97,2.45-.4,.79,.56,.97,1.66,.4,2.45-4.46,6.21-13.18,7.88-13.55,7.94l-11.52,.03Z"/></g><path class="cls-8" d="M180.45,306.28l25.83-10.8h37.84l27.35,12.43,15.61,180.68s-19.52,15.4-62.23,16.82c-42.71,1.42-61.52-16.82-61.52-16.82l17.12-182.32Z"/><path class="cls-9" d="M157.86,296.94s-33.5-1.46-35.35,18.44c-.74,7.96-.32,63.89-.32,63.89l24.24,132.24s25.76,16.39,35.71-4.69c9.96-21.08,24.15-211.35,24.15-211.35l-48.42,1.46Z"/><path class="cls-4" d="M181.55,382.9s38.64-29.42,95.72,4.83c0,0-55.77-47.86-95.72-4.83Z"/><path class="cls-2" d="M208.65,263.45v32.84s1.39,11.77,18.13,10.53c16.73-1.24,15.32-10.53,15.32-10.53v-32.84h-33.44Z"/><path class="cls-1" d="M242.09,268.27v-4.81h-33.44v4.81c11.16-.14,22.32-.62,33.44,0Z"/><path class="cls-9" d="M328.11,379.89s.54-56.41-.22-64.5c-1.85-19.9-35.35-18.44-35.35-18.44l-48.42-1.46s14.2,190.27,24.15,211.35c9.15,19.37,31.63,7.1,35.21,4.99,6.31-2.36,24.63-131.93,24.63-131.93Z"/><polygon class="cls-3" points="276.24 346.64 244.12 295.48 254.4 413 287.08 413 257.19 346.64 276.24 346.64"/><polygon class="cls-3" points="174.16 346.64 206.28 295.48 196 413 163.33 413 193.21 346.64 174.16 346.64"/><path class="cls-5" d="M119.63,212.97s-23.71-47.86-21.08-89.14S127.98,36.89,194.28,31.18c66.3-5.71,78.16,9.22,82.99,32.49,0,0,13.61-11.86,32.49,.88s39.96,91.48,5.42,135.97l-195.55,12.44Z"/><path class="cls-2" d="M131.49,174.97s-1.32,59.96,0,67.86c1.32,7.9,5.27,21.08,25.91,21.52s119,.88,123.83,0c4.83-.88,22.39-.88,22.39-25.91s.15-95.87,0-104.51c-.15-8.64-7.06-15.98-16.02-8.91-7.8,6.15-10.32,11.19-18.22,8.56-7.9-2.63-10.11-12.12-10.11-12.12,0,0-26.76,32.1-53.98,39.56s-32.96-2.36-73.8,13.93Z"/><circle class="cls-2" cx="123.88" cy="206.53" r="15.37"/><circle class="cls-2" cx="310.35" cy="206.53" r="15.37"/><rect class="cls-5" x="198.23" y="255.39" width="37.32" height="32.97"/><path class="cls-6" d="M215.19,225.41c30.63,0,44.4,14,44.98,14.6,.72,.74,.42,1.76-.65,2.25-1.07,.5-2.53,.3-3.25-.45-.52-.54-13.43-13.39-41.72-13.14-28.23,.19-37.65,14.33-38.04,14.94-.52,.82-1.91,1.19-3.09,.83-1.18-.37-1.73-1.32-1.2-2.15,.44-.68,10.93-16.67,42.29-16.87,.23,0,.46,0,.69,0Z"/><circle class="cls-1" cx="216.29" cy="198.63" r="13.61"/><path class="cls-6" d="M173.39,185.23c0,5.79-4.69,10.48-10.48,10.48s-10.48-4.69-10.48-10.48,4.69-10.48,10.48-10.48,10.48,4.69,10.48,10.48Z"/><path class="cls-6" d="M278.83,185.23c0,5.79-4.69,10.48-10.48,10.48s-10.48-4.69-10.48-10.48,4.69-10.48,10.48-10.48,10.48,4.69,10.48,10.48Z"/><path class="cls-2" d="M141.06,524.27h-.34c-9.22,0-16.7-7.48-16.7-16.7v-44.85h33.74v44.85c0,9.22-7.48,16.7-16.7,16.7Z"/><rect class="cls-9" x="122.15" y="374.78" width="39.09" height="97.75"/><path class="cls-2" d="M307.92,524.27h-.34c-9.22,0-16.7-7.48-16.7-16.7v-44.85h33.74v44.85c0,9.22-7.48,16.7-16.7,16.7Z"/><rect class="cls-9" x="289.01" y="374.78" width="39.09" height="97.75"/></svg>