<?xml version="1.0" encoding="UTF-8"?><svg id="Layer_1" xmlns="http://www.w3.org/2000/svg" viewBox="0 0 432 852"><defs><style>.cls-1{fill:#fff;}.cls-2{fill:#fff8ee;}.cls-3{fill:#f2bf8c;}.cls-4{fill:#ffcc94;}.cls-5{fill:#e8393c;}.cls-6{fill:#fbca9c;}.cls-7{fill:#333;}.cls-8{fill:#d3cfc9;}.cls-9{fill:#db7e40;}.cls-10{fill:#4c4743;}.cls-11{fill:#5d5d5d;}</style></defs><polygon class="cls-2" points="184.57 523.36 140.43 533.02 122.65 796.4 180.89 800.94 216 584.53 233.31 583.3 267.95 793.23 325.57 785 292.72 525.92 278.98 515.25 184.57 523.36"/><path class="cls-8" d="M228.03,532.75c21.52-1.26,43.42-2.04,65.01-4.25l-.33-2.59-13.74-10.67-94.41,8.11-44.14,9.66-.08,1.23c29.23,.02,58.5,.21,87.68-1.5Z"/><path class="cls-7" d="M173.03,548.44c-.36-5.02-5.38-8.08-9.11-10.4-4.21-2.62-8.56-4.96-12.87-7.34l-10.62,2.33-3.96,58.59c3.73,3.86,8.85,7.44,13.55,4.07,7.45-5.33,2.19-4.62,5.15-7.53,1.23-1.21,1.9-2.01,3.71-1.93,4.87,.22,11.63-4.69,6.3-10.06-1.18-1.18-.27-3.05,1.3-3.14,9.31-.53,4.71-12.94,5.32-17.9,.26-2.13,1.38-4.53,1.23-6.68Z"/><path class="cls-7" d="M235.43,541.1c.33,.36,.68,.69,1.06,1,6.14,4.96,13-2.29,19.65-1.28,3.44,.52,6.16,2.95,9.66,3.24,4.93,.41,8.65-2.56,12.05-5.88,2.35-2.28,5.77-6.62,3.13-9.76-1.67-1.99-5.31-1.66-6.49-4.01-1.04-2.07,.77-6.52,.88-8.85-10.64,.91-21.28,1.81-31.92,2.74-5.82,.51-9.19,.37-10.71,6.59-1.25,5.1-1.08,12.11,2.68,16.21Z"/><path class="cls-7" d="M265.07,674.21c2.89-4.68,5.95-10.74,6.33-16.3,.16-2.29,.03-4.46-2.24-5.56-2.38-1.15-6,1.85-7.28-.46-1.33-2.39,.19-5.43,.74-7.75,.79-3.29,1.27-6.71,1.54-10.08,.2-2.44,.43-4.91,.49-7.35,.08-3.02-.35-4.46-3.53-5.19-2.74-.63-6.65,2.65-8.79,1.09-2.29-1.67,.3-4.56,.32-6.49,.07-6.63-8.65-7.11-12.79-4.31-.6,.4-1.11,.85-1.64,1.29l12.52,75.9c5.68-4,10.68-8.9,14.32-14.79Z"/><path class="cls-7" d="M296.3,699.36c.5,10.34,10.8,10.88,17.33,4.69,.53-.51,.99-1.06,1.48-1.59l-7.31-57.68c-8.81,2.96-15.18,12.42-19.24,20.26-1.86,3.59-3.92,7.58-4.55,11.62-1.8,11.69,9.55,4.99,13.04,4.02,1.33-.37,2.66,.92,2.26,2.26-1.54,5.22-3.28,10.91-3.01,16.41Z"/><path class="cls-7" d="M133.3,730.25c7.57,3.77,14.94-2.24,18.61-8.61,1.89-3.29,3.99-7.2,4-11.14,0-3.12-2.59-13.73-8.33-11.29-1.23,.52-2.21,.58-3.41-.12-2.3-1.35-2.3-3.58-2.34-5.89-.16-7.88-8.65-2.97-12.16-.77l-2.18,32.29c1.54,2.37,3.49,4.36,5.81,5.53Z"/><path class="cls-7" d="M179.53,722.5c2.32-5.16,4.69-12.67,2-17.99-9.95-7.27-14.78,15.71-13.06,22.64,2.48,9.99,9.05-.19,11.06-4.66Z"/><path class="cls-7" d="M286.13,728.66c-.8-4.96-6.74-8.96-11.3-5.56-6.24,4.66,.45,11.04-.82,16.22-.81,3.3-4.63,7.54-1.56,10.82,2.18,2.32,7.46,1.29,10.14,.75,3.97-.8,11.65-2.8,11.95-7.91,.43-7.23-6.48-.58-9.13-1.8-4.09-1.9,.18-7.42,.69-10.2,.14-.78,.14-1.56,.02-2.32Z"/><path class="cls-7" d="M281.33,590.81c-1.35,1.74-1.97,3.53,.09,5.74,2.84,3.04,9.22,3.75,12.3,.85,2.33-2.2,6.9-9.17,6.49-12.4l-4.89-38.54c-3.85,4.61-7.11,9.67-10,15.08-3.73,6.99-3.82,12.53,0,19.55,2.28,4.19-1.81,6.9-3.99,9.72Z"/><path class="cls-7" d="M197.81,631.18c-2.35,.23-7.56,3.39-9.63,.19-6.57-10.17-23.64,.34-27.4,8.03-7.31,14.92,11.59,22.59,17.28,8.54,.6-1.48,3.19-2,3.54,0,1.27,7.25,4.52,14.61,13.29,11.61,3.46-1.18,6.62-2.84,9.72-4.7l3.26-20.12c-2.35-2.5-5.5-3.99-10.05-3.55Z"/><path class="cls-2" d="M140.43,330.25h135.09s24.93-5.67,36.57,13.34c11.65,19,46.59,87.05,45.98,96.25-.61,9.2,1.84,22.29-50.27,61.11l-25.85-30.4,33.21-24-34.94-57.29,12.51,136.67-152.29,7.1,3.99-146.52-27.28,53.34,34.64,26.94-27.28,37.44s-45.98-27.59-50.27-45.37c-4.29-17.78,39.85-109.51,39.85-109.51,0,0,11.04-19.08,26.36-19.08Z"/><path class="cls-7" d="M280.55,336.75c-2.29,2.9-10.28,14.13-1.8,15.89,3.83,.8,7.1,.04,10.5-1.76,2.15-1.15,4.56,.71,4.01,3.09-.32,1.4-.65,2.8-.99,4.2-2.06,6.44,2.28,8.54,13.02,6.29,4.33-2.5,8.83-5.55,10.96-10.29,.31-.69,.54-1.38,.78-2.07-1.9-3.38-3.58-6.28-4.94-8.5-6.25-10.2-16.32-13.27-24.31-13.94-2.73,2.1-5.19,4.55-7.23,7.11Z"/><path class="cls-7" d="M330.33,407.63c-.63-2.76-1.21-8.77-4.23-10.08-2.86-1.25-5.9-1.6-8.63-.93-4.42,2.6-8.08,6.38-4.88,10.7,1.74,2.36,3.66,4.46,5.72,6.52,5.23,5.23-1.21,16,10.78,15.63,4.18-.13,10.16-2.57,9.44-8.08-.5-3.9-3.15-5.61-5.23-8.29-1.39-1.78-2.46-3.27-2.97-5.48Z"/><path class="cls-7" d="M122.01,369.64c.66-3.13,1.17-6.6,3.54-8.97,3.18-3.18,8.23-2.58,12.29-2.59,17.13-.07,9.7-18.59,3.33-27.83h-.75c-15.32,0-26.36,19.08-26.36,19.08,0,0-4.13,8.59-9.74,21,7.49,4.83,15.82,8.05,17.68-.69Z"/><path class="cls-7" d="M128.3,418.01c-4.58-.04-9.27,.13-13.46,1.73-6.06,2.33-21.25,13.92-5.37,15.33,1.29,.11,2.43,1.51,1.59,2.77-2.03,3.05-5.11,4.85-7.57,7.49-1.45,1.55-3,3.38-.93,5.34,1.5,1.42,4.27,2.5,6.14,1.47,1.14-.63,1.79-2.12,3.39-1.74,1.62,.39,2.05,2.55,3.99,2.72,1.7,.15,2.73-1.09,3.62-2.42,1.31-1.96,2.58-3.93,3.85-5.9l-6.4-4.98,11.16-21.82Z"/><path class="cls-7" d="M194.1,513.64c-2.39,.49-4.87-.18-7.27-.11-8.04,.24-7.53,6.37-5.1,10.23,1.64,2.61,3.63,4.92,5.79,7.06l35.39-1.65c.18-3.05,.23-6.12,.19-9.21-.08-5.39,1.58-14-.37-19.07-2.35-6.1-22.66-5.97-21.96,2.57,.14,1.72,1.37,5.01,.22,6.7-1.67,2.44-4.03,2.9-6.87,3.49Z"/><path class="cls-7" d="M321.12,446.02c-2.54-1.28-5.24-2.14-8-2.82l2.03,3.34-14.82,10.71c1.18,5.35,5.37,11.48,11.71,10.96,4.06-.33,4.08-7.16,4.86-10.17,.23-.9,1.34-1.65,2.26-1.29,7.84,3.08,7.37-8.01,1.95-10.74Z"/><path class="cls-7" d="M273.76,506.78c-1.4,.56-2.98,2.34-4.57,2.22-1.15-.09-2.39-1.75-3.45-2.25-3.05-1.44-6.5-1-9.41,.56-2.24,1.21-6.22,3.95-5.44,7.05,.72,2.87,8.65,4.02,11.04,4.3,4.3,.51,8.78,.46,13.07-.11,2.54-.34,7.26-1.32,8.21-4.22,1.84-5.54-5.04-9.32-9.45-7.55Z"/><path class="cls-7" d="M264.42,385.42c-.78,.04-1.61-.59-1.77-1.35-1.07-5.05-4.71-7.35-9.51-4.53-.84,.49-2,1.01-3,.76-2.48-.61-5.44-2.78-8.02-1.98-4.79,1.5-9.64,4.54-12.23,9-8.98,15.46,12.28,22.77,20.99,10.97,.62-.84,1.81-1.04,2.69-.47,1.32,.87,.65,1.42,.13,2.37-1.13,2.07-1.34,3.3,1.53,3.47,3.58,.22,7.03,.22,9.46-2.51,.55-.62,1.1-1.24,1.65-1.85,1.45-1.63,2.92-3.3,3.98-5.22,3.21-5.86,.33-8.96-5.89-8.65Z"/><path class="cls-7" d="M191.85,411.98c-.93,.42-1.86,.66-2.42,.28-1.25-.85-.73-3.93-.82-5.14-.13-1.82-.94-3.86-2.15-5.28-2.44-2.89-5.4-1.51-8.13,.1-.86,.51-1.71,1.02-2.57,1.53-2.36,1.55-4.63,3.22-6.81,5.03-2.28,1.83-4.56,3.67-6.81,5.54-2.01,1.66-16.08,14.47-4.97,16.22,2.38,.38,4.82,.14,7.17-.33,.42-.08,4.24-1.46,4.27-1.26,.69,4.23-1.64,8.71-.35,12.91,1.31,4.27,5.79,4.01,9.35,2.83,1.79-.51,3.4-1.36,4.82-2.53,2.28-1.73,2.92-4.27,4.82-6.27,.73-.77,1.78-.49,2.71-.4,4.18,.4,7.41-.18,10.08-3.35,3.53-4.2,3.87-11.6,2.38-16.65-.64-2.17-1.85-4.61-4.19-5.31-1.41-.42-2.45-.03-3.68,.59-.56,.28-1.63,1-2.7,1.48Z"/><path class="cls-9" d="M111.62,113.06l-17.17-9.81,8.58,23.29-21.46,10.42,23.3,3.07-8.28,24.52,15.02-12.87,15.32,70.5,180.86-5.03v-31.76h7.36l-1.22-19.01,11.04,11.04v-10.42l13.48,7.05s4.91-49.96-34.33-84.91l17.78-6.74s-27.59-32.54-72.34-26.69l31.88-22.35s-65.6-3.06-101.77,29.43l7.97-29.51s-57.01,12.34-76.02,79.78Z"/><path class="cls-4" d="M133.68,187.25s1.53,49.97,2.14,57.01c.62,7.05,0,65.29,77.56,67.13,77.55,1.84,77.54-52.7,78.78-73.26,1.25-20.56,0-59.16,0-59.16l-158.48,8.28Z"/><path class="cls-4" d="M146.25,228.63c0,8.89-7.21,16.09-16.09,16.09s-16.1-7.21-16.1-16.09,7.21-16.09,16.1-16.09,16.09,7.21,16.09,16.09Z"/><path class="cls-4" d="M315.15,228.63c0,8.89-7.21,16.09-16.09,16.09s-16.09-7.21-16.09-16.09,7.2-16.09,16.09-16.09,16.09,7.21,16.09,16.09Z"/><path class="cls-5" d="M315.15,185.41l-1.22-19.01c-2.17-1.85-6.45-4.4-8.89-5.82,.42,1.43,1.95,11.85-.15,10.63-11.18-6.51-23.15-18.16-33.41-25.65,.14,1.65,1.68,12.41-.76,10.42-9.51-7.73-19.68-16.44-29.34-24.25,2.36,6.31,7.2,23.05,5.27,22.41-7.45-2.46-15.61-6.34-22.64-9.78-2.07-1.01-19.73-11.07-19.51-9.38,.47,3.7,4.6,26.21,4.6,26.21l-30.99-8.93s-17.75-8.09-37.36-5.09c-9.86,1.5-29.12,4.51-29.12,4.51l4.91,44.6c18.5-.92,198.63-10.88,198.63-10.88Z"/><polygon class="cls-3" points="213.2 211.73 204.19 244.72 224.42 243.02 213.2 211.73"/><polygon class="cls-1" points="178.9 272.92 255.69 253 255.69 279.67 178.9 272.92"/><path class="cls-11" d="M171.08,226.82c0,5.33-4.33,9.66-9.66,9.66s-9.66-4.32-9.66-9.66,4.32-9.65,9.66-9.65,9.66,4.32,9.66,9.65Z"/><path class="cls-11" d="M273.11,226.82c0,5.33-4.33,9.66-9.66,9.66s-9.66-4.32-9.66-9.66,4.32-9.65,9.66-9.65,9.66,4.32,9.66,9.65Z"/><path class="cls-9" d="M180.28,212.14c-.15,0-.31-.02-.46-.06l-34.02-8.8c-.98-.25-1.57-1.26-1.32-2.24,.25-.98,1.25-1.57,2.24-1.32l34.02,8.8c.98,.25,1.58,1.26,1.32,2.24-.21,.83-.96,1.38-1.78,1.38Z"/><path class="cls-9" d="M239.65,212.14c.15,0,.31-.02,.46-.06l34.03-8.8c.98-.25,1.57-1.26,1.32-2.24-.25-.98-1.25-1.57-2.24-1.32l-34.03,8.8c-.98,.25-1.57,1.26-1.32,2.24,.22,.83,.96,1.38,1.78,1.38Z"/><polygon class="cls-7" points="204.19 330.25 188.25 372.39 218.9 360.59 250.79 369.63 232.52 329.64 204.19 330.25"/><rect class="cls-7" x="218.25" y="356.59" width="2.56" height="172.74"/><path class="cls-4" d="M204.19,299.89v34.03s-4.14,26.21,14.71,26.67c18.85,.46,13.79-26.67,13.79-26.67l-1.38-34.03h-27.13Z"/><path class="cls-8" d="M229.69,585.82c-1.15,0-2.33-.01-3.53-.02l-3.81-.02c-9.05,0-15.42-1.84-15.69-1.91-.97-.28-1.53-1.31-1.25-2.28,.28-.97,1.31-1.54,2.28-1.25,.05,.02,6.16,1.76,14.65,1.76l3.84,.02c7.13,.06,13.27,.11,16.8-1.66,.91-.45,2.01-.09,2.47,.82,.45,.91,.09,2.01-.83,2.47-3.63,1.82-8.85,2.07-14.93,2.07Z"/><path class="cls-6" d="M149.39,469.06l3.93,3.33,16.8,14.72s10.36,11.24,1.76,23.08c-11.4,15.69-25.8,5.66-25.8,5.66l-19.07-14.92,22.39-31.87Z"/><path class="cls-6" d="M285.48,470.54l-3.93,3.33s-30.76,20.16-20.34,34.32c11.49,15.62,25.8,5.66,25.8,5.66l19.07-14.91-20.61-28.4Z"/><path class="cls-10" d="M110.75,813.74l80.06,4.97s8.61-38.83-33.31-49.57c-41.91-10.75-46.75,44.6-46.75,44.6Z"/><path class="cls-10" d="M339.85,813.74l-80.06,4.97s-8.6-38.83,33.31-49.57c41.92-10.75,46.75,44.6,46.75,44.6Z"/></svg>