<?xml version="1.0" encoding="UTF-8"?><svg id="Layer_1" xmlns="http://www.w3.org/2000/svg" viewBox="0 0 432 852"><defs><style>.cls-1{fill:#f2bf8c;}.cls-2{fill:#ffc145;}.cls-3{fill:#e5b385;}.cls-4{fill:#fbca9c;}.cls-5{fill:#333130;}.cls-6{fill:#252625;}.cls-7{fill:#1e1e1e;}.cls-8{fill:#141414;}.cls-9{fill:#443328;}.cls-10{fill:#302c28;}.cls-11{fill:#4c392c;}</style></defs><path class="cls-4" d="M176.13,490.34l-.23,4.98-1.37,21.56s-2.5,14.57-16.65,14.97c-18.75,.53-19.57-16.43-19.57-16.43l.17-23.43,37.64-1.65Z"/><path class="cls-4" d="M263.04,490.34l.23,4.98,1.37,21.56s2.5,14.57,16.65,14.97c18.75,.53,19.56-16.43,19.56-16.43l-.17-23.43-37.64-1.65Z"/><polygon class="cls-6" points="183.25 519.41 159.9 531.86 159.9 795.75 209.24 795.75 218.14 580.48 231.42 579.89 250.18 795.75 299.7 795.75 287.84 531.86 276.57 524.75 183.25 519.41"/><path class="cls-11" d="M168.05,345.06l-10.82-10.67s-12.9,1.77-18.23,13.04c-5.34,11.27-8.01,149.74-8.01,149.74l34.1-2.08,2.97-150.03Z"/><path class="cls-2" d="M166.98,398.99l.16-8.45h-32.57c-.15,2.75-.29,5.58-.43,8.45h32.83Z"/><path class="cls-2" d="M166.73,411.44l.17-8.9h-32.93c-.14,2.93-.27,5.9-.39,8.9h33.15Z"/><path class="cls-9" d="M157.85,378.74c-.83,14.26-2.92,92.98-3.07,117.12l10.3-.77,2.97-150.03-3.18-3.13c-4.97,9.82-6.32,24.84-7.02,36.81Z"/><path class="cls-11" d="M269.31,341.71l10.82-10.68s12.9,1.78,18.24,13.05c5.34,11.27,8.01,149.74,8.01,149.74l-34.1-2.08-2.97-150.03Z"/><path class="cls-9" d="M285.32,394.88c.83,14.26,3.11,73.73,3.27,97.87l-10.31-.77-2.97-150.04s9.31,40.96,10.01,52.93Z"/><path class="cls-11" d="M157.22,334.39l2.68,197.47h127.94l-7.42-200.94s-84.5-6.32-123.2,3.47Z"/><path class="cls-2" d="M281.39,354.15c5.55,5.23,12.51,7.53,19.77,8.77-.83-9.74-1.76-16.67-2.79-18.84-5.34-11.27-18.24-13.05-18.24-13.05l-7.12,7.02c1.09,6.14,4.11,12.07,8.38,16.09Z"/><path class="cls-2" d="M277.09,363.41c7.07,6.1,15.81,8.2,24.8,9.05-.14-2.05-.28-4.05-.43-5.94-10.72-1.75-21.17-5.45-26.92-15.39-1.87-3.24-3.37-6.74-4.32-10.32l-.91,.9,.25,12.94c2.15,3.33,4.71,6.33,7.53,8.76Z"/><path class="cls-2" d="M281.27,354.02l-.85-23.1s-2.85-.21-7.7-.5c-.93,8.49,2.59,17.88,8.56,23.59Z"/><path class="cls-2" d="M263.1,329.92c-1.39,12.22,4.97,25.73,13.99,33.49,1.48,1.28,3.04,2.37,4.66,3.32l-.29-7.78c-2.7-2.06-5.06-4.6-6.92-7.82-3.71-6.41-5.96-13.83-5.33-20.9-1.84-.1-3.91-.2-6.1-.31Z"/><path class="cls-2" d="M205.61,350.06c6.41,3.67,16.07,4.9,23.32,2.91,11.38-3.14,13.39-13.56,13.75-23.8-13.85-.35-29.87-.41-45.15,.31,.92,7.72,.75,16.39,8.08,20.59Z"/><path class="cls-8" d="M143.24,816.23h77.74s-.8-36.94-35.08-40.06c-34.29-3.11-42.66,40.06-42.66,40.06Z"/><path class="cls-8" d="M312.04,816.23h-77.74s.8-36.94,35.08-40.06c34.29-3.11,42.66,40.06,42.66,40.06Z"/><path class="cls-7" d="M228.81,579.9c-1.11,0-2.25,0-3.42-.01l-3.68-.02c-8.76,0-14.92-1.78-15.18-1.85-.94-.28-1.48-1.26-1.21-2.21,.28-.94,1.26-1.49,2.21-1.21,.05,.02,5.96,1.71,14.18,1.71l3.71,.02c6.9,.05,12.83,.1,16.25-1.61,.88-.44,1.95-.08,2.39,.79,.44,.88,.09,1.95-.8,2.39-3.52,1.76-8.56,2-14.45,2Z"/><g><path class="cls-4" d="M204.12,298.41v37.95s0,14.25,17.2,14.23c14.84-.01,13.64-15.42,13.64-15.42l.02-36.77h-30.86Z"/><path class="cls-1" d="M204.26,310.37c4.5,2.78,11.13,1.28,16.16,1.12,5.13-.16,9.84-1.15,14.54-2.69v-10.39h-30.85v11.9c.05,.03,.1,.03,.15,.06Z"/></g><path class="cls-11" d="M156.94,271.79s-41.81-24.46-44.03-85.39c-2.22-60.93,12.45-121.42,112.97-116.08,100.52,5.34,94.01,105.7,92.96,117.86-1.78,20.51-12.9,58.71-44.03,83.62h-117.86Z"/><path class="cls-2" d="M225.88,70.31c-100.52-5.34-115.19,55.15-112.97,116.08,.38,10.37,1.92,19.66,4.2,27.98,.53-6.61,1.14-13.18,2.73-19.67,3.77-15.37,9.53-31.3,19.28-43.92,17.01-22.02,50.13-29.22,76.61-28.68,27.53,.56,57.52,9.42,75.2,31.9,10.45,13.28,15.78,29.15,18.29,45.74,.96,6.34,1.75,12.94,2.26,19.62,4.4-11.9,6.65-22.97,7.36-31.19,1.05-12.16,7.56-112.52-92.96-117.86Z"/><path class="cls-11" d="M213.85,128.87s-34.45-21.94-36.53-41.51c-2.08-19.57,10.38-43.58,10.38-43.58,0,0-1.28,15.58,5.82,21.05,0,0,2.18-21.64,15.82-29.06,0,0-.72,20.81,4.5,27.57l11.8-27.57,7.12,20.46s6.82-9.78,6.52-18.68c0,0,14.43,13.07,15.52,38.26,1.09,25.19-7.11,39.12-25.4,51.88l-15.56,1.19Z"/><path class="cls-4" d="M143.91,155.02h141.72s20.16,123.08-23.72,143.56c-43.88,20.47-110.93,2.06-115.36-32.62-4.43-34.67-2.63-110.94-2.63-110.94Z"/><path class="cls-4" d="M152.19,217.35c0,9.26-7.51,16.77-16.77,16.77s-16.78-7.51-16.78-16.77,7.51-16.77,16.78-16.77,16.77,7.51,16.77,16.77Z"/><circle class="cls-4" cx="293.76" cy="217.35" r="16.77"/><path class="cls-5" d="M181.85,198.11c0,5.07-4.12,9.19-9.19,9.19s-9.19-4.12-9.19-9.19,4.12-9.19,9.19-9.19,9.19,4.12,9.19,9.19Z"/><path class="cls-5" d="M267.14,198.11c0,5.07-4.11,9.19-9.19,9.19s-9.19-4.12-9.19-9.19,4.11-9.19,9.19-9.19,9.19,4.12,9.19,9.19Z"/><path class="cls-3" d="M227.51,228.52c0,5.15-6.24,9.32-13.93,9.32s-13.93-4.17-13.93-9.32,6.24-9.31,13.93-9.31,13.93,4.17,13.93,9.31Z"/><path class="cls-5" d="M152.2,180.47c-.56,0-1.11-.26-1.45-.75-.57-.81-.38-1.91,.43-2.48,.45-.32,11.3-7.86,28.23-8.55,1.03-.06,1.81,.73,1.85,1.71,.04,.98-.72,1.8-1.71,1.85-15.84,.64-26.23,7.83-26.33,7.9-.31,.22-.67,.32-1.02,.32Z"/><path class="cls-5" d="M273.3,180.47c.56,0,1.1-.26,1.45-.75,.57-.81,.38-1.91-.42-2.48-.46-.32-11.3-7.86-28.24-8.55-1.03-.06-1.81,.73-1.85,1.71-.04,.98,.72,1.8,1.7,1.85,15.83,.64,26.23,7.83,26.33,7.9,.31,.22,.67,.32,1.03,.32Z"/><path class="cls-10" d="M195.87,273.01c-7.76-.88-12.51-2.15-12.63-2.18-.79-.22-1.26-1.13-1.05-2.04,.22-.9,1-1.48,1.82-1.25,.32,.09,31.79,8.46,65.85-3.48,.79-.27,1.6,.22,1.83,1.11,.21,.89-.24,1.84-1.04,2.11-21.58,7.57-42.15,7.15-54.77,5.72Z"/><path class="cls-2" d="M222.53,388.32c-23.99,0-43.44,19.45-43.44,43.44s19.45,43.43,43.44,43.43,43.44-19.45,43.44-43.43-19.45-43.44-43.44-43.44Zm0,77.98c-19.08,0-34.54-15.46-34.54-34.54s15.46-34.54,34.54-34.54,34.54,15.46,34.54,34.54-15.47,34.54-34.54,34.54Z"/><path class="cls-2" d="M222.53,458.38c-14.7,0-26.62-11.92-26.62-26.61s11.92-26.62,26.62-26.62,26.61,11.92,26.61,26.62-11.92,26.61-26.61,26.61Z"/><g><path class="cls-2" d="M211.85,494.93c-.14-2.56-.3-5.63-.27-7.91h-.08c-.63,2.15-1.39,4.43-2.31,6.96l-3.23,8.89h-1.8l-2.96-8.73c-.87-2.58-1.61-4.95-2.12-7.12h-.05c-.06,2.28-.19,5.35-.35,8.1l-.49,7.86h-2.25l1.28-18.33h3.02l3.12,8.87c.77,2.25,1.39,4.26,1.85,6.17h.08c.46-1.86,1.11-3.87,1.93-6.17l3.26-8.87h3.02l1.14,18.33h-2.31l-.46-8.05Z"/><path class="cls-2" d="M223.22,494.74v1.77h-6.72v-1.77h6.72Z"/><path class="cls-2" d="M229.79,487.54h-.06l-3.07,1.66-.47-1.82,3.87-2.07h2.04v17.68h-2.31v-15.44Z"/><path class="cls-2" d="M237.87,502.98v-1.47l1.88-1.82c4.51-4.3,6.55-6.58,6.58-9.25,0-1.79-.87-3.45-3.51-3.45-1.61,0-2.94,.82-3.75,1.5l-.77-1.68c1.23-1.04,2.97-1.79,5.01-1.79,3.8,0,5.41,2.61,5.41,5.14,0,3.27-2.36,5.9-6.09,9.49l-1.42,1.31v.05h7.94v1.99h-11.28Z"/></g></svg>