<?xml version="1.0" encoding="UTF-8"?><svg id="Layer_1" xmlns="http://www.w3.org/2000/svg" xmlns:xlink="http://www.w3.org/1999/xlink" viewBox="0 0 432 852"><defs><style>.cls-1{clip-path:url(#clippath);}.cls-2{fill:#6b282b;}.cls-3{fill:#f4f4f4;}.cls-4{fill:#fff;}.cls-5{fill:#f2bf8c;}.cls-6{fill:#e5e5e5;}.cls-7{fill:#fbca9c;}.cls-8{fill:#8c2323;}.cls-9{fill:#cecece;}.cls-10{fill:#1c1e23;}.cls-11{fill:#2d2a27;}.cls-12{fill:#282b33;}</style><clipPath id="clippath"><path class="cls-4" d="M162.35,251.52s78.6-12.45,104.31-38.46v45.67s-80.27,.48-104.31-7.21Z"/></clipPath></defs><g><path class="cls-7" d="M203.25,271.5v32.03s.71,17.15,17.39,16.27,16.14-16.27,16.14-16.27l-1.6-32.03h-31.93Z"/><path class="cls-5" d="M220.41,284.19c5.27-.12,10.39-.07,15.38-.66l-.6-12.04h-31.93v10.4c5.75,.55,11.08,2.43,17.16,2.29Z"/></g><path class="cls-8" d="M111.99,196.94l-6.15-137.17,13.17,20.37s1.32-42.59,42.59-58.84c0,0-9.22,16.69-5.71,31.62,0,0,18-36.88,72.89-45.23,0,0-16.25,13.61-19.32,28.98,0,0,26.35-30.74,90.89-22.83l-31.18,16.25s51.37-14.93,82.99,7.03l-36.88,3.51s32.49,7.46,44.35,41.71c0,0-15.37-10.98-38.64-7.46,0,0,24.15,3.95,28.1,22.39l-27.22-6.59-.88,100.11-209.01,6.15Z"/><path class="cls-7" d="M128.68,135.47c-.26,6.21-3.95,93.27-4.83,106.57-.88,13.3,1.32,29.99,27.66,34.82,26.35,4.83,115.92,2.53,136.12-2.47,20.2-4.99,24.59-19.05,22.83-42.32s-7.46-87.38-9.66-96.6c-2.2-9.22-14.49-18.3-37.32-18.88-30.74-.78-44.35,34.69-44.35,34.69,0,0-5.6-34.66-46.11-35.08-36.88-.38-44.08,13.07-44.35,19.28Z"/><circle class="cls-7" cx="121.87" cy="199.26" r="16.03"/><circle class="cls-7" cx="315.52" cy="199.26" r="16.03"/><path class="cls-8" d="M217.33,143.68s8.04,14.24-9.33,30.13c0,0,25.38-15.91,9.33-30.13Z"/><path class="cls-8" d="M220.33,145.21c-.11,.76-.21,1.52-.31,2.28,4.52,3.26,10.18,10.23,10.01,24.77,0,0,4.65-23.48-9.69-27.05Z"/><circle class="cls-11" cx="159.42" cy="180.41" r="9.95"/><circle class="cls-11" cx="276.52" cy="180.41" r="9.95"/><rect class="cls-5" x="205.67" y="194.02" width="21.66" height="19.92"/><g><path class="cls-4" d="M162.35,251.52s78.6-12.45,104.31-38.46v45.67s-80.27,.48-104.31-7.21Z"/><g class="cls-1"><rect class="cls-6" x="234.54" y="208.89" width="4.33" height="67.91"/><rect class="cls-6" x="202.44" y="208.89" width="4.32" height="67.91"/></g></g><path class="cls-7" d="M310.69,343.75l5.69,174.43s-4.83,13.26-16.92,13.76c-16.94,.7-20.16-17.21-20.16-17.21l-2.89-180.81,34.28,9.84Z"/><g><path class="cls-2" d="M293.3,824.98s10.64,5.42,10.83,7.42c.19,2.01,2.3,11.56-4.07,11.87-6.38,.31-65.97-1.66-73.11-4.71-7.16-3.05-1.48-14.88,1.48-15.41,2.96-.54,64.88,.82,64.88,.82Z"/><path class="cls-7" d="M257.87,612.01s7.46,163.19,11.43,171.61c3.97,8.42,36.06,29,35.58,35.58-.47,6.57,2.1,13.37-17.11,11.99-19.22-1.37-66.84-3.75-65.25-11.77,1.59-8.02,19.6-28.6,23.87-38.46,4.25-9.86-9.98-164.39-9.98-164.39l21.46-4.57Z"/><path class="cls-2" d="M293.54,806.13s-22.13-7.15-26.43,23.57l-3.5,3.41-2.66-3.79s-.18-11.75-10.19-21.09c-10-9.37-17.69-6.81-17.69-6.81l4.61-6.51s19.22,2.06,25.24,14.06c0,0,7.82-11.77,21.16-10.74l9.45,7.9Z"/></g><g><path class="cls-2" d="M110.17,824.98s-10.63,5.42-10.82,7.42c-.19,2.01-2.31,11.56,4.08,11.87,6.38,.31,65.96-1.66,73.11-4.71,7.16-3.05,1.48-14.88-1.47-15.41-2.96-.54-64.89,.82-64.89,.82Z"/><path class="cls-7" d="M145.59,612.01s-7.45,163.19-11.42,171.61c-3.98,8.42-36.06,29-35.59,35.58,.47,6.57-2.1,13.37,17.12,11.99,19.22-1.37,66.84-3.75,65.25-11.77-1.59-8.02-19.61-28.6-23.87-38.46-4.25-9.86,9.98-164.39,9.98-164.39l-21.46-4.57Z"/><path class="cls-2" d="M109.92,806.13s22.13-7.15,26.43,23.57l3.5,3.41,2.65-3.79s.17-11.75,10.19-21.09c10-9.37,17.69-6.81,17.69-6.81l-4.62-6.51s-19.21,2.06-25.23,14.06c0,0-7.82-11.77-21.16-10.74l-9.46,7.9Z"/></g><polygon class="cls-12" points="264.05 511.39 283.66 523.56 296.39 783.58 226.57 783.6 215.41 578.79 206.79 578.84 191.61 783.6 121.07 783.58 141.85 523.56 159.6 511.39 264.05 511.39"/><path class="cls-2" d="M269.11,311.24s-104.94-10.79-128.78,3.91c-23.83,14.71-41.76,59.67-41.76,59.67l34.15,20.45,17.24-22.82-8.11,151.11h141.81v-114.09l35.66-6.59s3.04-65.92-10.65-78.6c-13.69-12.68-39.57-13.04-39.57-13.04Z"/><path class="cls-7" d="M132.72,395.27s-21.8,39.2-17.75,45.29c4.06,6.09,60.25,59.17,60.25,59.17,0,0,7.19,15.21-6.5,23.83-13.69,8.62-33.48-5.07-53.76-25.86-20.27-20.79-41.57-37.01-42.59-48.17-1.02-11.15,26.19-74.71,26.19-74.71l34.15,20.45Z"/><path class="cls-10" d="M205.84,578.84c1.27,0,2.57-.01,3.9-.02l4.21-.02c9.98,0,17.01-2.02,17.3-2.11,1.07-.32,1.69-1.44,1.38-2.52-.32-1.07-1.44-1.69-2.52-1.38-.07,.02-6.8,1.95-16.16,1.95l-4.23,.02c-7.87,.06-14.63,.12-18.52-1.84-1.01-.5-2.22-.09-2.73,.91-.5,1-.09,2.22,.91,2.72,4.01,2,9.76,2.28,16.46,2.28Z"/><path class="cls-3" d="M200.92,434c-6.04-5.55-14.67-9.46-19.53-16.11-11.1-15.17,.87-34,14.15-42.45,7.99-5.09,16.14-8.16,25.78-7.69,21.41,1.05,35.41,14.5,38.55,35.45,1.19,7.94-1.64,14.63-4.18,21.91-2.52,7.21,1.64,13.45,.62,20.74-.52,3.72-2.49,12.17-7.02,6.09-3.04-4.09-4.87-11.43-5.56-16.17-1.13,3.92,.14,21.58-7.09,20.78-5.12-.57-9.54-14.81-9.37-19.18-.87,4.19-.01,15.96-4.7,17.7-5.28,1.97-10.68-9.8-10.54-13.97-.12,4.62-1.93,20.15-9.67,16.38-4.68-2.28-5.89-13.74-4.09-17.93l2.63-5.56Z"/><ellipse class="cls-9" cx="203.05" cy="404.4" rx="6.75" ry="9.86"/><path class="cls-9" d="M242.53,404.4c0,5.44-3.03,9.86-6.75,9.86s-6.75-4.42-6.75-9.86,3.03-9.86,6.75-9.86,6.75,4.42,6.75,9.86Z"/></svg>