<?xml version="1.0" encoding="UTF-8"?><svg id="Layer_1" xmlns="http://www.w3.org/2000/svg" viewBox="0 0 432 852"><defs><style>.cls-1{fill:#f2bf8c;}.cls-2{fill:#fbca9c;}.cls-3{fill:#ab958a;}.cls-4{fill:#1e1e1e;}.cls-5{fill:#141414;}.cls-6{fill:#111;}.cls-7{fill:#956046;}.cls-8{fill:#554f4b;}.cls-9{fill:#302925;}.cls-10{fill:#4c301d;}.cls-11{fill:#4c4743;}</style></defs><path class="cls-2" d="M314.73,508.38l-.11,5.32-.87,23.04s-2.26,15.61-17.34,16.42c-19.98,1.07-21.32-16.99-21.32-16.99l-.45-24.99,40.1-2.8Z"/><polygon class="cls-9" points="168.81 508.29 163.11 516.2 163.11 528.54 289.66 526.36 288.7 508.29 168.81 508.29"/><path class="cls-8" d="M273.2,329.87l10.76-17.39s17.71-.95,25.94,14.55c8.23,15.5,8.54,186.33,8.54,186.33l-32.9,2.85-4.11-23.1-8.23-163.23Z"/><path class="cls-11" d="M283.76,362.89c-2.83-7.62-7.76-10.13-9.8-17.81l7.46,148.03,4.11,23.1,7.35-.64c.14-31.53-2.65-135.28-9.13-152.68Z"/><polygon class="cls-8" points="174.5 315.96 224.48 321.02 275.1 312.48 283.95 312.48 289.11 515.89 163.11 516.2 174.5 315.96"/><path class="cls-2" d="M172.41,473.73l4.05,3.44,17.33,15.19s10.7,11.6,1.81,23.81c-11.76,16.19-26.63,5.84-26.63,5.84l-19.68-15.4,23.11-32.89Z"/><path class="cls-8" d="M182.4,325.45l-7.91-9.49s-19.93,0-26.57,7.27c-6.64,7.28-53.78,107.25-55.68,112.62-1.9,5.38-6.33,17.39,15.5,39.54,21.83,22.15,41.13,37.64,41.13,37.64l27.2-40.17s-40.6-30.05-39.59-37.33c1.01-7.27,38.02-59.47,38.02-59.47l7.91-50.62Z"/><polygon class="cls-3" points="222.58 337.46 206.13 486.78 243.62 486.78 229.85 337.46 222.58 337.46"/><polygon class="cls-3" points="219.49 320.51 208.5 319.4 198.54 349.17 224.87 340.3 251.95 346.19 243.62 317.22 238.08 319.75 219.49 320.51"/><path class="cls-2" d="M208.5,281.47v39.38s2.37,20.81,18.98,19.43c16.61-1.39,16.13-23.07,16.13-23.07v-35.74h-35.11Z"/><path class="cls-1" d="M230.49,296.37c4.54-.39,8.86-1.5,13.13-2.81v-12.09h-35.11v13.71c7.31,.37,14.74,1.8,21.98,1.18Z"/><path class="cls-10" d="M140.17,193.94s-15.26-74.1-6.79-89.29c10.18-18.25,21.5-7.29,21.5-7.29,0,0,116.55-78.3,125.66-79.72,9.1-1.42,22.39-.95,23.81,19.46,1.42,20.4,3.8,156.84,3.8,156.84H140.17Z"/><path class="cls-2" d="M153.93,139.12v96.33s3.32,60.26,69.28,58.37c65.96-1.9,72.6-63.59,72.6-63.59l-.95-91.11H153.93Z"/><path class="cls-2" d="M170.07,197.72c0,9.56-7.76,17.32-17.32,17.32s-17.32-7.76-17.32-17.32,7.75-17.32,17.32-17.32,17.32,7.76,17.32,17.32Z"/><path class="cls-2" d="M316.69,197.72c0,9.56-7.76,17.32-17.32,17.32s-17.32-7.76-17.32-17.32,7.76-17.32,17.32-17.32,17.32,7.76,17.32,17.32Z"/><polygon class="cls-1" points="211.82 178.03 208.5 250.63 240.3 250.63 230.8 178.03 211.82 178.03"/><path class="cls-7" d="M221.23,274.3c-17.84,0-32.46-9.7-33.25-10.23-.86-.59-1.09-1.77-.51-2.63,.59-.87,1.77-1.1,2.63-.51,.23,.16,23.68,15.67,46.17,6.79,22.42-8.84,24.89-26.83,24.91-27.01,.13-1.04,1.04-1.8,2.12-1.65,1.04,.13,1.78,1.07,1.65,2.12-.1,.83-2.79,20.41-27.29,30.08-5.57,2.2-11.15,3.05-16.44,3.05Z"/><path class="cls-7" d="M191.89,178.26c0,6.03-4.89,10.91-10.91,10.91s-10.91-4.88-10.91-10.91,4.88-10.91,10.91-10.91,10.91,4.89,10.91,10.91Z"/><path class="cls-7" d="M276.83,178.26c0,6.03-4.89,10.91-10.92,10.91s-10.91-4.88-10.91-10.91,4.89-10.91,10.91-10.91,10.92,4.89,10.92,10.91Z"/><polygon class="cls-4" points="170.07 525.85 163.11 528.54 136.48 797.76 187.15 804.4 224.4 577.2 240.3 577.2 282.05 804.4 332.35 799.67 289.66 526.36 170.07 525.85"/><path class="cls-5" d="M121.19,830.97l73.08,2.37s7.12-31.79-21.35-41.28c-29.19-9.74-56.47,14.24-51.72,38.91Z"/><path class="cls-5" d="M268.41,834.84l72.9-5.59s3.62-32.38-25.72-38.72c-30.08-6.49-54.59,20.3-47.18,44.31Z"/><path class="cls-6" d="M235.98,577.27c-1.19,0-2.4,0-3.65-.02l-3.93-.02c-9.34,0-15.92-1.9-16.2-1.98-1-.29-1.58-1.34-1.29-2.35,.3-1.01,1.35-1.59,2.36-1.29,.06,.01,6.36,1.82,15.13,1.82l3.96,.02c7.36,.06,13.69,.11,17.33-1.71,.94-.47,2.08-.09,2.55,.85,.47,.94,.09,2.08-.85,2.55-3.75,1.88-9.14,2.14-15.41,2.14Z"/></svg>