<?xml version="1.0" encoding="UTF-8"?><svg id="Layer_1" xmlns="http://www.w3.org/2000/svg" viewBox="0 0 432 852"><defs><style>.cls-1{fill:#eee5d7;}.cls-2{fill:#f2c097;}.cls-3{fill:#686867;}.cls-4{fill:#68656f;}.cls-5{fill:#dca275;}.cls-6{fill:#d3c7b6;}.cls-7{fill:#d8cfc3;}.cls-8{fill:#c9926d;}.cls-9{fill:#3f3f3f;}.cls-10{fill:#353029;}.cls-11{fill:#5e5149;}.cls-12{fill:#828282;}</style></defs><path class="cls-2" d="M72.23,515.81l.33,44.58s1.08,10.5,13.62,11.8c15.46,1.61,15.29-10.75,15.29-10.75l1.3-40.03-30.53-5.61Z"/><path class="cls-2" d="M358.92,515.61l.73,44.58s.57,11.53-13.33,12.12c-14.25,.61-15.54-10.39-15.54-10.39l-2.24-39.99,30.39-6.33Z"/><path class="cls-9" d="M291.61,785.33l8.88,5.72s38.06-4.71,45.67,6.52c7.62,11.23,.64,22.02-10.15,23.92-10.78,1.9-79.58-.29-88.64-4.9-9.04-4.62-5.45-25.55-5.45-25.55l9.09-10.04,40.6,4.32Z"/><path class="cls-9" d="M144.3,785.33l-8.88,5.72s-38.06-4.71-45.67,6.52c-7.61,11.23-.64,22.02,10.15,23.92,10.78,1.9,79.58-.29,88.63-4.9,9.05-4.62,5.45-25.55,5.45-25.55l-9.09-10.04-40.59,4.32Z"/><polygon class="cls-12" points="115.26 536.53 115.26 790.31 203.4 795.19 208.12 652.86 226.74 652.86 233.11 795.19 319.79 791.29 310.98 536.53 115.26 536.53"/><path class="cls-1" d="M171.12,334.6l-76.76,16.26s-18.58,3.42-21.02,22.49c-2.45,19.07-3.15,151.97-3.15,151.97l292.09,3.99-14.67-156.94s.98-22-17.6-26.89c-18.58-4.89-79.7-8.21-79.7-8.21l-79.21-2.67Z"/><polygon class="cls-4" points="161.67 338.41 157.92 431.63 144.07 576.25 279.99 576.25 268.74 338.95 161.67 338.41"/><g><path class="cls-1" d="M163.27,392.63l-.09-4.13c-27.47,12.28-60.53,137.27-60.53,137.27l-16.81,202.94,85.82,3.26-2.41-74.41-5.97-264.92Z"/><path class="cls-1" d="M267.48,390.86l-6.41,276.72c.26-.1,.51-.21,.76-.3l-2.09,64.68,85.82-3.26-13.2-199.39s-37.86-126.96-64.88-138.45Z"/></g><path class="cls-5" d="M161.67,307.36v31.05s5.85,17.85,52.79,19.15c46.95,1.3,54.12-12.65,54.12-12.65v-37.55h-106.91Z"/><path class="cls-8" d="M268.58,318.72v-11.36h-106.91v11.56c14.87,3.02,37.68,3.74,53.12,3.37,20.45-.5,34.23,.09,53.79-3.56Z"/><path class="cls-11" d="M120.28,214.58s-33.92,29.81-38.14,12.94c-4.21-16.86-20.32-67.35-14.67-81.18,8.8-21.52,36.65-14.71,36.65-14.71,0,0-5.62-15.46,7.03-33.03,12.65-17.57,198.34-80.82,217.57-66.76,19.26,14.06,4.49,99.79,4.49,99.79,0,0,28.12-5.11,32.07,11.94,2.77,11.96-8.17,73.58-15.9,78.5-7.73,4.92-23.19-7.5-23.19-7.5H120.28Z"/><path class="cls-5" d="M108.33,143.57s-6.68,152.85,0,163.74c6.67,10.89,212.21,11.77,220.38,0,8.18-11.77,0-144.06,0-144.06,0,0-8.16,18.27-32.75,16.86-24.59-1.4-187.63-36.54-187.63-36.54Z"/><path class="cls-5" d="M125.2,227.5c0,13.2-10.7,23.89-23.9,23.89s-23.89-10.69-23.89-23.89,10.7-23.89,23.89-23.89,23.9,10.7,23.9,23.89Z"/><path class="cls-5" d="M355.06,227.53c0,13.21-10.71,23.92-23.93,23.92s-23.92-10.71-23.92-23.92,10.7-23.92,23.92-23.92,23.93,10.71,23.93,23.92Z"/><polygon class="cls-7" points="161.67 338.68 166.47 534.76 127.12 533.23 154.99 429.7 129.56 425.78 161.67 338.68"/><polygon class="cls-7" points="268.74 338.68 263.98 534.76 303.3 533.23 275.43 429.7 300.85 425.78 268.74 338.68"/><polygon class="cls-12" points="214.46 357.83 199.48 556.69 218.3 572.34 238.35 556.69 218.3 357.91 214.46 357.83"/><rect class="cls-6" x="299.39" y="435.78" width="36.5" height="9.78"/><path class="cls-8" d="M244.84,254c0,3.4-2.52,6.16-5.62,6.16h-44.98c-3.11,0-5.63-2.76-5.63-6.16v-16.15c0-3.41,2.51-6.16,5.63-6.16h44.98c3.1,0,5.62,2.76,5.62,6.16v16.15Z"/><path class="cls-10" d="M148.52,295.02c-.61,0-1.23-.28-1.65-.8-.73-.91-.58-2.24,.33-2.96,.83-.67,21.02-16.34,70.09-15.26,48.92,1.05,68.83,14.6,69.65,15.19,.95,.66,1.18,1.98,.51,2.93-.66,.95-1.98,1.19-2.93,.52-.19-.13-19.86-13.4-67.31-14.43-47.48-.99-67.18,14.19-67.38,14.35-.39,.31-.86,.46-1.32,.46Z"/><path class="cls-10" d="M172.56,210.99c0,7.54-6.11,13.65-13.64,13.65s-13.65-6.11-13.65-13.65,6.11-13.64,13.65-13.64,13.64,6.11,13.64,13.64Z"/><path class="cls-10" d="M288.23,210.99c0,7.54-6.11,13.65-13.65,13.65s-13.64-6.11-13.64-13.65,6.1-13.64,13.64-13.64,13.65,6.11,13.65,13.64Z"/><path class="cls-3" d="M208.12,654.82c-13.53,0-26.59-8.87-27.14-9.25-.89-.61-1.12-1.83-.5-2.72,.6-.89,1.81-1.12,2.72-.51,.12,.09,12.62,8.56,24.92,8.56h18.62c6.8-.86,18.72-3.76,20.75-7.83,.49-.96,1.66-1.35,2.62-.87,.96,.48,1.35,1.66,.87,2.63-3.62,7.25-21.93,9.71-24,9.97l-18.86,.02Z"/><path class="cls-10" d="M180.13,187.97c-.31,0-.62-.08-.92-.24l-36.03-19.08c-.96-.5-1.32-1.69-.81-2.64,.5-.95,1.68-1.32,2.64-.81l36.03,19.09c.95,.5,1.32,1.69,.81,2.65-.35,.66-1.03,1.04-1.73,1.04Z"/><path class="cls-10" d="M246.42,187.97c.3,0,.62-.08,.92-.24l21.84-11.57c-2.01-.36-4.09-.73-6.24-1.12l-17.43,9.23c-.95,.5-1.32,1.69-.81,2.65,.35,.66,1.03,1.04,1.73,1.04Z"/></svg>