<?xml version="1.0" encoding="UTF-8"?><svg id="Layer_1" xmlns="http://www.w3.org/2000/svg" viewBox="0 0 432 852"><defs><style>.cls-1{fill:#eab783;}.cls-2{fill:#f4f1ed;}.cls-3{fill:#ffcc94;}.cls-4{fill:#303030;}.cls-5{fill:#8e615b;}.cls-6{fill:#d6d3d0;}.cls-7{fill:#262626;}.cls-8{fill:#282828;}</style></defs><path class="cls-3" d="M146.92,494.78c0,9.2-7.45,16.65-16.65,16.65h0c-9.19,0-16.64-7.45-16.64-16.65v-17.63c0-9.2,7.45-16.65,16.64-16.65h0c9.2,0,16.65,7.45,16.65,16.65v17.63Z"/><path class="cls-3" d="M314.21,494.78c0,9.2-7.45,16.65-16.65,16.65h0c-9.19,0-16.64-7.45-16.64-16.65v-17.63c0-9.2,7.45-16.65,16.64-16.65h0c9.2,0,16.65,7.45,16.65,16.65v17.63Z"/><path class="cls-7" d="M216.58,770.69l-77.86,2.19s-21.31-1.03-25.28,13.2c-3.97,14.22,.97,21.54,.97,21.54,0,0,25.41,5.11,102.38-9.07,5.6-1.03-.21-27.86-.21-27.86Z"/><path class="cls-7" d="M221.87,770.69l77.87,2.19s21.31-1.03,25.28,13.2c3.97,14.22-.97,21.54-.97,21.54,0,0-25.41,5.11-102.39-9.07-5.59-1.03,.21-27.86,.21-27.86Z"/><polygon class="cls-4" points="201.3 759.82 217.37 775.04 266.13 775.04 266.13 605.4 214.84 599.58 201.3 759.82"/><polygon class="cls-7" points="223.1 599.58 214.84 599.58 201.3 759.82 217.37 775.04 220.73 775.04 223.1 599.58"/><polygon class="cls-4" points="169.81 596.47 171.15 775.04 217.37 775.04 217.25 599.58 169.81 596.47"/><path class="cls-2" d="M282.8,313.48l9.21-12.74s22.7-5.27,28.25,6.37c5.56,11.64,7.76,176.74,7.76,176.74h-49.18l3.95-170.37Z"/><path class="cls-6" d="M282.76,314.88l-3.92,168.97h16.27v-137.67c-3.97-10.03-8.98-20.68-12.35-31.3Z"/><path class="cls-2" d="M151.09,313.48l-9.21-12.74s-22.7-5.27-28.25,6.37c-5.56,11.64-7.76,176.74-7.76,176.74h49.18l-3.95-170.37Z"/><path class="cls-6" d="M140.48,339.16c-.56,1.51-1.13,3.01-1.69,4.51v140.18h16.25l-3.91-168.61c-3.79,7.87-7.61,15.74-10.65,23.92Z"/><rect class="cls-4" x="141.87" y="486.18" width="150.76" height="139.41"/><polygon class="cls-4" points="292.63 493.87 141.87 493.87 141.87 478.5 289.7 478.5 292.63 482.3 292.63 493.87"/><rect class="cls-2" x="141.87" y="301.1" width="150.76" height="181.2"/><path class="cls-3" d="M183.58,278.71v25.91s15.37,4.39,32.05,4.39,29.86-.44,30.74-8.34c.88-7.9,0-25.91,0-25.91l-62.79,3.95Z"/><path class="cls-1" d="M223.83,293.65c8.38-.17,15.56-2.47,22.94-4.57-.04-7.23-.39-14.32-.39-14.32l-62.79,3.95v10.5c12.98,3.97,26.71,4.71,40.25,4.44Z"/><path class="cls-8" d="M116.55,209.48l-10.98-65.87s-4.56-15.67,1.73-20.06c6.29-4.39,15.1-.43,15.1-.43v-30.15s.88-12.3,16.69-16.1c15.81-3.8,40.4-1.76,40.4-1.76,0,0,.29-32.49,33.37-31.62,33.08,.88,33.67,33.37,33.67,33.37,0,0,31.17-5.71,41.28,1.76,13.47,9.96,4.97,42.45,4.97,42.45,0,0,7.99-1.58,11.8,3.4,3.8,4.97,3.42,17.09,1.08,32.9-2.35,15.81-10.54,53.28-10.54,53.28l-178.57-1.18Z"/><rect class="cls-6" x="214.1" y="309.31" width="2.2" height="172.99"/><polygon class="cls-4" points="215.05 309.31 180.07 301.1 188.58 340.32 215.05 309.31"/><polygon class="cls-4" points="215.05 309.31 250.02 301.1 241.5 340.32 215.05 309.31"/><circle class="cls-6" cx="226.54" cy="352.92" r="5.27"/><circle class="cls-6" cx="226.54" cy="404.07" r="5.27"/><circle class="cls-6" cx="226.54" cy="455.23" r="5.27"/><path class="cls-3" d="M288.51,199.52c-1.25,0-2.44,.2-3.6,.49,.56-28.98,.56-54.94,.56-54.94l-47.77-.46c-5.89,5.28-16.55,8.8-29.16,8.15-9.51-.49-16.19-4.87-20.23-8.63l-55.06-.53v56.74c-1.48-.5-3.04-.83-4.69-.83-8.25,0-14.93,6.68-14.93,14.93s6.68,14.93,14.93,14.93c1.65,0,3.2-.33,4.69-.82v38.58s-.62,12.88,6.73,14.93c7.66,2.13,52.99,7.61,71.13,7.32,11.56-.18,33.52-1.62,49.71-4.79,9.23-1.81,16.17-1.47,19.08-7.21,2.15-4.24,3.47-24.93,4.27-48.73,1.38,.42,2.81,.72,4.34,.72,8.25,0,14.93-6.68,14.93-14.93s-6.68-14.93-14.93-14.93Z"/><path class="cls-1" d="M183.58,205.38s-10.98,25.03-8.34,28.1c2.63,3.07,25.47,6.59,36.45,6.59s34.51-1.32,38.33-5.71-13.74-28.98-13.74-28.98h-52.69Z"/><path class="cls-8" d="M174.83,190.03c0,6.56-5.32,11.87-11.88,11.87s-11.87-5.31-11.87-11.87,5.32-11.87,11.87-11.87,11.88,5.31,11.88,11.87Z"/><path class="cls-8" d="M264.41,190.03c0,6.56-5.32,11.87-11.88,11.87s-11.87-5.31-11.87-11.87,5.32-11.87,11.87-11.87,11.88,5.31,11.88,11.87Z"/><path class="cls-5" d="M153.72,266.42c-.3,0-.6-.08-.89-.24-.84-.49-1.12-1.57-.63-2.41,.3-.5,7.27-12.28,15.74-13.61,6.63-1.03,13.32,2.73,18.68,5.76,1.52,.85,2.96,1.67,4.31,2.32,5.85,2.84,7.36,1.73,11.8-1.58,.75-.56,1.55-1.16,2.45-1.79,11.29-7.94,13.3-7.41,25.58-.97,1.6,.84,3.39,1.78,5.43,2.81,8.54,4.33,15.1,2.38,21.98-6.53,.59-.77,1.7-.9,2.46-.31,.77,.59,.91,1.69,.32,2.46-4.98,6.44-13.13,14.23-26.35,7.52-2.05-1.05-3.86-1.99-5.47-2.84-11.51-6.04-11.95-6.28-21.93,.73-.86,.61-1.65,1.19-2.37,1.73-4.6,3.42-7.65,5.69-15.43,1.93-1.4-.68-2.91-1.54-4.49-2.43-5.15-2.9-10.98-6.2-16.42-5.35-6.81,1.07-13.19,11.8-13.25,11.91-.33,.56-.91,.87-1.52,.87Z"/><path class="cls-8" d="M139.23,182.33c-.87,0-1.63-.65-1.74-1.54-.12-.96,.56-1.84,1.53-1.96,21.56-2.67,25.03-17.79,25.06-17.94,.21-.95,1.15-1.53,2.09-1.35,.95,.2,1.55,1.14,1.35,2.09-.16,.72-4.05,17.72-28.07,20.7-.08,0-.15,.01-.22,.01Z"/><path class="cls-8" d="M277.09,182.33c.87,0,1.63-.65,1.74-1.54,.12-.96-.56-1.84-1.53-1.96-21.56-2.67-25.03-17.79-25.06-17.94-.21-.95-1.15-1.53-2.09-1.35-.95,.2-1.55,1.14-1.35,2.09,.16,.72,4.05,17.72,28.07,20.7,.08,0,.15,.01,.22,.01Z"/></svg>