<?xml version="1.0" encoding="UTF-8"?><svg id="Layer_1" xmlns="http://www.w3.org/2000/svg" viewBox="0 0 432 852"><defs><style>.cls-1{fill:#efb143;}.cls-2{fill:#f2bf8c;}.cls-3{fill:#ffcc94;}.cls-4{fill:#ffc145;}.cls-5{fill:#332c25;}.cls-6{fill:#2d2a27;}.cls-7{fill:#302c28;}.cls-8{fill:#3d342c;}.cls-9{fill:#4c392c;}</style></defs><g><path class="cls-3" d="M178.06,755.67s-13.62,32.62-11.77,34.81c1.85,2.19,49.94,2.86,52.3,0,2.35-2.86-4.88-35.65-4.88-35.65l-35.65,.84Z"/><polygon class="cls-1" points="163.09 790.31 164.74 802.41 220.26 802.41 221.78 790.31 163.09 790.31"/><path class="cls-1" d="M192.58,793.73s-.23-10.76-3.37-14.13c-3.14-3.36-5.5-7.29-16.82-9.76l1.46-3.76s16.25,2.53,20.74,16.55c0,0,7.04-16.36,20.95-18.94l.71,3.71s-20.32,7.27-20.44,26.33h-3.24Z"/></g><g><path class="cls-3" d="M290.48,755.67s13.62,32.62,11.77,34.81c-1.85,2.19-49.94,2.86-52.3,0-2.35-2.86,4.88-35.65,4.88-35.65l35.65,.84Z"/><polygon class="cls-1" points="305.45 790.31 303.8 802.41 248.27 802.41 246.76 790.31 305.45 790.31"/><path class="cls-1" d="M275.96,793.73s.23-10.76,3.37-14.13c3.14-3.36,5.5-7.29,16.82-9.76l-1.46-3.76s-16.25,2.53-20.74,16.55c0,0-7.04-16.36-20.95-18.94l-.72,3.71s20.32,7.27,20.44,26.33h3.24Z"/></g><g><path class="cls-1" d="M185.71,331.8s-25.89-14.7-13.92-22.93c11.97-8.24,34.96-7.13,53.02-7.34,18.07-.21,60.07,1.25,63.97,12.76,3.9,11.51-19.85,20.81-19.85,20.81l-83.22-3.3Z"/><path class="cls-3" d="M318.39,509.11l4.42,4.1-1.52,22.67s-2.68,15.31-17.57,15.67c-19.72,.47-20.51-17.35-20.51-17.35l.29-25.64,34.89,.56Z"/><polygon class="cls-8" points="171.28 532.88 166.28 537.34 170.91 760.53 220.02 762.05 229.29 573.93 237.92 573.93 249.48 762.05 296.19 760.53 294.44 537.34 288.5 530.05 171.28 532.88"/><path class="cls-4" d="M301.88,349.33l-4.94-19.23s-8.78-9.06-58.13-9.03c-52.66,.03-71.99,5.95-71.99,5.95,0,0-26.18,1.49-39.56,33.32-13.39,31.83-33.32,74.67-35.99,86.27-2.68,11.6-.82,27.35,50.95,70.19l22.23-29.73s-36-28.56-35.11-37.48c.89-8.92,32.13-65.45,34.21-66.93,2.08-1.49,5.05,31.53,5.05,31.53l-2.38,110.97s98.08,7.73,128.21-2.38l7.44-7.44v-166Z"/><path class="cls-1" d="M268.98,341.43c5.53-5.25,10.69-10.79,16.06-16.19-8.54-2.14-22.79-4.18-46.22-4.16-33.02,.02-52.93,2.35-63.19,4.09,7.53,5.37,14.53,11.98,21.29,18.25,6.75,6.26,12,9.42,21.38,7.39,3.16-.68,6.14-1.21,9.4-.72,6.35,.94,12.7,3.22,19.2,2.72,5.18-.4,9.26-1.81,13.11-3.97,3.1-2.32,6.14-4.71,8.98-7.4Z"/><path class="cls-1" d="M296.77,332.35c-1.42,12.61-3.58,25.14-4.24,37.83-.93,17.78-.61,35.67-1.1,53.47-.92,33.42-.73,66.82-.93,100.24,1.4-.35,2.75-.71,3.95-1.11l7.44-7.44v-166l-5.11-16.99Z"/><path class="cls-3" d="M211.15,281.51v40.16s-1.79,18.74,16.36,18.45c18.15-.3,16.66-19.04,16.66-19.04l2.08-37.48-35.1-2.08Z"/><path class="cls-2" d="M241.71,330.74c-3.59,3.83-8.18,6.05-13.37,6.77-6.71,.93-13.04-2.49-16.31-7.97,1.52,5.09,5.45,10.73,15.47,10.57,10.26-.17,14.24-6.23,15.76-11.47-.45,.73-.95,1.44-1.56,2.1Z"/><path class="cls-2" d="M245.73,292.95l.52-9.36-35.1-2.08v8.57c13.01,5.64,23.05,4.74,34.58,2.87Z"/><rect class="cls-8" x="166.28" y="522.77" width="128.16" height="14.58"/><path class="cls-3" d="M163.32,488.57l3.3,2.64,14.61,13.34s8.98,10.14,1.15,20.47c-10.38,13.69-22.96,4.56-22.96,4.56l-16.64-13.56,20.53-27.46Z"/><path class="cls-4" d="M298.01,330.98c16.06,14.73,24.54,28.76,25.43,100.16,.89,71.4,0,90.14,0,90.14h-28.56l-.45-131.19s-12.49-73.83,3.57-59.11Z"/><path class="cls-5" d="M236.42,575.76c-1.11,0-2.26,0-3.43-.02l-3.7-.02c-8.79,0-14.97-1.78-15.23-1.86-.94-.27-1.49-1.27-1.21-2.21,.28-.94,1.27-1.49,2.22-1.21,.06,.02,5.98,1.72,14.22,1.72l3.72,.02c6.92,.05,12.87,.1,16.3-1.62,.88-.44,1.95-.08,2.4,.8,.44,.88,.08,1.96-.8,2.39-3.53,1.76-8.59,2.01-14.49,2.01Z"/><g><rect class="cls-1" x="204.38" y="347.62" width="3.35" height="35.47"/><path class="cls-1" d="M209.51,383.76c0,2.71-1.55,4.91-3.46,4.91s-3.46-2.2-3.46-4.91,1.55-4.91,3.46-4.91,3.46,2.2,3.46,4.91Z"/></g><g><rect class="cls-1" x="251.72" y="347.62" width="3.35" height="35.47"/><path class="cls-1" d="M256.85,383.76c0,2.71-1.55,4.91-3.46,4.91s-3.46-2.2-3.46-4.91,1.55-4.91,3.46-4.91,3.46,2.2,3.46,4.91Z"/></g></g><g><path class="cls-9" d="M143.59,210.2s-9.56-76.17,0-132.57l10.51,19.12s1.28-25.18,44.62-42.07l-8.6,23.27s29.32-31.87,73.62-28.04l-21.99,18.48s44.61-11.47,74.57,12.75l-32.83,3.19s33.14-5.42,58,42.38l-31.55-12.43s27.09,13.39,31.55,42.07c0,0-12.43-13.07-25.49-14.02v73.94l-172.41-6.05Z"/><path class="cls-3" d="M160.79,172.28s-8.92,80.63,21.99,102.93c30.91,22.31,80.31,23.9,101.34-7.01,21.03-30.91,18.64-98.64,18.64-98.64,0,0,.08-24.06-32.99-21.98-26.77,1.68-36.97,20.87-36.97,20.87,0,0-9.56-23.26-34.1-22.94-24.54,.32-37.07,15.04-37.93,26.77Z"/><path class="cls-3" d="M171.79,216.18c0,10.16-8.24,18.4-18.4,18.4s-18.4-8.24-18.4-18.4,8.24-18.41,18.4-18.41,18.4,8.24,18.4,18.41Z"/><path class="cls-3" d="M325.24,216.26c0,10.16-8.24,18.4-18.4,18.4s-18.4-8.24-18.4-18.4,8.24-18.4,18.4-18.4,18.4,8.24,18.4,18.4Z"/><polygon class="cls-2" points="229.15 197.85 218.16 229.49 243.97 229.49 229.15 197.85"/><path class="cls-6" d="M205.41,196.02c0,5.89-4.78,10.68-10.68,10.68s-10.68-4.78-10.68-10.68,4.78-10.68,10.68-10.68,10.68,4.78,10.68,10.68Z"/><path class="cls-6" d="M275.84,196.02c0,5.89-4.78,10.68-10.67,10.68s-10.68-4.78-10.68-10.68,4.78-10.68,10.68-10.68,10.67,4.78,10.67,10.68Z"/><path class="cls-7" d="M210.08,264.37c-7.84,0-12.72-.72-12.84-.74-.81-.13-1.38-.98-1.27-1.91,.11-.93,.83-1.59,1.67-1.46,.32,.05,32.65,4.84,65.25-10.92,.76-.36,1.62,.04,1.95,.91,.32,.86-.03,1.86-.8,2.22-20.65,9.99-41.21,11.9-53.95,11.9Z"/><path class="cls-7" d="M173.22,185.66c-.71,0-1.38-.39-1.72-1.07-.46-.95-.07-2.09,.87-2.56l26.77-13.07c.95-.46,2.09-.08,2.56,.88,.46,.95,.07,2.09-.88,2.56l-26.77,13.07c-.27,.13-.56,.19-.84,.19Z"/><path class="cls-7" d="M286.99,185.66c.71,0,1.39-.39,1.72-1.07,.46-.95,.07-2.09-.87-2.56l-26.77-13.07c-.95-.46-2.09-.08-2.56,.88-.46,.95-.07,2.09,.88,2.56l26.77,13.07c.28,.13,.56,.19,.84,.19Z"/></g></svg>