<?xml version="1.0" encoding="UTF-8"?><svg id="Layer_1" xmlns="http://www.w3.org/2000/svg" viewBox="0 0 432 852"><defs><style>.cls-1{fill:#f4bf8c;}.cls-2{fill:#ffcc94;}.cls-3{fill:#222c33;}.cls-4{fill:#212c33;}.cls-5{fill:#46140f;}.cls-6{fill:#826748;}.cls-7{fill:#2c3a44;}.cls-8{fill:#593628;}</style></defs><path class="cls-6" d="M141.59,781.37l-8.2,5.28s-35.13-4.35-42.15,6.02c-7.03,10.37-.59,20.32,9.37,22.08s73.46-.26,81.81-4.52c8.35-4.26,5.03-23.57,5.03-23.57l-8.39-9.26-37.47,3.98Z"/><path class="cls-6" d="M251.04,781.37l8.2,5.28s35.13-4.35,42.15,6.02c7.03,10.37,.58,20.32-9.37,22.08s-73.46-.26-81.81-4.52c-8.35-4.26-5.03-23.57-5.03-23.57l8.39-9.26,37.47,3.98Z"/><path class="cls-2" d="M110.71,534.45v25.47c0,6.15,6.13,9.65,13.61,9.66,11.86,.01,11.86-10.54,11.86-10.54l1.76-34.21-27.22,9.62Z"/><path class="cls-2" d="M270.1,534.45v25.47c0,6.15-6.13,9.65-13.61,9.66-11.86,.01-11.86-10.54-11.86-10.54l-1.76-34.21,27.22,9.62Z"/><g><polygon class="cls-3" points="141.59 524.83 132.22 541.34 133.39 786.65 187.45 786.65 189.3 604.6 197.26 604.6 205.41 786.65 259.24 786.65 249.32 524.83 141.59 524.83"/><path class="cls-7" d="M107.6,541.34h167.72s.03-129.94-1.45-149.28c-1.18-15.43-19.9-31.77-56.16-37.17-9.18-1.37-19.49-2.03-30.92-1.81-11.57,.23-21.73,1.27-30.57,2.91-35.37,6.61-49.71,23.05-49.6,37.15,.14,17.63,.99,148.18,.99,148.18Z"/><g><path class="cls-2" d="M204.06,320.61h-34.54l.26,34.54c.96,8.59,8.16,15.3,17.01,15.3s16.05-6.71,17-15.3l.26-34.54Z"/><path class="cls-1" d="M203.91,339.47l.14-18.86h-34.54l.15,20.34c15.65,3.23,22.94,1.29,34.24-1.48Z"/></g><path class="cls-5" d="M86.9,237.48s-11.12-67.37,0-86.69l-22.24,29.28s-7.61-24.01,19.32-57.38c0,0-17.57,0-32.21,9.37,0,0,9.37-23.42,35.13-22.25,0,0-3.51-30.45,18.74-50.35,0,0-7.61,33.96,0,40.99,0,0,11.23-34.18,48.26-51.75,29.63-14.06,82.89-18.5,115.67,1.4,32.79,19.9,55.04,51.52,88.99,48.59,0,0-2.34,15.81-21.08,24.01,0,0,18.15,5.85,42.74-2.93,0,0-11.99,35.13-38.78,50.94l23.56-.58s-33.96,26.93-61.47,28.69l11.7,2.93s-9.37,8.78-21.08,9.96c0,0-3.3,60.3-37.07,80.2l-170.19-54.41Z"/><path class="cls-2" d="M119.69,164.37s-22.25,49.06-15.22,92.38c7.03,43.33,26.94,81.97,86.65,84.9,59.72,2.92,84.3-65.58,71.42-128.22,0,0-67.91,1.17-93.09-33.37,0,0,9.96,65.38,59.13,85.09,0,0-85.48-36.26-108.9-100.78Z"/><circle class="cls-2" cx="99.93" cy="233.53" r="20.2"/><circle class="cls-2" cx="264.16" cy="233.53" r="20.2"/><polygon class="cls-1" points="178.24 238.12 174.14 285.57 193.46 278.42 178.24 238.12"/><path class="cls-8" d="M182,312.17c-10.76,0-18.86-2.47-19.04-2.52-.92-.3-1.43-1.28-1.15-2.2,.3-.93,1.28-1.44,2.2-1.15,1.65,.52,40.62,12.34,59.43-19.85,.49-.84,1.56-1.12,2.4-.62,.84,.49,1.12,1.56,.63,2.4-11.5,19.68-30.3,23.95-44.48,23.95Z"/><polygon class="cls-6" points="173.28 354.88 167.97 352.6 153 354.72 161.96 365.39 169.57 365.39 167.97 375.25 186.91 384.47 173.28 354.88"/><polygon class="cls-6" points="199.64 354.4 205.85 351.91 220.93 353.5 215.17 364.42 205.85 363.29 207.08 374.29 186.91 384.47 199.64 354.4"/><polygon class="cls-2" points="167.97 352.6 186.91 384.47 205.85 351.91 167.97 352.6"/><path class="cls-8" d="M134.99,229.7c.13,5.97-3.82,10.9-8.83,11-5,.11-9.16-4.64-9.29-10.62-.13-5.97,3.82-10.9,8.82-11.01,5.01-.11,9.17,4.64,9.3,10.62Z"/><path class="cls-8" d="M240.88,229.7c.13,5.97-3.82,10.9-8.83,11-5,.11-9.16-4.64-9.29-10.62-.13-5.97,3.82-10.9,8.82-11.01,5.01-.11,9.17,4.64,9.3,10.62Z"/></g><rect class="cls-4" x="185.93" y="384.47" width="1.96" height="159.2"/><path class="cls-4" d="M130.27,541.34h1.96v-178.13c-.67,.3-1.32,.6-1.96,.91v177.21Z"/><path class="cls-4" d="M249.41,541.34h1.96v-176.23c-.62-.32-1.3-.63-1.96-.95v177.19Z"/><polygon class="cls-4" points="220.93 409.09 243.97 409.09 241.56 431.7 232.88 437.19 222.9 432.36 220.93 409.09"/><circle class="cls-4" cx="192.38" cy="395.03" r="3.07"/><circle class="cls-4" cx="192.38" cy="432.5" r="3.07"/><circle class="cls-4" cx="192.38" cy="469.97" r="3.07"/><circle class="cls-4" cx="192.38" cy="507.44" r="3.07"/></svg>