<?xml version="1.0" encoding="UTF-8"?><svg id="Layer_1" xmlns="http://www.w3.org/2000/svg" viewBox="0 0 432 852"><defs><style>.cls-1{fill:#eabd98;}.cls-2{fill:#fed3aa;}.cls-3{fill:#6b6b6b;}.cls-4{fill:#137964;}.cls-5{fill:#4c301d;}.cls-6{fill:#473b2b;}.cls-7{fill:#259378;}</style></defs><path class="cls-4" d="M311.74,780.42l5.54,6.1s1.84,9.06-1.67,9.52c-.46,.06-65.01-.82-68.23-2.18-2.37-1-1.7-10.23-1.7-10.23l6.33-3.79,59.73,.57Z"/><path class="cls-2" d="M266.44,596.82l-.79,159.85s41.65-7.39,49.24,7.03c7.59,14.42,2.4,22.81,2.4,22.81l-71.6-2.88-5.17-189.21,25.93,2.41Z"/><path class="cls-4" d="M306.73,757.39s-16.81,3.42-23.32,28.27l-7.85-.45s1.95-8.86,7.7-16.57c5.53-7.41,14.84-13.68,16.51-13.54,3.4,.3,6.96,2.28,6.96,2.28Z"/><path class="cls-4" d="M121.15,779.81l-5.49,6.15s-1.76,9.07,1.76,9.51c.46,.06,65-1.39,68.21-2.78,2.37-1.02,1.61-10.24,1.61-10.24l-6.37-3.73-59.72,1.1Z"/><path class="cls-2" d="M164.84,595.83l2.2,159.83s-41.71-7.03-49.18,7.46-2.2,22.83-2.2,22.83l71.57-3.51,3.51-189.25-25.91,2.63Z"/><path class="cls-2" d="M319.26,389.56s40.4,45.67,39.82,57.38c-.58,11.71-46.84,57.38-46.84,57.38,0,0,15.84,14.08,16.39,19.32,1.17,11.12-6.44,20.49-16.39,20.49s-33.96-39.81-33.96-39.81l50.35-63.23-29.67-34.54,20.3-16.98Z"/><polygon class="cls-4" points="278.76 344.85 335.45 397.06 306.97 432.01 269.19 399.09 278.76 344.85"/><path class="cls-2" d="M112.74,390.92s-40.4,45.67-39.82,57.38c.58,11.71,46.84,57.38,46.84,57.38,0,0-15.84,14.08-16.39,19.32-1.17,11.12,6.44,20.49,16.39,20.49s33.96-39.81,33.96-39.81l-50.35-63.23,29.67-34.54-20.3-16.98Z"/><polygon class="cls-3" points="157.66 505.67 142.22 520.6 148.58 607.54 206.42 607.54 209.93 580.9 223.18 580.46 226.73 607.54 287.68 607.54 294.03 520.6 280.37 509.18 157.66 505.67"/><g><path class="cls-4" d="M142.22,520.6h151.82s.03-133.45-1.31-152.79c-1.34-19.34-27.62-40.09-78.83-38.97-52.38,1.15-72.7,22.43-72.57,40.06,.12,17.63,.89,151.7,.89,151.7Z"/><path class="cls-2" d="M230.77,296.37h-34.54l.26,34.54c.96,8.59,8.16,15.3,17.01,15.3s16.05-6.7,17-15.3l.26-34.54Z"/><path class="cls-1" d="M215.56,318.43c5.46-.16,10.03-1.56,15.06-2.98l.15-19.08h-34.54l.15,18.99c6.09,2.7,12.48,3.27,19.19,3.07Z"/><g><polygon class="cls-5" points="312.19 148.09 300.32 211.81 287.74 212.01 280.13 157.09 312.19 148.09"/><path class="cls-2" d="M309.56,211.55c.15,9.28-8.14,16.93-18.5,17.09-10.36,.16-18.89-7.22-19.04-16.49-.15-9.28,8.14-16.93,18.5-17.09,10.37-.16,18.89,7.22,19.04,16.5Z"/><path class="cls-2" d="M154.34,214.41c.15,9.28-8.14,16.93-18.5,17.09-10.37,.16-18.89-7.22-19.04-16.5-.15-9.27,8.14-16.93,18.5-17.09,10.37-.16,18.89,7.22,19.04,16.49Z"/><path class="cls-2" d="M133.04,129.45l1.9,119.42h.07c2.13,38.19,37.11,68.21,79.47,67.54,42.35-.68,76.36-31.79,77.28-70.03h.07l-1.9-119.42-156.9,2.5Z"/><path class="cls-5" d="M329.1,87.68s-1.43,20.23-24.75,17.52c-23.32-2.7-69.64-43.68-102.22-48.43-32.57-4.75-77.11,11.33-74.74,49.94,0,0-14.64-9.43-21.09-.54-6.45,8.89-9.78,31.15,2.08,53.1,5.11,9.46,14,34.07,15.32,42.56,3.17-2.35,7.17-3.84,11.6-3.91,.02,0,.03,0,.05,0l-1.66-54.42s28.78,42.58,97.29,42.81c68.51,.22,104.18-31.78,107.15-69.05,2.02-25.35-9.03-29.57-9.03-29.57Z"/></g><polygon class="cls-1" points="199.33 265.1 227.67 265.1 213.5 203.6 199.33 265.1"/><path class="cls-6" d="M172.44,200.72c0,6.28-5.09,11.36-11.37,11.36s-11.36-5.09-11.36-11.36,5.09-11.37,11.36-11.37,11.37,5.09,11.37,11.37Z"/><path class="cls-6" d="M272.07,200.72c0,6.28-5.09,11.36-11.36,11.36s-11.37-5.09-11.37-11.36,5.09-11.37,11.37-11.37,11.36,5.09,11.36,11.37Z"/><path class="cls-6" d="M214.32,295.13c-22.94,0-33.25-15.07-33.68-15.72-.54-.81-.32-1.89,.49-2.43,.8-.54,1.89-.32,2.44,.48,.39,.58,10.05,14.42,31.24,14.15,21.14-.21,28.2-15.43,28.49-16.08,.39-.88,1.44-1.28,2.32-.89,.89,.39,1.29,1.43,.9,2.31-.33,.74-8.19,17.94-31.67,18.17-.17,0-.34,0-.51,0Z"/></g><polygon class="cls-4" points="153.24 346.21 96.55 398.41 125.03 433.36 162.81 400.45 153.24 346.21"/><path class="cls-4" d="M125.96,756.74s16.84,3.27,23.57,28.07l7.85-.51s-2.03-8.85-7.85-16.5c-5.6-7.36-14.96-13.55-16.63-13.39-3.4,.33-6.94,2.34-6.94,2.34Z"/><path class="cls-7" d="M141.81,449.17h152.06c-.04-7.62-.08-15.3-.13-22.78H141.67c.04,7.47,.09,15.15,.13,22.78Z"/><path class="cls-7" d="M142.06,493.64h151.95c-.01-6.82-.03-14.55-.05-22.78H141.93c.05,8.22,.09,15.96,.13,22.78Z"/></svg>