<?xml version="1.0" encoding="UTF-8"?><svg id="Layer_1" xmlns="http://www.w3.org/2000/svg" viewBox="0 0 432 852"><defs><style>.cls-1{fill:#fbca9c;}.cls-2{fill:#8c2828;}.cls-3{fill:#332828;}.cls-4{fill:#ddb492;}.cls-5{fill:#302c28;}.cls-6{fill:#3a2d2d;}.cls-7{fill:#4c392c;}</style></defs><path class="cls-1" d="M96.26,489.67v50.7s0,14.73,21.19,14.73c17.13,0,16.54-13.55,16.54-13.55l4.73-54.82-42.45,2.94Z"/><path class="cls-1" d="M334.85,489.67v50.7s0,14.73-21.19,14.73c-17.12,0-16.54-13.55-16.54-13.55l-4.72-54.82,42.45,2.94Z"/><path class="cls-7" d="M156.48,756.88s-19.21-6.88-35.13,0c-15.92,6.89-20.34,28-3.09,31.37,17.24,3.37,48.19-4.15,55.71-4.59,7.52-.44,29.18,2.21,32.72-.44,3.54-2.65,0-21.22,0-21.22l-50.2-5.12Z"/><path class="cls-7" d="M283.64,756.88s19.21-6.88,35.12,0c15.92,6.89,20.34,28,3.1,31.37-17.25,3.37-48.19-4.15-55.71-4.59-7.52-.44-29.18,2.21-32.72-.44-3.54-2.65,0-21.22,0-21.22l50.2-5.12Z"/><polygon class="cls-2" points="144.42 516.78 138.71 529.15 147.54 754.35 207.99 774.39 215.75 588.56 232.43 773.18 285.92 756.18 292.4 529.15 285.19 519.73 144.42 516.78"/><path class="cls-6" d="M146.89,296.02s-48.86-5.01-51.81,29.18c-2.95,34.19-7.07,173.31-7.07,173.31h53.64l5.24-202.49Z"/><path class="cls-3" d="M132.85,348.78c-7.54,8.52-8.72,31.22-8.72,31.22l-2.38,118.5h19.9l3.51-135.42c-4.2,4.99-7.97-19.19-12.3-14.3Z"/><path class="cls-6" d="M282.39,296.02s48.86-5.01,51.81,29.18c2.95,34.19,7.07,173.31,7.07,173.31h-53.64l-5.24-202.49Z"/><path class="cls-3" d="M310.34,451.68c.02-22.53-2.04-44.85-2.93-67.34-.46-11.53-.44-24.25-4.7-35.14-3.75-9.59-10.18-16.17-15.81-24.59-1.52-2.28-2.79-4.69-3.96-7.15l4.69,181.04h21.8c.37-15.61,.89-31.22,.91-46.83Z"/><path class="cls-6" d="M304.27,529.15H126.84v-213.08c0-11.07,8.98-20.05,20.05-20.05h137.33c11.07,0,20.05,8.98,20.05,20.05v213.08Z"/><path class="cls-1" d="M195,266.25v40.38s2.66,8.55,19.9,8.55c22.55,0,22.55-8.55,22.55-8.55l1.77-40.38h-44.21Z"/><path class="cls-4" d="M238.89,273.68l.32-7.43h-44.21v5.97c14.17,5.35,29.17,3.69,43.89,1.46Z"/><circle class="cls-1" cx="218.28" cy="167.81" r="104.93" transform="translate(-54.73 203.5) rotate(-45)"/><path class="cls-1" d="M136.64,171.94c0,11.47-9.3,20.78-20.78,20.78s-20.78-9.3-20.78-20.78,9.3-20.78,20.78-20.78,20.78,9.3,20.78,20.78Z"/><path class="cls-1" d="M343.99,171.94c0,11.47-9.3,20.78-20.78,20.78s-20.78-9.3-20.78-20.78,9.3-20.78,20.78-20.78,20.78,9.3,20.78,20.78Z"/><polygon class="cls-4" points="214.45 138.93 197.65 202.59 232.14 202.59 214.45 138.93"/><polygon class="cls-5" points="199.86 260.95 199.86 290.57 232.14 283.5 232.14 259.18 199.86 260.95"/><path class="cls-5" d="M209.68,238.08c-24.74,0-34.06-8.62-34.47-9.02-.7-.68-.73-1.79-.05-2.5,.67-.7,1.79-.73,2.49-.06,.1,.09,10.11,9.19,37.17,7.92,26.99-1.27,38.3-17.2,38.41-17.36,.56-.8,1.66-1.01,2.46-.45,.8,.55,1.01,1.65,.46,2.45-.49,.72-12.32,17.54-41.17,18.9-1.84,.09-3.61,.13-5.3,.13Z"/><path class="cls-5" d="M170.98,147.18c0,8.22-4.92,14.89-10.98,14.89s-10.98-6.67-10.98-14.89,4.92-14.88,10.98-14.88,10.98,6.67,10.98,14.88Z"/><path class="cls-5" d="M296.54,147.18c0,8.22-4.92,14.89-10.98,14.89s-10.98-6.67-10.98-14.89,4.91-14.88,10.98-14.88,10.98,6.67,10.98,14.88Z"/><path class="cls-2" d="M195,288.65s5.02,15.22,17.39,15.92c22.1,1.24,26-15.92,26-15.92l10.55,7.08s.73,20.62-31.83,22.98c-32.57,2.36-34.04-22.69-34.04-22.69l11.93-7.37Z"/><rect class="cls-2" x="212.39" y="309.29" width="2.5" height="219.87"/><path class="cls-2" d="M232.43,354.38c0,3.09-2.51,5.6-5.6,5.6s-5.6-2.51-5.6-5.6,2.51-5.6,5.6-5.6,5.6,2.51,5.6,5.6Z"/><path class="cls-2" d="M232.43,401.35c0,3.09-2.51,5.6-5.6,5.6s-5.6-2.51-5.6-5.6,2.51-5.6,5.6-5.6,5.6,2.51,5.6,5.6Z"/><path class="cls-2" d="M232.43,448.31c0,3.09-2.51,5.6-5.6,5.6s-5.6-2.51-5.6-5.6,2.51-5.6,5.6-5.6,5.6,2.51,5.6,5.6Z"/><path class="cls-2" d="M232.43,495.27c0,3.09-2.51,5.6-5.6,5.6s-5.6-2.51-5.6-5.6,2.51-5.6,5.6-5.6,5.6,2.51,5.6,5.6Z"/></svg>