<?xml version="1.0" encoding="UTF-8"?><svg id="Layer_1" xmlns="http://www.w3.org/2000/svg" viewBox="0 0 432 852"><defs><style>.cls-1{fill:#f2c097;}.cls-2{fill:#efbe97;}.cls-3{fill:#fbca9c;}.cls-4{fill:#737da8;}.cls-5{fill:#656d96;}.cls-6{fill:#b25219;}.cls-7{fill:#956046;}.cls-8{fill:#2a9651;}.cls-9{fill:#2eab5f;}.cls-10{fill:#4c392c;}</style></defs><polygon class="cls-3" points="348.02 324.87 349.39 313.98 345.68 296.77 310.55 310.82 318.05 330.47 322.84 334.78 348.02 324.87"/><path class="cls-3" d="M123.64,557.6l-14.05,4.89s-3.71,24.82-3.95,30.68c-.21,5.12,3.07,14.05,11.86,16.25s22.97-6.54,28.93-36.01l-22.79-15.81Z"/><path class="cls-10" d="M181.17,793.29s-19.08-6.84-34.89,0c-15.81,6.84-20.2,27.81-3.07,31.15,17.12,3.34,47.86-4.12,55.33-4.56s28.98,2.2,32.49-.44,0-21.08,0-21.08l-49.86-5.08Z"/><path class="cls-10" d="M282.2,793.29s19.08-6.84,34.89,0c15.81,6.84,20.2,27.81,3.07,31.15-17.12,3.34-47.86-4.12-55.33-4.56s-28.98,2.2-32.49-.44,0-21.08,0-21.08l49.86-5.08Z"/><polygon class="cls-9" points="174.58 522.03 160.09 535.88 170.19 790.76 232.54 805.25 291.55 791.04 301.08 535.88 287.86 527.9 174.58 522.03"/><polygon class="cls-8" points="230.78 804.94 232.54 805.25 234.41 804.83 234.41 590.04 230.78 589.9 230.78 804.94"/><path class="cls-8" d="M279.13,561.28c3.84,10.15,11.19,16.65,19.89,21.52l2.06-46.93-13.22-7.98-15.62-.81c1.11,11.53,2.62,22.94,6.88,34.2Z"/><path class="cls-8" d="M180.2,562.63c7.27-12.83,8.93-25.96,9.27-39.83l-14.89-.77-14.49,13.85,1.98,45.76c7.29-5.02,13.71-11.2,18.13-19Z"/><path class="cls-5" d="M186.84,377.13s-38.2,10.42-41.22,25.35c-3.03,14.93-36.03,160.01-36.03,160.01l36.84,10.92,19.9-98.36,20.51-97.92Z"/><path class="cls-5" d="M266.4,372.54s77.28,8.95,78.6,4.39c1.32-4.55-23.71-44.68-23.71-44.68l28.1-18.27s39.08,67.62,36.45,78.6-7.46,19.32-52.25,19.32-67.18-3.51-67.18-3.51v-35.85Z"/><path class="cls-5" d="M160.65,535.88h140.43s.02-108.86-1.32-128.2c-1.35-19.34-15.04-40.09-66.74-38.97-52.88,1.15-73.39,22.44-73.26,40.06,.12,17.62,.9,127.11,.9,127.11Z"/><path class="cls-9" d="M228.59,406.49c14.21,0,22.56-20.5,28.93-36.37-9.2-1.37-19.46-1.63-30.92-1.41-11.72,.23-23.04,2.61-29.11,4.74,2.98,6.06,18.51,33.04,31.1,33.04Z"/><g><path class="cls-3" d="M245.87,336.23h-34.54l.27,34.54c.95,8.59,8.16,15.3,17.01,15.3s16.05-6.7,17-15.3l.27-34.54Z"/><path class="cls-1" d="M245.72,354.62l.14-18.38h-34.54l.15,19.32c3.79,1.78,10.33,2.74,17.12,2.49,7.97-.3,15.79-2.4,17.13-3.42Z"/></g><path class="cls-6" d="M396.77,178.33c0-16.96-9.22-31.74-22.9-39.7,1.54-4.59,2.4-9.48,2.4-14.58,0-22.98-16.88-41.96-38.92-45.36-4.34-24.22-25.47-42.62-50.95-42.62-12.76,0-24.43,4.63-33.45,12.28-10.57-13.19-26.79-21.65-45-21.65-24.23,0-44.94,14.97-53.47,36.15-8.8-5.44-19.13-8.63-30.24-8.63-31.85,0-57.67,25.82-57.67,57.67,0,5.99,.91,11.76,2.61,17.18-18.01,4.69-31.32,21.01-31.32,40.48,0,16.68,9.77,31.03,23.88,37.77-15.6,6.92-26.51,22.52-26.51,40.69,0,14.97,7.42,28.18,18.74,36.25-.38,2.08-.6,4.21-.6,6.4,0,19.57,15.87,35.44,35.44,35.44,1.21,0,2.4-.06,3.58-.18,6.39,9.31,17.09,15.42,29.23,15.42,18.15,0,33.09-13.65,35.17-31.24l112.76-3.25c1.32,18.36,16.61,32.86,35.31,32.86,16.14,0,29.74-10.8,34.02-25.56,17.04-2.58,30.11-17.24,30.11-35,0-1.38-.1-2.73-.25-4.07,14.15-6.72,23.95-21.1,23.95-37.8,0-10.02-3.53-19.22-9.4-26.43,8.33-8.32,13.48-19.81,13.48-32.52Z"/><path class="cls-3" d="M297.39,238.78c-24.15-13.17-23.71-37.54-23.71-37.54,0,0-9.22,7.24-22.39,0-13.17-7.24-13.17-19.53-13.17-19.53,0,0-4.99,17.55-22.11,22.38s-31.9-4.83-31.9-4.83c0,0-3.95,16.12-16.25,21.08-18.03,7.27-23.32-4.96-23.32-4.96-5.71,93.97,7.08,99.49,10.59,106.39,3.51,6.9,30.57,33.81,68.28,33.81,35.31,0,59.57-21.08,66.52-37.32,6.96-16.25,7.46-79.48,7.46-79.48Z"/><polygon class="cls-2" points="208.84 231.28 196.55 299.46 248.65 299.46 232.26 231.28 208.84 231.28"/><path class="cls-7" d="M223.42,338.19c-22.94,0-33.25-15.06-33.68-15.71-.53-.81-.32-1.9,.49-2.43,.8-.54,1.89-.32,2.44,.48,.39,.58,10.05,14.42,31.24,14.15,21.14-.21,28.19-15.43,28.49-16.08,.39-.88,1.43-1.28,2.31-.89,.89,.39,1.29,1.43,.9,2.31-.32,.73-8.19,17.94-31.66,18.17-.17,0-.34,0-.51,0Z"/><circle class="cls-3" cx="142.41" cy="258.78" r="19.98"/><circle class="cls-3" cx="298.07" cy="258.78" r="19.98"/><path class="cls-7" d="M183.66,238.8c0,7.71-5.24,13.96-11.7,13.96s-11.69-6.25-11.69-13.96,5.23-13.96,11.69-13.96,11.7,6.25,11.7,13.96Z"/><path class="cls-7" d="M278.09,238.8c0,7.71-5.23,13.96-11.7,13.96s-11.69-6.25-11.69-13.96,5.24-13.96,11.69-13.96,11.7,6.25,11.7,13.96Z"/><path class="cls-4" d="M160,444.45h140.64c-.16-13.61-.38-25.42-.67-32.54H159.77c.05,6.6,.13,18.54,.23,32.54Z"/><path class="cls-4" d="M160.3,486.82h140.66c-.05-10.64-.12-21.88-.22-32.55H160.07c.08,10.63,.15,21.88,.23,32.55Z"/><path class="cls-8" d="M232.59,593.16c-8.37,0-18.82-5.01-19.26-5.22-.88-.42-1.24-1.47-.82-2.34,.43-.87,1.47-1.24,2.35-.82,.1,.05,10.17,4.87,17.73,4.87s14.95-4.73,15.03-4.77c.82-.52,1.9-.29,2.43,.53,.53,.82,.28,1.9-.53,2.42-.34,.22-8.44,5.33-16.92,5.33Z"/></svg>